<?xml version="1.0" encoding="UTF-8" standalone="no"?>
<!DOCTYPE svg  PUBLIC '-//W3C//DTD SVG 1.1//EN'  'http://www.w3.org/Graphics/SVG/1.1/DTD/svg11.dtd'>
<svg xmlns="http://www.w3.org/2000/svg">
<defs>
<font id="NotoSans-Regular" horiz-adv-x="0">
<font-face underline-position="-103" font-weight="400" descent="-410" panose-1="2 11 5 2 4 5 4 2 2 4" units-per-em="2048" unicode-range="U+000D-FFFD" bbox="-1232 -806 2706 2146" x-height="1098" underline-thickness="102" font-family="NotoSans" ascent="1638" cap-height="1462"/>
<missing-glyph d="M297 104h633v1254h-633v-1254zM193 1462h841v-1462h-841v1462z" horiz-adv-x="1229"/>
<glyph glyph-name=".notdef" d="M297 104h633v1254h-633v-1254zM193 1462h841v-1462h-841v1462z" horiz-adv-x="1229"/>
<glyph glyph-name="glyph1"/>
<glyph glyph-name="glyph2" horiz-adv-x="1044"/>
<glyph glyph-name="glyph2411"/>
<glyph glyph-name="glyph2411"/>
<glyph glyph-name="uni000D" horiz-adv-x="532" unicode=""/>
<glyph glyph-name="space" horiz-adv-x="532" unicode=" "/>
<glyph glyph-name="space" horiz-adv-x="532" unicode=" "/>
<glyph glyph-name="exclam" horiz-adv-x="785" unicode="!" d="M299 111q0 39 10 65t27 42t40 24t50 8q26 0 50 -8t40 -24q17 -16 27 -42t10 -65q0 -37 -10 -63t-27 -44q-16 -17 -40 -25t-50 -8q-27 0 -50 8t-40 25q-17 18 -27 44t-10 63zM488 414h-121l-51 1048h223z"/>
<glyph glyph-name="quotedbl" horiz-adv-x="1028" unicode='&quot;' d="M822 1493l-51 -528h-124l-51 528h226zM462 1493l-51 -528h-125l-51 528h227z"/>
<glyph glyph-name="numbersign" horiz-adv-x="1337" unicode="#" d="M495 496h286l60 311h-285zM983 807l-59 -311h272v-135h-299l-69 -361h-144l71 361h-285l-70 -361h-141l66 361h-255v135h281l62 311h-269v134h293l68 354h144l-67 -354h287l69 354h141l-69 -354h257v-134h-284z"/>
<glyph glyph-name="dollar" horiz-adv-x="1171" unicode="$" d="M326 1055q0 -73 43 -118t149 -83v373q-94 -16 -143 -61t-49 -111zM858 436q0 72 -47 114.5t-162 82.5v-375q209 32 209 178zM1040 449q0 -137 -101.5 -227t-289.5 -113v-228h-131v219q-114 2 -218.5 19.5t-172.5 48.5v168q75 -35 183.5 -60.5t207.5 -27.5v428 q-205 65 -290 152.5t-85 224.5q0 132 101 217t274 104v180h131v-178q190 -5 361 -76l-56 -141q-155 61 -305 72v-422q160 -54 238.5 -102t115.5 -109.5t37 -148.5z"/>
<glyph glyph-name="percent" horiz-adv-x="1695" unicode="%" d="M1324 1274l-789 -1274h-160l791 1274h158zM1578 351q0 -87 -17 -155t-54 -117q-37 -47 -93 -73t-136 -26q-72 0 -128 26t-93 73q-37 49 -56 117t-19 155t18 156t53 116q36 47 92 72t133 25q75 0 131 -25q55 -25 93 -72t57 -116t19 -156zM1130 351q0 -119 35 -179t113 -60 q153 0 153 239q0 240 -153 240q-78 1 -113 -59t-35 -181zM714 925q0 -85 -18 -155t-54 -118q-37 -48 -94 -73t-135 -25q-73 0 -128 25t-93 73t-56 118t-19 155q0 87 17 156q18 69 54 117t92 72t133 24q74 0 130 -24q57 -24 95 -72t57 -117t19 -156zM265 925q0 -120 35 -180 t113 -60q153 0 153 240t-153 240q-78 0 -113 -60t-35 -180z"/>
<glyph glyph-name="ampersand" horiz-adv-x="1499" unicode="&amp;" d="M109 381q0 130 67 228t248 202q-77 87 -109.5 137.5t-50.5 104t-18 112.5q0 148 99 234t278 86q165 0 259.5 -84t94.5 -232q0 -109 -68.5 -200t-224.5 -183l395 -380q93 108 144 325h182q-69 -285 -209 -440l299 -291h-244l-178 172q-114 -102 -235.5 -147t-268.5 -45 q-215 0 -337.5 105t-122.5 296zM575 139q227 0 383 146l-426 413q-138 -83 -186.5 -151t-48.5 -160q0 -113 77 -180.5t201 -67.5zM422 1167q0 -65 35.5 -130t115.5 -144q124 69 175 132t51 144q0 76 -51 122t-132 46q-89 0 -141.5 -47t-52.5 -123z"/>
<glyph glyph-name="quotesingle" horiz-adv-x="668" unicode="&apos;" d="M462 1493l-51 -528h-125l-51 528h227z"/>
<glyph glyph-name="parenleft" horiz-adv-x="724" unicode="(" d="M140 691q0 143 18 280t54 265t92 246t132 221h166q-69 -109 -123 -229t-91 -250t-55 -264t-18 -271q0 -279 73 -543t216 -484h-168q-76 106 -132 226t-92 252t-54 270t-18 281z"/>
<glyph glyph-name="parenright" horiz-adv-x="724" unicode=")" d="M584 674q0 -143 -18 -280t-54 -265q-36 -127 -92 -245t-132 -222h-166q69 109 123 229t91 250q37 131 55 265t18 270q0 278 -73 542t-216 485h168q76 -107 132 -227t92 -252t54 -270t18 -280z"/>
<glyph glyph-name="asterisk" horiz-adv-x="1243" unicode="*" d="M732 1525l-43 -393l397 111l26 -193l-378 -28l245 -326l-178 -96l-176 358l-158 -358l-184 96l242 326l-375 28l29 193l391 -111l-43 393h205z"/>
<glyph glyph-name="plus" horiz-adv-x="1128" unicode="+" d="M489 585h-387v150h387v388h150v-388h387v-150h-387v-386h-150v386z"/>
<glyph glyph-name="comma" horiz-adv-x="512" unicode="," d="M362 238l15 -23q-13 -54 -33 -115t-44 -123q-24 -61 -48 -123q-26 -62 -51 -118h-138q15 61 29 127q14 65 28 131t25 128t19 116h198z"/>
<glyph glyph-name="hyphen" horiz-adv-x="696" unicode="-" d="M100 524v168h496v-168h-496z"/>
<glyph glyph-name="period" horiz-adv-x="549" unicode="." d="M147 111q0 39 10 65t27 42t40 24t50 8q26 0 50 -8t40 -24q17 -16 27 -42t10 -65q0 -37 -10 -63t-27 -44q-16 -17 -40 -25t-50 -8q-27 0 -50 8t-40 25q-17 18 -27 44t-10 63z"/>
<glyph glyph-name="slash" horiz-adv-x="879" unicode="/" d="M793 1705l-537 -2044h-170l539 2044h168z"/>
<glyph glyph-name="zero" horiz-adv-x="1128" unicode="0" d="M283 733q0 -150 15 -262q15 -113 48 -187q32 -74 86 -112t131 -37q77 0 131 37t88 111q34 75 50 187t16 263q0 150 -16 262t-50 186t-88 111t-131 37t-131 -37t-86 -111q-33 -74 -48 -186t-15 -262zM1032 733q0 -177 -26 -317t-82 -237t-145 -148t-216 -51 q-117 0 -205 51t-146 148t-86 237t-28 317t26 317t80 236q56 96 144 148q88 51 215 51q119 -1 207 -51t146 -146t87 -237q29 -140 29 -318z"/>
<glyph glyph-name="one" horiz-adv-x="1128" unicode="1" d="M711 0h-176v913q1 43 1 92t2 97t2 94q2 44 3 78q-17 -18 -30 -31t-27 -25t-28 -26q-15 -14 -36 -31l-148 -121l-96 123l383 299h150v-1462z"/>
<glyph glyph-name="two" horiz-adv-x="1128" unicode="2" d="M1008 0h-912v156l350 381q75 81 134 148q58 67 100 131t64 128t22 141q0 59 -17 104t-49 77t-74 47q-43 16 -96 16q-96 -1 -172 -39t-145 -98l-102 119q40 35 86 67t99 55t112 37t124 13q96 0 174 -27q78 -28 131 -78t83 -122t30 -164q0 -85 -26 -162q-26 -78 -74 -152 q-46 -74 -110 -149t-140 -156l-281 -299v-8h689v-166z"/>
<glyph glyph-name="three" horiz-adv-x="1128" unicode="3" d="M961 1120q0 -73 -23 -133q-22 -60 -64 -104q-42 -45 -100 -73t-129 -40v-6q177 -22 269 -112t92 -236q0 -96 -32 -176t-99 -138q-66 -58 -167 -90t-239 -32q-109 0 -205 17t-182 62v170q86 -46 188 -71t195 -25q92 0 159 20q66 20 110 57t64 91t21 121q-1 68 -27 116 t-75 80t-119 47t-160 15h-133v151h133q81 0 144 20q64 20 106 57t64 88t22 112q0 52 -18 93t-51 69t-79 44q-46 15 -102 15q-106 1 -188 -33t-156 -88l-92 125q38 31 84 58t102 47t118 33q62 12 132 12q108 0 190 -27q82 -28 136 -76q55 -48 83 -114t28 -146z"/>
<glyph glyph-name="four" horiz-adv-x="1128" unicode="4" d="M698 494v356q0 56 2 118t3 120q3 58 5 109t3 85h-9q-8 -20 -18 -44t-22 -50q-12 -24 -26 -47q-13 -23 -24 -39l-411 -608h497zM1087 328h-213v-328h-176v328h-675v159l663 983h188v-976h213v-166z"/>
<glyph glyph-name="five" horiz-adv-x="1128" unicode="5" d="M545 897q99 1 185 -27t148 -82q64 -54 100 -134t36 -185q0 -114 -34 -205t-101 -154q-67 -62 -165 -96t-227 -34q-51 0 -101 5t-94 15q-46 10 -87 24q-41 15 -74 35v172q33 -23 77 -41t94 -30q48 -12 98 -18t92 -7q79 1 141 19t105 57t66 98t23 140q0 143 -88 219 t-256 75q-27 -1 -59 -3t-62 -6q-32 -4 -60 -8t-50 -9l-90 57l55 688h690v-166h-532l-39 -419q32 6 84 13t125 7z"/>
<glyph glyph-name="six" horiz-adv-x="1128" unicode="6" d="M588 133q60 1 110 21t85 62t55 104q20 64 20 151q0 69 -16 125t-50 95q-32 39 -82 60t-116 21t-122 -24t-95 -60q-39 -38 -61 -86t-21 -96q1 -68 19 -134t54 -119t92 -87q55 -34 128 -33zM113 625q1 105 11 209t36 200t73 177q46 83 117 143t170 94t232 35q19 0 42 -1 q22 -2 46 -4t46 -6t38 -8v-155q-35 12 -79 18t-87 6q-90 1 -158 -21t-119 -61q-49 -39 -83 -93t-55 -120t-31 -139q-10 -74 -13 -154h12q21 35 49 67t66 54t86 36q48 13 106 13q95 1 172 -29t131 -87q53 -57 83 -139t30 -189q0 -114 -31 -205q-31 -90 -89 -154t-140 -98 t-184 -34q-100 0 -188 39t-151 119q-64 80 -101 201t-37 286z"/>
<glyph glyph-name="seven" horiz-adv-x="1128" unicode="7" d="M281 0l563 1296h-754v166h940v-145l-555 -1317h-194z"/>
<glyph glyph-name="eight" horiz-adv-x="1128" unicode="8" d="M563 1333q-107 0 -169 -53t-62 -154q0 -57 18 -98t48 -73q30 -31 74 -57t95 -50q49 22 91 48t74 59t49 75q18 42 18 96q0 101 -63 154t-173 53zM285 371q0 -53 16 -97t50 -76t86 -50t124 -17q69 -1 123 17t90 50t54 79q18 46 18 102q0 52 -20 94t-56 78t-87 68t-114 63 l-30 14q-126 -60 -190 -138t-64 -187zM565 1485q85 0 159 -22t130 -66t90 -110q33 -66 33 -154q0 -67 -20 -121t-55 -98t-83 -78t-104 -62q57 -31 113 -69q56 -37 100 -85t70 -107t26 -132q0 -93 -34 -167t-94 -126t-144 -80t-187 -28q-109 0 -195 27t-144 77t-90 124 q-30 73 -30 165q0 75 22 135t61 108q38 48 90 85t110 65q-49 32 -92 68t-75 81t-50 99t-18 121q0 87 34 153t90 109q58 44 132 66t155 22z"/>
<glyph glyph-name="nine" horiz-adv-x="1128" unicode="9" d="M553 1329q-59 0 -109 -20t-86 -62q-36 -41 -56 -105t-19 -151q1 -69 17 -125t49 -95t83 -60t115 -21q68 0 123 24t94 60q38 38 60 86t22 96q0 68 -18 134t-56 120q-36 54 -91 86q-55 33 -128 33zM1028 838q0 -106 -10 -210t-38 -199q-26 -95 -72 -177t-117 -143t-170 -95 t-232 -34q-19 0 -42 1t-46 3t-45 6q-22 3 -39 8v156q35 -13 79 -19t87 -6q135 0 222 47q87 48 138 128t73 187t26 226h-13q-20 -36 -48 -67t-66 -54t-86 -36t-107 -13q-95 -1 -172 29t-131 87q-53 57 -83 139t-30 189q0 113 32 205t88 156q58 64 140 97q82 34 185 34 q101 0 188 -39t151 -119q64 -79 101 -201t37 -286z"/>
<glyph glyph-name="colon" horiz-adv-x="603" unicode=":" d="M175 987q0 39 10 65t27 44q17 16 40 23t50 7q26 0 50 -7t40 -23q17 -16 27 -44q10 -26 10 -65q0 -37 -10 -63t-27 -43q-16 -17 -40 -25t-50 -8q-27 0 -50 8t-40 25t-27 43t-10 63zM175 111q0 39 10 65t27 42t40 24t50 8q26 0 50 -8t40 -24q17 -16 27 -42t10 -65 q0 -37 -10 -63t-27 -44q-16 -17 -40 -25t-50 -8q-27 0 -50 8t-40 25q-17 18 -27 44t-10 63z"/>
<glyph glyph-name="semicolon" horiz-adv-x="603" unicode=";" d="M175 987q0 39 10 65t27 44q17 16 40 23t50 7q26 0 50 -7t40 -23q17 -16 27 -44q10 -26 10 -65q0 -37 -10 -63t-27 -43q-16 -17 -40 -25t-50 -8q-27 0 -50 8t-40 25t-27 43t-10 63zM390 238l15 -23q-13 -54 -33 -115t-44 -123q-24 -61 -48 -123q-26 -62 -51 -118h-138 q15 61 29 127q14 65 28 131t25 128t19 116h198z"/>
<glyph glyph-name="less" horiz-adv-x="1128" unicode="&lt;" d="M1026 157l-924 424v102l924 481v-160l-735 -364l735 -322v-161z"/>
<glyph glyph-name="equal" horiz-adv-x="1128" unicode="=" d="M102 381v150h924v-150h-924zM102 791v149h924v-149h-924z"/>
<glyph glyph-name="greater" horiz-adv-x="1128" unicode="&gt;" d="M102 318l736 322l-736 364v160l924 -481v-102l-924 -424v161z"/>
<glyph glyph-name="question" horiz-adv-x="1060" unicode="?" d="M342 111q0 39 10 65t27 42t40 24t50 8q25 0 49 -8t41 -24t27 -42t10 -65q0 -37 -10 -63t-27 -44q-17 -17 -41 -25t-49 -8q-27 0 -50 8t-40 25q-17 18 -27 44t-10 63zM390 414v37q0 57 8 103t26 86q20 40 53 78t83 81q48 41 82 75t56 68t32 74t10 92q0 48 -15 88t-43 68 t-72 44q-42 16 -98 15q-83 0 -158 -26t-145 -60l-63 145q81 42 175 72t191 29q94 1 168 -25t126 -74t80 -118t28 -156q0 -68 -14 -120t-40 -97q-27 -45 -67 -87t-94 -89q-52 -45 -85 -79t-52 -64q-19 -32 -26 -65t-7 -77v-18h-139z"/>
<glyph glyph-name="at" horiz-adv-x="1841" unicode="@" d="M688 600q0 -250 193 -250q205 0 223 309l12 256q-73 21 -151 21q-129 0 -203 -89t-74 -247zM1722 731q0 -140 -44.5 -258t-124.5 -184t-185 -66q-85 0 -143 49.5t-72 128.5h-10q-39 -83 -114 -130.5t-175 -47.5q-152 0 -239 101.5t-87 279.5q0 133 53.5 238.5t153.5 164 t228 58.5q69 0 157.5 -12.5t155.5 -36.5l-23 -468v-22q0 -176 127 -176q89 0 144 105t55 278q0 179 -73.5 314t-209 207.5t-309.5 72.5q-220 0 -383.5 -91.5t-250.5 -261t-87 -394.5q0 -302 159 -464.5t462 -162.5q212 0 440 88v-139q-200 -84 -440 -84q-364 0 -566 199.5 t-202 555.5q0 259 107.5 462.5t305.5 315t455 111.5q215 0 383.5 -91t260 -258t91.5 -382z"/>
<glyph glyph-name="A" horiz-adv-x="1309" unicode="A" d="M885 616l-164 443l-70 219q-30 -120 -63 -219l-166 -443h463zM1116 0l-176 453h-580l-174 -453h-186l571 1468h166l570 -1468h-191z"/>
<glyph glyph-name="B" horiz-adv-x="1331" unicode="B" d="M383 686v-530h295q176 0 261 68t85 206q0 131 -90 193.5t-270 62.5h-281zM383 840h270q172 0 250 55t78 184q0 120 -85.5 173t-270.5 53h-242v-465zM199 1462h417q294 0 424.5 -87.5t130.5 -274.5q0 -130 -71 -214.5t-207 -109.5v-10q169 -29 248.5 -117t79.5 -233 q0 -196 -134 -306t-374 -110h-514v1462z"/>
<glyph glyph-name="C" horiz-adv-x="1294" unicode="C" d="M825 1321q-236 0 -371 -158t-135 -432q0 -283 131 -436.5t373 -153.5q156 0 351 58v-160q-93 -34 -179 -46.5t-198 -12.5q-323 0 -497.5 196.5t-174.5 556.5q0 226 83.5 396t243 262t375.5 92q232 0 404 -86l-74 -156q-175 80 -332 80z"/>
<glyph glyph-name="D" horiz-adv-x="1495" unicode="D" d="M1176 739q0 279 -137.5 422.5t-415.5 143.5h-240v-1147h199q594 0 594 581zM1370 745q0 -362 -197.5 -553.5t-566.5 -191.5h-407v1462h450q341 0 531 -187.5t190 -529.5z"/>
<glyph glyph-name="E" horiz-adv-x="1139" unicode="E" d="M1016 0h-817v1462h817v-162h-633v-456h596v-160h-596v-522h633v-162z"/>
<glyph glyph-name="F" horiz-adv-x="1063" unicode="F" d="M383 0h-184v1462h817v-162h-633v-518h594v-161h-594v-621z"/>
<glyph glyph-name="G" horiz-adv-x="1491" unicode="G" d="M834 772h505v-717q-116 -37 -236 -56t-278 -19q-334 0 -517 198t-183 553q0 229 91 400t262.5 261.5t404.5 90.5q234 0 436 -86l-70 -160q-193 84 -377 84q-261 0 -408 -158t-147 -432q0 -290 141 -441t410 -151q147 0 287 35v434h-321v164z"/>
<glyph glyph-name="H" horiz-adv-x="1518" unicode="H" d="M1317 0h-184v682h-750v-682h-184v1462h184v-618h750v618h184v-1462z"/>
<glyph glyph-name="I" horiz-adv-x="694" unicode="I" d="M610 0h-528v106l172 39v1170l-172 41v106h528v-106l-172 -41v-1170l172 -39v-106z"/>
<glyph glyph-name="J" horiz-adv-x="559" unicode="J" d="M-8 -389q-94 0 -152 27v155q71 -20 148 -20q100 0 150 60.5t50 174.5v1454h185v-1439q0 -198 -98.5 -305t-282.5 -107z"/>
<glyph glyph-name="K" horiz-adv-x="1268" unicode="K" d="M1268 0h-217l-519 698l-149 -131v-567h-184v1462h184v-721l126 139l521 582h215l-579 -637z"/>
<glyph glyph-name="L" horiz-adv-x="1073" unicode="L" d="M199 0v1462h184v-1298h639v-164h-823z"/>
<glyph glyph-name="M" horiz-adv-x="1858" unicode="M" d="M844 0l-482 1282h-8q15 -160 15 -395v-887h-170v1462h272l451 -1198h8l459 1198h270v-1462h-182v899q0 150 14 381h-8l-488 -1280h-151z"/>
<glyph glyph-name="N" horiz-adv-x="1556" unicode="N" d="M1358 0h-215l-783 1214h-8l5 -81q12 -182 12 -316v-817h-170v1462h213l45 -71l480 -742l255 -397h8q-2 24 -8 171.5t-6 213.5v825h172v-1462z"/>
<glyph glyph-name="O" horiz-adv-x="1599" unicode="O" d="M319 733q0 -290 123 -442t359 -152q235 0 357 150t122 444q0 293 -121 441.5t-356 148.5q-238 0 -361 -150.5t-123 -439.5zM1475 733q0 -351 -177.5 -552t-496.5 -201q-323 0 -499.5 197.5t-176.5 557.5q0 357 175.5 553.5t502.5 196.5q318 0 495 -199.5t177 -552.5z"/>
<glyph glyph-name="P" horiz-adv-x="1239" unicode="P" d="M383 727h147q218 0 316 70.5t98 226.5q0 141 -91 211t-284 70h-186v-578zM1135 1032q0 -224 -153 -343.5t-431 -119.5h-168v-569h-184v1462h387q549 0 549 -430z"/>
<glyph glyph-name="Q" horiz-adv-x="1599" unicode="Q" d="M319 733q0 -290 123 -442t359 -152q235 0 357 150t122 444q0 293 -121 441.5t-356 148.5q-238 0 -361 -150.5t-123 -439.5zM1475 733q0 -277 -111 -462t-315 -255l350 -364h-264l-283 330l-51 -2q-323 0 -499.5 197.5t-176.5 557.5q0 357 175.5 553.5t502.5 196.5 q318 0 495 -199.5t177 -552.5z"/>
<glyph glyph-name="R" horiz-adv-x="1274" unicode="R" d="M383 604v-604h-184v1462h403q272 0 402.5 -103.5t130.5 -311.5q0 -291 -293 -392l401 -655h-215l-354 604h-291zM383 760h219q178 0 260 70t82 208t-83 201.5t-269 63.5h-209v-543z"/>
<glyph glyph-name="S" horiz-adv-x="1124" unicode="S" d="M1028 391q0 -191 -138 -301t-384 -110q-260 0 -402 69v176q93 -40 203.5 -63t206.5 -23q164 0 247 63t83 173q0 73 -30 120t-100.5 88t-213.5 93q-203 74 -290 174.5t-87 259.5q0 171 128.5 272t338.5 101q219 0 403 -82l-57 -158q-188 78 -350 78q-130 0 -203.5 -56 t-73.5 -157q0 -72 28.5 -119.5t92 -86.5t199.5 -89q163 -60 243 -116.5t118 -130t38 -175.5z"/>
<glyph glyph-name="T" horiz-adv-x="1139" unicode="T" d="M662 0h-185v1300h-457v162h1096v-162h-454v-1300z"/>
<glyph glyph-name="U" horiz-adv-x="1497" unicode="U" d="M1311 1462v-946q0 -250 -151 -393t-419 -143q-265 0 -411 144.5t-146 395.5v942h185v-948q0 -179 95.5 -277t287.5 -98q181 0 278.5 97t97.5 280v946h183z"/>
<glyph glyph-name="V" horiz-adv-x="1229" unicode="V" d="M0 1462h193l329 -938q63 -178 92 -319q25 126 93 323l327 934h195l-522 -1462h-185z"/>
<glyph glyph-name="W" horiz-adv-x="1905" unicode="W" d="M1489 0h-186l-285 958q-63 214 -74 289q-16 -115 -70 -295l-276 -952h-186l-387 1462h192l227 -893q46 -175 70 -348q22 164 78 359l258 882h190l269 -889q52 -173 80 -352q16 138 71 350l226 891h192z"/>
<glyph glyph-name="X" horiz-adv-x="1200" unicode="X" d="M1192 0h-209l-387 635l-393 -635h-195l486 762l-455 700h205l358 -573l361 573h194l-452 -696z"/>
<glyph glyph-name="Y" horiz-adv-x="1159" unicode="Y" d="M580 743l381 719h198l-487 -895v-567h-185v559l-487 903h201z"/>
<glyph glyph-name="Z" horiz-adv-x="1171" unicode="Z" d="M1092 0h-1014v139l770 1159h-746v164h969v-139l-770 -1159h791v-164z"/>
<glyph glyph-name="bracketleft" horiz-adv-x="729" unicode="[" d="M618 -339h-397v2043h397v-143h-232v-1757h232v-143z"/>
<glyph glyph-name="backslash" horiz-adv-x="879" unicode="\" d="M254 1703l539 -2042h-168l-539 2042h168z"/>
<glyph glyph-name="bracketright" horiz-adv-x="729" unicode="]" d="M110 -196h231v1756h-231v143h398v-2042h-398v143z"/>
<glyph glyph-name="asciicircum" horiz-adv-x="1128" unicode="^" d="M60 549l459 924h102l447 -924h-161l-337 735l-349 -735h-161z"/>
<glyph glyph-name="underscore" horiz-adv-x="842" unicode="_" d="M846 -324h-850v140h850v-140z"/>
<glyph glyph-name="grave" horiz-adv-x="1188" unicode="`" d="M799 1241h-121q-75 60 -164.5 155.5t-126.5 151.5v21h215q32 -66 91 -157.5t106 -145.5v-25z"/>
<glyph glyph-name="a" horiz-adv-x="1149" unicode="a" d="M481 125q151 0 237.5 81.5t86.5 231.5v99l-162 -7q-189 -7 -275.5 -60t-86.5 -167q0 -86 52.5 -132t147.5 -46zM852 0l-35 156h-8q-82 -103 -163.5 -139.5t-205.5 -36.5q-162 0 -254 85t-92 240q0 334 527 350l186 7v65q0 125 -54 184.5t-173 59.5q-87 0 -164.5 -26 t-145.5 -58l-55 135q83 44 181 69t194 25q199 0 296 -88t97 -280v-748h-131z"/>
<glyph glyph-name="b" horiz-adv-x="1260" unicode="b" d="M664 967q-166 0 -238 -94t-72 -318v-8q0 -225 73.5 -321.5t240.5 -96.5q148 0 220.5 108.5t72.5 313.5q0 208 -73 312t-224 104zM694 1116q217 0 335 -149.5t118 -417.5q0 -272 -120 -420.5t-333 -148.5q-111 0 -198 40t-142 119h-14q-31 -120 -37 -139h-129v1556h180 v-378q0 -113 -10 -226h10q111 164 340 164z"/>
<glyph glyph-name="c" horiz-adv-x="983" unicode="c" d="M614 -20q-237 0 -369 145.5t-132 417.5q0 276 133.5 425.5t380.5 149.5q80 0 158.5 -16.5t129.5 -42.5l-55 -150q-139 52 -237 52q-166 0 -245 -104.5t-79 -311.5q0 -199 79 -304.5t234 -105.5q145 0 285 64v-160q-114 -59 -283 -59z"/>
<glyph glyph-name="d" horiz-adv-x="1260" unicode="d" d="M592 129q164 0 239.5 89.5t75.5 293.5v33q0 229 -76.5 326.5t-240.5 97.5q-139 0 -215 -110.5t-76 -315.5q0 -204 75.5 -309t217.5 -105zM563 -20q-214 0 -332 148t-118 419q0 269 118.5 420t333.5 151q221 0 340 -162h13q-3 20 -8 80.5t-5 81.5v438h180v-1556h-145 l-27 147h-8q-115 -167 -342 -167z"/>
<glyph glyph-name="e" horiz-adv-x="1155" unicode="e" d="M596 971q-129 0 -204 -83t-89 -231h559q-2 154 -71 234t-195 80zM641 -20q-247 0 -387.5 149.5t-140.5 411.5q0 264 131 420.5t354 156.5q207 0 330 -133.5t123 -361.5v-109h-752q5 -187 95 -284t255 -97q88 0 167 15.5t185 60.5v-158q-91 -39 -171 -55t-189 -16z"/>
<glyph glyph-name="f" horiz-adv-x="705" unicode="f" d="M680 958h-277v-958h-180v958h-192v84l192 62v63q0 200 87.5 300t269.5 100q105 0 213 -37l-48 -141q-93 30 -163 30q-91 0 -135 -60t-44 -190v-71h277v-140z"/>
<glyph glyph-name="g" horiz-adv-x="1260" unicode="g" d="M907 10l6 135h-8q-111 -165 -340 -165q-213 0 -332.5 148.5t-119.5 418.5q0 265 120.5 418t329.5 153q223 0 344 -166h11l24 146h143v-1116q0 -236 -119.5 -355t-371.5 -119q-240 0 -395 70v166q160 -86 405 -86q140 0 221.5 82t81.5 227v43zM592 127q166 0 241.5 89.5 t75.5 287.5v43q0 220 -76 320t-245 100q-138 0 -213.5 -109.5t-75.5 -312.5q0 -204 73.5 -311t219.5 -107z"/>
<glyph glyph-name="h" horiz-adv-x="1266" unicode="h" d="M922 0v702q0 134 -59.5 199.5t-186.5 65.5q-167 0 -244.5 -93t-77.5 -307v-567h-180v1556h180v-456q0 -90 -10 -154h12q49 80 139 125t203 45q200 0 301 -95.5t101 -305.5v-715h-178z"/>
<glyph glyph-name="i" horiz-adv-x="528" unicode="i" d="M160 1395q0 60 30.5 87t75.5 27q42 0 73.5 -27t31.5 -87q0 -59 -31.5 -87t-73.5 -28q-45 0 -75.5 28t-30.5 87zM354 0h-180v1098h180v-1098z"/>
<glyph glyph-name="j" horiz-adv-x="528" unicode="j" d="M160 1395q0 60 30.5 87t75.5 27q42 0 73.5 -27t31.5 -87q0 -59 -31.5 -87t-73.5 -28q-45 0 -75.5 28t-30.5 87zM45 -492q-94 0 -158 25v145q69 -20 136 -20q78 0 114.5 42.5t36.5 129.5v1268h180v-1262q0 -164 -78.5 -246t-230.5 -82z"/>
<glyph glyph-name="k" horiz-adv-x="1094" unicode="k" d="M352 565l61 78l70 84l351 371h210l-444 -469l475 -629h-217l-381 512l-125 -109v-403h-178v1556h178v-813l-8 -178h8z"/>
<glyph glyph-name="l" horiz-adv-x="528" unicode="l" d="M354 0h-180v1556h180v-1556z"/>
<glyph glyph-name="m" horiz-adv-x="1915" unicode="m" d="M1571 0v707q0 260 -223 260q-153 0 -225 -89t-72 -272v-606h-179v707q0 130 -54.5 195t-170.5 65q-152 0 -222.5 -93t-70.5 -305v-569h-180v1098h145l27 -150h10q47 80 132.5 125t191.5 45q258 0 336 -184h10q53 88 144.5 136t207.5 48q186 0 278.5 -96t92.5 -307v-715 h-178z"/>
<glyph glyph-name="n" horiz-adv-x="1266" unicode="n" d="M922 0v702q0 134 -59.5 199.5t-186.5 65.5q-169 0 -245.5 -93.5t-76.5 -304.5v-569h-180v1098h145l27 -150h10q51 81 143 125.5t203 44.5q202 0 300 -98t98 -305v-715h-178z"/>
<glyph glyph-name="o" horiz-adv-x="1239" unicode="o" d="M299 551q0 -207 81.5 -314.5t240.5 -107.5q157 0 239 107.5t82 314.5t-82.5 311.5t-241.5 104.5q-319 0 -319 -416zM1128 551q0 -269 -136 -420t-376 -151q-149 0 -264 69.5t-177 199.5t-62 302q0 268 134 417.5t376 149.5q232 0 368.5 -152.5t136.5 -414.5z"/>
<glyph glyph-name="p" horiz-adv-x="1260" unicode="p" d="M664 967q-163 0 -235.5 -92t-74.5 -289v-35q0 -223 74 -322.5t240 -99.5q138 0 215.5 112t77.5 312q0 201 -77.5 307.5t-219.5 106.5zM694 -20q-221 0 -340 159h-12l4 -41q8 -78 8 -139v-451h-180v1590h148l24 -150h8q64 90 148 130t194 40q214 0 332.5 -148.5 t118.5 -418.5q0 -269 -119 -420t-334 -151z"/>
<glyph glyph-name="q" horiz-adv-x="1260" unicode="q" d="M559 -20q-212 0 -329 150t-117 417q0 268 119.5 419.5t332.5 151.5q225 0 342 -170h8l27 150h143v-1590h-180v469q0 110 10 170h-12q-115 -167 -344 -167zM594 129q161 0 235 88t78 291v37q0 227 -76 325.5t-241 98.5q-141 0 -216 -111t-75 -315q0 -201 74.5 -307.5 t220.5 -106.5z"/>
<glyph glyph-name="r" horiz-adv-x="846" unicode="r" d="M686 1118q73 0 129 -12l-22 -166q-61 14 -119 14q-87 0 -161.5 -48t-116.5 -132.5t-42 -187.5v-586h-180v1098h148l20 -201h8q63 109 149 165t187 56z"/>
<glyph glyph-name="s" horiz-adv-x="981" unicode="s" d="M889 303q0 -154 -115 -238.5t-323 -84.5q-217 0 -345 69v164q181 -88 349 -88q136 0 198 44t62 118q0 65 -59.5 110t-211.5 103q-155 60 -218 102.5t-92.5 95.5t-29.5 129q0 135 110 213t302 78q187 0 350 -74l-61 -143q-167 70 -301 70q-112 0 -170 -35.5t-58 -97.5 q0 -60 50 -99.5t233 -109.5q137 -51 202.5 -95t96.5 -99t31 -132z"/>
<glyph glyph-name="t" horiz-adv-x="739" unicode="t" d="M541 127q35 0 82 7t71 16v-138q-25 -11 -77.5 -21.5t-106.5 -10.5q-322 0 -322 339v639h-155v86l157 72l72 234h107v-252h317v-140h-317v-634q0 -95 45.5 -146t126.5 -51z"/>
<glyph glyph-name="u" horiz-adv-x="1266" unicode="u" d="M344 1098v-707q0 -133 59.5 -197.5t184.5 -64.5q169 0 246 94t77 303v572h181v-1098h-148l-26 145h-9q-49 -79 -139 -122t-209 -43q-198 0 -298.5 95t-100.5 304v719h182z"/>
<glyph glyph-name="v" horiz-adv-x="1040" unicode="v" d="M416 0l-416 1098h193l233 -647q69 -195 88 -291h8q3 13 7.5 29.5t10.5 36t74 225.5l234 647h192l-417 -1098h-207z"/>
<glyph glyph-name="w" horiz-adv-x="1610" unicode="w" d="M1071 0l-188 618q-26 77 -76 291h-8q-42 -195 -74 -293l-197 -616h-204l-301 1098h186q104 -405 158.5 -616t64.5 -298h8l14 62q31 143 60 233l195 619h196l189 -619q10 -35 21.5 -74.5t21.5 -78t18 -75t12 -65.5h9q9 76 73 326l154 586h184l-305 -1098h-211z"/>
<glyph glyph-name="x" horiz-adv-x="1083" unicode="x" d="M434 561l-379 537h205l283 -414l280 414h203l-379 -537l400 -561h-205l-299 438l-303 -438h-203z"/>
<glyph glyph-name="y" horiz-adv-x="1044" unicode="y" d="M2 1098h193l237 -625q75 -204 92 -299h8q9 37 41 138.5t54 162.5l223 623h194l-473 -1250q-69 -182 -164 -261t-235 -79q-75 0 -149 17v143q50 -12 120 -12q86 0 146 47.5t98 146.5l57 146z"/>
<glyph glyph-name="z" horiz-adv-x="963" unicode="z" d="M883 0h-803v119l590 839h-555v140h753v-135l-581 -824h596v-139z"/>
<glyph glyph-name="braceleft" horiz-adv-x="800" unicode="{" d="M507 -37q0 -47 13 -77q12 -30 36 -47t58 -23t77 -8v-147q-76 1 -140 17q-65 16 -111 52q-46 34 -72 88t-27 131v472q-1 101 -65 143t-186 42v152q122 0 186 42t65 143v473q1 76 27 130t72 88t111 52q64 16 140 17v-146q-43 -1 -77 -7t-58 -24q-24 -17 -36 -47 q-13 -30 -13 -77v-471q0 -103 -55 -163t-161 -81v-11q106 -20 161 -80t55 -163v-470z"/>
<glyph glyph-name="bar" horiz-adv-x="1105" unicode="|" d="M479 1703h147v-2042h-147v2042z"/>
<glyph glyph-name="braceright" horiz-adv-x="770" unicode="}" d="M293 433q0 103 55 163t162 80v11q-107 21 -162 81t-55 163v471q-1 47 -13 77t-36 47q-24 18 -58 24t-76 7v146q76 -1 140 -17t110 -52q46 -34 74 -88q26 -54 26 -130v-473q0 -51 16 -86t48 -57t79 -32t108 -10v-152q-123 0 -187 -42t-64 -143v-472q0 -77 -26 -131 t-74 -88q-46 -34 -110 -52q-64 -16 -140 -17v147q42 2 76 8t58 23t36 47t13 77v470z"/>
<glyph glyph-name="asciitilde" horiz-adv-x="1128" unicode="~" d="M530 590q-36 16 -64 27t-50 17t-44 10q-20 2 -42 2q-28 0 -58 -10t-60 -26t-57 -38q-28 -22 -53 -47v162q100 108 248 108q29 -1 54 -3q24 -2 52 -8t62 -20q34 -12 80 -32q36 -16 64 -27t52 -17t43 -10q20 -2 42 -2q28 0 58 10q29 10 59 26t58 38t52 47v-162 q-99 -108 -248 -108q-29 1 -54 3q-24 2 -52 8t-62 20q-34 12 -80 32z"/>
<glyph glyph-name="exclamdown" horiz-adv-x="551" unicode="¡" d="M401 979q0 -67 -32.5 -102t-94.5 -35t-94.5 34.5t-32.5 102.5q0 66 34 102.5t93 36.5t93 -36t34 -103zM213 676h119l51 -1049h-221z"/>
<glyph glyph-name="cent" horiz-adv-x="1171" unicode="¢" d="M975 240q-113 -57 -254 -62v-198h-137v204q-204 31 -301 169.5t-97 387.5q0 508 398 570v172h139v-164q152 -6 270 -59l-53 -150q-143 53 -244 53q-167 0 -246 -104t-79 -316q0 -213 80 -310t237 -97q89 0 156.5 17.5t130.5 43.5v-157z"/>
<glyph glyph-name="sterling" horiz-adv-x="1171" unicode="£" d="M684 1481q190 0 363 -84l-64 -144q-167 78 -295 78q-117 0 -178 -60.5t-61 -195.5v-284h417v-136h-417v-213q0 -96 -32.5 -164.5t-107.5 -113.5h787v-164h-1030v152q202 47 202 288v215h-196v136h196v303q0 181 112.5 284t303.5 103z"/>
<glyph glyph-name="currency" horiz-adv-x="1171" unicode="¤" d="M322 723q0 -111 76.5 -187.5t187.5 -76.5t188.5 76t77.5 188q0 114 -77.5 191t-188.5 77q-110 0 -187 -77.5t-77 -190.5zM184 723q0 117 72 225l-135 139l100 97l135 -131q100 71 230 71q121 0 225 -71l137 131l99 -97l-132 -137q72 -111 72 -227q0 -130 -72 -229 l129 -136l-96 -96l-137 131q-103 -69 -225 -69q-132 0 -230 71l-135 -131l-98 96l133 136q-72 108 -72 227z"/>
<glyph glyph-name="yen" horiz-adv-x="1171" unicode="¥" d="M584 748l366 714h189l-412 -768h254v-131h-309v-168h309v-131h-309v-264h-176v264h-310v131h310v168h-310v131h250l-407 768h190z"/>
<glyph glyph-name="brokenbar" horiz-adv-x="1128" unicode="¦" d="M489 287h150v-781h-150v781zM489 1556h150v-780h-150v780z"/>
<glyph glyph-name="section" horiz-adv-x="1051" unicode="§" d="M291 829q0 -51 27 -88.5t87.5 -72.5t223.5 -97q131 76 131 187q0 81 -70 135.5t-252 112.5q-65 -18 -106 -67.5t-41 -109.5zM137 809q0 87 43 154.5t119 103.5q-74 40 -115 96t-41 140q0 123 104 193.5t300 70.5q92 0 167.5 -14t182.5 -56l-55 -137q-97 39 -165 53 t-142 14q-115 0 -169.5 -29.5t-54.5 -90.5q0 -56 58 -98t213 -97q182 -67 257.5 -143.5t75.5 -184.5q0 -180 -153 -272q151 -80 151 -225q0 -142 -118 -219.5t-328 -77.5t-346 67v154q87 -39 182 -61.5t172 -22.5q128 0 197 37t69 108q0 61 -53 100.5t-211 100.5 q-197 73 -268.5 148t-71.5 188z"/>
<glyph glyph-name="dieresis" horiz-adv-x="1188" unicode="¨" d="M690 1395q0 53 28 76.5t66 23.5q39 0 68 -23.5t29 -76.5t-29 -78t-68 -25q-38 0 -66 25t-28 78zM305 1395q0 53 28 76.5t68 23.5q39 0 68 -23.5t29 -76.5t-29 -78t-68 -25q-40 0 -68 25t-28 78z"/>
<glyph glyph-name="copyright" horiz-adv-x="1704" unicode="©" d="M209 731q0 -172 86 -321t235.5 -235.5t321.5 -86.5t321 86t235.5 235.5t86.5 321.5t-86 321t-235.5 235.5t-321.5 86.5t-321 -86t-235.5 -235.5t-86.5 -321.5zM100 731q0 200 100 375t275 276t377 101q200 0 375 -100t276 -275t101 -377q0 -197 -97 -370t-272 -277 t-383 -104q-207 0 -382 103.5t-272.5 276.5t-97.5 371zM893 1055q-119 0 -186.5 -85.5t-67.5 -238.5q0 -157 58.5 -241t193.5 -84q95 0 215 47v-131q-60 -27 -109 -38.5t-114 -11.5q-193 0 -298.5 120t-105.5 339q0 209 111 333t301 124q130 0 252 -62l-60 -125 q-106 54 -190 54z"/>
<glyph glyph-name="ordfeminine" horiz-adv-x="731" unicode="ª" d="M197 987q0 -98 110 -98q197 0 197 178v47l-98 -4q-111 -4 -160 -32.5t-49 -90.5zM535 797l-25 86q-94 -99 -234 -99q-97 0 -153.5 50t-56.5 153t79 156t244 59l115 4v45q0 61 -39 91t-107 30q-100 0 -206 -53q-26 62 -46 100q122 60 256 60t201.5 -55t67.5 -177v-450h-96 z"/>
<glyph glyph-name="guillemotleft" horiz-adv-x="1042" unicode="«" d="M487 553l349 412l127 -74l-287 -350l287 -351l-127 -75l-349 411v27zM82 553l344 412l129 -74l-287 -350l287 -351l-129 -75l-344 411v27z"/>
<glyph glyph-name="logicalnot" horiz-adv-x="1171" unicode="¬" d="M1065 795v-533h-145v387h-818v146h963z"/>
<glyph glyph-name="uni00AD" horiz-adv-x="659" unicode="­" d="M82 469v160h496v-160h-496z"/>
<glyph glyph-name="registered" horiz-adv-x="1704" unicode="®" d="M209 731q0 -172 86 -321t235.5 -235.5t321.5 -86.5t321 86t235.5 235.5t86.5 321.5t-86 321t-235.5 235.5t-321.5 86.5t-321 -86t-235.5 -235.5t-86.5 -321.5zM100 731q0 200 100 375t275 276t377 101q200 0 375 -100t276 -275t101 -377q0 -197 -97 -370t-272 -277 t-383 -104q-207 0 -382 103.5t-272.5 276.5t-97.5 371zM1157 913q0 -83 -43 -143.5t-117 -89.5l238 -397h-176l-205 354h-127v-354h-156v895h263q168 0 245.5 -65.5t77.5 -199.5zM727 764h102q81 0 125.5 40t44.5 105q0 73 -41 105.5t-131 32.5h-100v-283z"/>
<glyph glyph-name="macron" horiz-adv-x="696" unicode="¯" d="M100 524v168h496v-168h-496z"/>
<glyph glyph-name="degree" horiz-adv-x="877" unicode="°" d="M246 1167q0 -79 57.5 -135.5t136.5 -56.5q81 0 136 57t55 135q0 80 -55 136.5t-136 56.5q-80 0 -137 -56t-57 -137zM123 1167q0 135 92 225.5t223 90.5q133 0 224.5 -92t91.5 -224q0 -131 -92 -222t-224 -91q-130 0 -222.5 89.5t-92.5 223.5z"/>
<glyph glyph-name="plusminus" horiz-adv-x="1171" unicode="±" d="M102 0v145h963v-145h-963zM657 801h408v-146h-408v-422h-147v422h-408v146h408v424h147v-424z"/>
<glyph glyph-name="uni00B2" horiz-adv-x="717" unicode="²" d="M627 586h-578v110l236 230q127 123 162.5 179.5t35.5 125.5q0 65 -37.5 98t-99.5 33t-112 -24t-103 -64l-72 94q133 113 289 113q132 0 206.5 -65.5t74.5 -176.5q0 -46 -12.5 -85.5t-38.5 -80t-67.5 -86.5t-283.5 -274h400v-127z"/>
<glyph glyph-name="uni00B3" horiz-adv-x="717" unicode="³" d="M631 1255q0 -151 -152 -208q178 -44 178 -209q0 -127 -92 -198t-262 -71q-152 0 -268 58v129q142 -70 270 -70q205 0 205 156q0 141 -225 141h-117v113h117q103 0 150.5 39t47.5 104q0 59 -38.5 92t-104.5 33q-104 0 -227 -78l-74 94q74 55 146 78t153 23 q136 0 214.5 -60.5t78.5 -165.5z"/>
<glyph glyph-name="acute" horiz-adv-x="1188" unicode="´" d="M387 1266q38 48 96.5 136.5t98.5 166.5h217v-21q-44 -64 -137 -161t-156 -146h-119v25z"/>
<glyph glyph-name="uni00B5" horiz-adv-x="1276" unicode="µ" d="M354 389q0 -260 246 -260q169 0 245.5 93.5t76.5 303.5v572h180v-1098h-146l-28 147h-10q-109 -167 -330 -167q-146 0 -236 92h-8q10 -74 10 -244v-320h-180v1590h180v-709z"/>
<glyph glyph-name="paragraph" horiz-adv-x="1341" unicode="¶" d="M1124 -260h-118v1702h-209v-1702h-119v819q-62 -18 -146 -18q-216 0 -317.5 125t-101.5 376q0 260 109 387t341 127h561v-1816z"/>
<glyph glyph-name="periodcentered" horiz-adv-x="549" unicode="·" d="M147 723q0 65 32.5 102t92.5 37q62 0 95.5 -37.5t33.5 -101.5t-34 -101.5t-95 -37.5q-59 0 -92 37t-33 102z"/>
<glyph glyph-name="cedilla" horiz-adv-x="461" unicode="¸" d="M434 -285q0 -99 -75.5 -153t-227.5 -54q-65 0 -102 11v112q36 -10 108 -10q75 0 113.5 19.5t38.5 70.5q0 89 -187 113l88 176h119l-53 -109q178 -38 178 -176z"/>
<glyph glyph-name="uni00B9" horiz-adv-x="717" unicode="¹" d="M342 1462h150v-876h-146v565q0 67 8 182q-31 -28 -54 -47t-153 -112l-71 100z"/>
<glyph glyph-name="ordmasculine" horiz-adv-x="770" unicode="º" d="M195 1133q0 -121 44 -180.5t146 -59.5q100 0 145 59.5t45 180.5t-45 179t-145 58t-145 -58t-45 -179zM707 1133q0 -163 -86.5 -256t-237.5 -93q-145 0 -231 92.5t-86 256.5q0 165 84 255.5t237 90.5q149 0 234.5 -91t85.5 -255z"/>
<glyph glyph-name="guillemotright" horiz-adv-x="1042" unicode="»" d="M553 526l-346 -411l-127 75l287 351l-287 350l127 74l346 -412v-27zM961 526l-349 -411l-127 75l287 351l-287 350l127 74l349 -412v-27z"/>
<glyph glyph-name="onequarter" horiz-adv-x="1618" unicode="¼" d="M1304 1462l-893 -1462h-153l893 1462h153zM337 1462h150v-876h-146v565q0 67 8 182q-31 -28 -54 -47t-153 -112l-71 100zM1229 320v191q0 107 6 207q-8 -18 -98 -158l-164 -240h256zM1507 197h-125v-196h-153v196h-400v107l404 579h149v-563h125v-123z"/>
<glyph glyph-name="onehalf" horiz-adv-x="1618" unicode="½" d="M1243 1462l-893 -1462h-153l893 1462h153zM312 1462h150v-876h-146v565q0 67 8 182q-31 -28 -54 -47t-153 -112l-71 100zM1489 1h-578v110l236 230q127 123 162.5 179.5t35.5 125.5q0 65 -37.5 98t-99.5 33t-112 -24t-103 -64l-72 94q133 113 289 113q132 0 206.5 -65.5 t74.5 -176.5q0 -46 -12.5 -85.5t-38.5 -80t-67.5 -86.5t-283.5 -274h400v-127z"/>
<glyph glyph-name="threequarters" horiz-adv-x="1618" unicode="¾" d="M1394 1462l-893 -1462h-153l893 1462h153zM1303 320v191q0 107 6 207q-8 -18 -98 -158l-164 -240h256zM1581 197h-125v-196h-153v196h-400v107l404 579h149v-563h125v-123zM628 1255q0 -151 -152 -208q178 -44 178 -209q0 -127 -92 -198t-262 -71q-152 0 -268 58v129 q142 -70 270 -70q205 0 205 156q0 141 -225 141h-117v113h117q103 0 150.5 39t47.5 104q0 59 -38.5 92t-104.5 33q-104 0 -227 -78l-74 94q74 55 146 78t153 23q136 0 214.5 -60.5t78.5 -165.5z"/>
<glyph glyph-name="questiondown" horiz-adv-x="889" unicode="¿" d="M649 979q0 -137 -127 -137q-62 0 -93.5 35.5t-31.5 101.5q0 73 36.5 106t88.5 33q54 0 90.5 -33t36.5 -106zM602 676v-53q0 -117 -37 -192t-137 -159q-133 -111 -168 -166t-35 -139q0 -96 63.5 -150.5t182.5 -54.5q159 0 330 88l63 -145q-198 -98 -399 -98 q-194 0 -304 93.5t-110 262.5q0 73 20 129.5t61 107.5t161 154q103 90 133.5 145.5t30.5 143.5v33h145z"/>
<glyph glyph-name="Agrave" horiz-adv-x="1309" unicode="À" d="M885 616l-164 443l-70 219q-30 -120 -63 -219l-166 -443h463zM1116 0l-176 453h-580l-174 -453h-186l571 1468h166l570 -1468h-191zM745 1579h-121q-75 60 -164.5 155.5t-126.5 151.5v21h215q32 -66 91 -157.5t106 -145.5v-25z"/>
<glyph glyph-name="Aacute" horiz-adv-x="1309" unicode="Á" d="M885 616l-164 443l-70 219q-30 -120 -63 -219l-166 -443h463zM1116 0l-176 453h-580l-174 -453h-186l571 1468h166l570 -1468h-191zM526 1604q38 48 96.5 136.5t98.5 166.5h217v-21q-44 -64 -137 -161t-156 -146h-119v25z"/>
<glyph glyph-name="Acircumflex" horiz-adv-x="1309" unicode="Â" d="M885 616l-164 443l-70 219q-30 -120 -63 -219l-166 -443h463zM1116 0l-176 453h-580l-174 -453h-186l571 1468h166l570 -1468h-191zM299 1602q125 134 176.5 198t75.5 107h184q52 -101 256 -305v-23h-127q-90 53 -223 184q-131 -128 -219 -184h-123v23z"/>
<glyph glyph-name="Atilde" horiz-adv-x="1309" unicode="Ã" d="M885 616l-164 443l-70 219q-30 -120 -63 -219l-166 -443h463zM1116 0l-176 453h-580l-174 -453h-186l571 1468h166l570 -1468h-191zM798 1581q-43 0 -84 18.5t-80.5 40t-76 40t-70.5 18.5q-49 0 -74 -29.5t-39 -89.5h-104q12 122 70 192t155 70q45 0 87.5 -18.5t81.5 -40 t75 -40t68 -18.5q48 0 72.5 29.5t39.5 89.5h103q-12 -119 -70 -190.5t-154 -71.5z"/>
<glyph glyph-name="Adieresis" horiz-adv-x="1309" unicode="Ä" d="M885 616l-164 443l-70 219q-30 -120 -63 -219l-166 -443h463zM1116 0l-176 453h-580l-174 -453h-186l571 1468h166l570 -1468h-191zM747 1733q0 53 28 76.5t66 23.5q39 0 68 -23.5t29 -76.5t-29 -78t-68 -25q-38 0 -66 25t-28 78zM362 1733q0 53 28 76.5t68 23.5 q39 0 68 -23.5t29 -76.5t-29 -78t-68 -25q-40 0 -68 25t-28 78z"/>
<glyph glyph-name="Aring" horiz-adv-x="1309" unicode="Å" d="M764 1583q0 54 -32.5 84.5t-82.5 30.5q-49 0 -81.5 -30.5t-32.5 -84.5t29 -84.5t85 -30.5q51 0 83 30.5t32 84.5zM885 616l-164 443l-70 219q-30 -120 -63 -219l-166 -443h463zM877 1585q0 -69 -30 -118.5t-81 -73.5l541 -1393h-191l-176 453h-580l-174 -453h-186 l539 1386q-53 25 -83 75t-30 122q0 98 60 156.5t163 58.5q102 0 165 -59t63 -154z"/>
<glyph glyph-name="AE" horiz-adv-x="1804" unicode="Æ" d="M479 616h441v682h-119zM1681 0h-761v453h-512l-220 -453h-190l694 1462h989v-162h-577v-456h538v-160h-538v-522h577v-162z"/>
<glyph glyph-name="Ccedilla" horiz-adv-x="1294" unicode="Ç" d="M825 1321q-236 0 -371 -158t-135 -432q0 -283 131 -436.5t373 -153.5q156 0 351 58v-160q-93 -34 -179 -46.5t-198 -12.5q-323 0 -497.5 196.5t-174.5 556.5q0 226 83.5 396t243 262t375.5 92q232 0 404 -86l-74 -156q-175 80 -332 80zM950 -285q0 -99 -75.5 -153 t-227.5 -54q-65 0 -102 11v112q36 -10 108 -10q75 0 113.5 19.5t38.5 70.5q0 89 -187 113l88 176h119l-53 -109q178 -38 178 -176z"/>
<glyph glyph-name="Egrave" horiz-adv-x="1139" unicode="È" d="M1016 0h-817v1462h817v-162h-633v-456h596v-160h-596v-522h633v-162zM726 1579h-121q-75 60 -164.5 155.5t-126.5 151.5v21h215q32 -66 91 -157.5t106 -145.5v-25z"/>
<glyph glyph-name="Eacute" horiz-adv-x="1139" unicode="É" d="M1016 0h-817v1462h817v-162h-633v-456h596v-160h-596v-522h633v-162zM453 1604q38 48 96.5 136.5t98.5 166.5h217v-21q-44 -64 -137 -161t-156 -146h-119v25z"/>
<glyph glyph-name="Ecircumflex" horiz-adv-x="1139" unicode="Ê" d="M1016 0h-817v1462h817v-162h-633v-456h596v-160h-596v-522h633v-162zM255 1602q125 134 176.5 198t75.5 107h184q52 -101 256 -305v-23h-127q-90 53 -223 184q-131 -128 -219 -184h-123v23z"/>
<glyph glyph-name="Edieresis" horiz-adv-x="1139" unicode="Ë" d="M1016 0h-817v1462h817v-162h-633v-456h596v-160h-596v-522h633v-162zM704 1733q0 53 28 76.5t66 23.5q39 0 68 -23.5t29 -76.5t-29 -78t-68 -25q-38 0 -66 25t-28 78zM319 1733q0 53 28 76.5t68 23.5q39 0 68 -23.5t29 -76.5t-29 -78t-68 -25q-40 0 -68 25t-28 78z"/>
<glyph glyph-name="Igrave" horiz-adv-x="694" unicode="Ì" d="M610 0h-528v106l172 39v1170l-172 41v106h528v-106l-172 -41v-1170l172 -39v-106zM472 1579h-121q-75 60 -164.5 155.5t-126.5 151.5v21h215q32 -66 91 -157.5t106 -145.5v-25z"/>
<glyph glyph-name="Iacute" horiz-adv-x="694" unicode="Í" d="M610 0h-528v106l172 39v1170l-172 41v106h528v-106l-172 -41v-1170l172 -39v-106zM236 1604q38 48 96.5 136.5t98.5 166.5h217v-21q-44 -64 -137 -161t-156 -146h-119v25z"/>
<glyph glyph-name="Icircumflex" horiz-adv-x="694" unicode="Î" d="M610 0h-528v106l172 39v1170l-172 41v106h528v-106l-172 -41v-1170l172 -39v-106zM-3 1602q125 134 176.5 198t75.5 107h184q52 -101 256 -305v-23h-127q-90 53 -223 184q-131 -128 -219 -184h-123v23z"/>
<glyph glyph-name="Idieresis" horiz-adv-x="694" unicode="Ï" d="M610 0h-528v106l172 39v1170l-172 41v106h528v-106l-172 -41v-1170l172 -39v-106zM445 1733q0 53 28 76.5t66 23.5q39 0 68 -23.5t29 -76.5t-29 -78t-68 -25q-38 0 -66 25t-28 78zM60 1733q0 53 28 76.5t68 23.5q39 0 68 -23.5t29 -76.5t-29 -78t-68 -25q-40 0 -68 25 t-28 78z"/>
<glyph glyph-name="Eth" horiz-adv-x="1495" unicode="Ð" d="M1176 739q0 280 -139 423t-414 143h-226v-502h365v-160h-365v-485h185q594 0 594 581zM1370 745q0 -359 -196.5 -552t-569.5 -193h-391v643h-152v160h152v659h436q341 0 531 -188.5t190 -528.5z"/>
<glyph glyph-name="Ntilde" horiz-adv-x="1556" unicode="Ñ" d="M1358 0h-215l-783 1214h-8l5 -81q12 -182 12 -316v-817h-170v1462h213l45 -71l480 -742l255 -397h8q-2 24 -8 171.5t-6 213.5v825h172v-1462zM940 1581q-43 0 -84 18.5t-80.5 40t-76 40t-70.5 18.5q-49 0 -74 -29.5t-39 -89.5h-104q12 122 70 192t155 70q45 0 87.5 -18.5 t81.5 -40t75 -40t68 -18.5q48 0 72.5 29.5t39.5 89.5h103q-12 -119 -70 -190.5t-154 -71.5z"/>
<glyph glyph-name="Ograve" horiz-adv-x="1599" unicode="Ò" d="M319 733q0 -290 123 -442t359 -152q235 0 357 150t122 444q0 293 -121 441.5t-356 148.5q-238 0 -361 -150.5t-123 -439.5zM1475 733q0 -351 -177.5 -552t-496.5 -201q-323 0 -499.5 197.5t-176.5 557.5q0 357 175.5 553.5t502.5 196.5q318 0 495 -199.5t177 -552.5z M918 1579h-121q-75 60 -164.5 155.5t-126.5 151.5v21h215q32 -66 91 -157.5t106 -145.5v-25z"/>
<glyph glyph-name="Oacute" horiz-adv-x="1599" unicode="Ó" d="M319 733q0 -290 123 -442t359 -152q235 0 357 150t122 444q0 293 -121 441.5t-356 148.5q-238 0 -361 -150.5t-123 -439.5zM1475 733q0 -351 -177.5 -552t-496.5 -201q-323 0 -499.5 197.5t-176.5 557.5q0 357 175.5 553.5t502.5 196.5q318 0 495 -199.5t177 -552.5z M657 1604q38 48 96.5 136.5t98.5 166.5h217v-21q-44 -64 -137 -161t-156 -146h-119v25z"/>
<glyph glyph-name="Ocircumflex" horiz-adv-x="1599" unicode="Ô" d="M319 733q0 -290 123 -442t359 -152q235 0 357 150t122 444q0 293 -121 441.5t-356 148.5q-238 0 -361 -150.5t-123 -439.5zM1475 733q0 -351 -177.5 -552t-496.5 -201q-323 0 -499.5 197.5t-176.5 557.5q0 357 175.5 553.5t502.5 196.5q318 0 495 -199.5t177 -552.5z M440 1602q125 134 176.5 198t75.5 107h184q52 -101 256 -305v-23h-127q-90 53 -223 184q-131 -128 -219 -184h-123v23z"/>
<glyph glyph-name="Otilde" horiz-adv-x="1599" unicode="Õ" d="M319 733q0 -290 123 -442t359 -152q235 0 357 150t122 444q0 293 -121 441.5t-356 148.5q-238 0 -361 -150.5t-123 -439.5zM1475 733q0 -351 -177.5 -552t-496.5 -201q-323 0 -499.5 197.5t-176.5 557.5q0 357 175.5 553.5t502.5 196.5q318 0 495 -199.5t177 -552.5z M944 1581q-43 0 -84 18.5t-80.5 40t-76 40t-70.5 18.5q-49 0 -74 -29.5t-39 -89.5h-104q12 122 70 192t155 70q45 0 87.5 -18.5t81.5 -40t75 -40t68 -18.5q48 0 72.5 29.5t39.5 89.5h103q-12 -119 -70 -190.5t-154 -71.5z"/>
<glyph glyph-name="Odieresis" horiz-adv-x="1599" unicode="Ö" d="M319 733q0 -290 123 -442t359 -152q235 0 357 150t122 444q0 293 -121 441.5t-356 148.5q-238 0 -361 -150.5t-123 -439.5zM1475 733q0 -351 -177.5 -552t-496.5 -201q-323 0 -499.5 197.5t-176.5 557.5q0 357 175.5 553.5t502.5 196.5q318 0 495 -199.5t177 -552.5z M901 1733q0 53 28 76.5t66 23.5q39 0 68 -23.5t29 -76.5t-29 -78t-68 -25q-38 0 -66 25t-28 78zM516 1733q0 53 28 76.5t68 23.5q39 0 68 -23.5t29 -76.5t-29 -78t-68 -25q-40 0 -68 25t-28 78z"/>
<glyph glyph-name="multiply" horiz-adv-x="1128" unicode="×" d="M459 658l-318 319l105 105l317 -318l322 318l104 -103l-321 -321l319 -320l-102 -102l-322 317l-317 -315l-103 103z"/>
<glyph glyph-name="Oslash" horiz-adv-x="1599" unicode="Ø" d="M319 733q0 -259 97 -405l653 923q-109 72 -266 72q-238 0 -361 -150.5t-123 -439.5zM1280 733q0 264 -104 414l-656 -930q114 -78 281 -78q235 0 357 150t122 444zM1475 733q0 -351 -177.5 -552t-496.5 -201q-232 0 -379 96l-98 -139l-125 81l106 152q-180 198 -180 565 q0 357 175.5 553.5t502.5 196.5q204 0 364 -92l95 135l124 -84l-104 -146q193 -203 193 -565z"/>
<glyph glyph-name="Ugrave" horiz-adv-x="1497" unicode="Ù" d="M1311 1462v-946q0 -250 -151 -393t-419 -143q-265 0 -411 144.5t-146 395.5v942h185v-948q0 -179 95.5 -277t287.5 -98q181 0 278.5 97t97.5 280v946h183zM865 1579h-121q-75 60 -164.5 155.5t-126.5 151.5v21h215q32 -66 91 -157.5t106 -145.5v-25z"/>
<glyph glyph-name="Uacute" horiz-adv-x="1497" unicode="Ú" d="M1311 1462v-946q0 -250 -151 -393t-419 -143q-265 0 -411 144.5t-146 395.5v942h185v-948q0 -179 95.5 -277t287.5 -98q181 0 278.5 97t97.5 280v946h183zM600 1604q38 48 96.5 136.5t98.5 166.5h217v-21q-44 -64 -137 -161t-156 -146h-119v25z"/>
<glyph glyph-name="Ucircumflex" horiz-adv-x="1497" unicode="Û" d="M1311 1462v-946q0 -250 -151 -393t-419 -143q-265 0 -411 144.5t-146 395.5v942h185v-948q0 -179 95.5 -277t287.5 -98q181 0 278.5 97t97.5 280v946h183zM387 1602q125 134 176.5 198t75.5 107h184q52 -101 256 -305v-23h-127q-90 53 -223 184q-131 -128 -219 -184h-123 v23z"/>
<glyph glyph-name="Udieresis" horiz-adv-x="1497" unicode="Ü" d="M1311 1462v-946q0 -250 -151 -393t-419 -143q-265 0 -411 144.5t-146 395.5v942h185v-948q0 -179 95.5 -277t287.5 -98q181 0 278.5 97t97.5 280v946h183zM842 1733q0 53 28 76.5t66 23.5q39 0 68 -23.5t29 -76.5t-29 -78t-68 -25q-38 0 -66 25t-28 78zM457 1733 q0 53 28 76.5t68 23.5q39 0 68 -23.5t29 -76.5t-29 -78t-68 -25q-40 0 -68 25t-28 78z"/>
<glyph glyph-name="Yacute" horiz-adv-x="1159" unicode="Ý" d="M580 743l381 719h198l-487 -895v-567h-185v559l-487 903h201zM442 1604q38 48 96.5 136.5t98.5 166.5h217v-21q-44 -64 -137 -161t-156 -146h-119v25z"/>
<glyph glyph-name="Thorn" horiz-adv-x="1239" unicode="Þ" d="M383 473h147q221 0 317.5 71t96.5 228q0 144 -91 211.5t-288 67.5h-182v-578zM1135 782q0 -226 -150.5 -345.5t-435.5 -119.5h-166v-317h-184v1462h184v-254h197q281 0 418 -105.5t137 -320.5z"/>
<glyph glyph-name="germandbls" horiz-adv-x="1292" unicode="ß" d="M1069 1264q0 -139 -143 -251q-79 -62 -111.5 -98.5t-32.5 -70.5q0 -40 32 -73t149 -109q137 -92 187 -170.5t50 -178.5q0 -161 -98.5 -247t-282.5 -86q-187 0 -297 69v162q64 -40 143.5 -63t147.5 -23q211 0 211 176q0 71 -40.5 123t-152.5 123q-118 75 -170.5 137.5 t-52.5 149.5q0 63 34 115.5t106 105.5q74 55 106.5 101t32.5 97q0 78 -66.5 121t-193.5 43q-273 0 -273 -221v-1196h-180v1196q0 181 114 276t339 95q210 0 326 -80t116 -223z"/>
<glyph glyph-name="agrave" horiz-adv-x="1149" unicode="à" d="M481 125q151 0 237.5 81.5t86.5 231.5v99l-162 -7q-189 -7 -275.5 -60t-86.5 -167q0 -86 52.5 -132t147.5 -46zM852 0l-35 156h-8q-82 -103 -163.5 -139.5t-205.5 -36.5q-162 0 -254 85t-92 240q0 334 527 350l186 7v65q0 125 -54 184.5t-173 59.5q-87 0 -164.5 -26 t-145.5 -58l-55 135q83 44 181 69t194 25q199 0 296 -88t97 -280v-748h-131zM687 1241h-121q-75 60 -164.5 155.5t-126.5 151.5v21h215q32 -66 91 -157.5t106 -145.5v-25z"/>
<glyph glyph-name="aacute" horiz-adv-x="1149" unicode="á" d="M481 125q151 0 237.5 81.5t86.5 231.5v99l-162 -7q-189 -7 -275.5 -60t-86.5 -167q0 -86 52.5 -132t147.5 -46zM852 0l-35 156h-8q-82 -103 -163.5 -139.5t-205.5 -36.5q-162 0 -254 85t-92 240q0 334 527 350l186 7v65q0 125 -54 184.5t-173 59.5q-87 0 -164.5 -26 t-145.5 -58l-55 135q83 44 181 69t194 25q199 0 296 -88t97 -280v-748h-131zM436 1266q38 48 96.5 136.5t98.5 166.5h217v-21q-44 -64 -137 -161t-156 -146h-119v25z"/>
<glyph glyph-name="acircumflex" horiz-adv-x="1149" unicode="â" d="M481 125q151 0 237.5 81.5t86.5 231.5v99l-162 -7q-189 -7 -275.5 -60t-86.5 -167q0 -86 52.5 -132t147.5 -46zM852 0l-35 156h-8q-82 -103 -163.5 -139.5t-205.5 -36.5q-162 0 -254 85t-92 240q0 334 527 350l186 7v65q0 125 -54 184.5t-173 59.5q-87 0 -164.5 -26 t-145.5 -58l-55 135q83 44 181 69t194 25q199 0 296 -88t97 -280v-748h-131zM224 1264q125 134 176.5 198t75.5 107h184q52 -101 256 -305v-23h-127q-90 53 -223 184q-131 -128 -219 -184h-123v23z"/>
<glyph glyph-name="atilde" horiz-adv-x="1149" unicode="ã" d="M481 125q151 0 237.5 81.5t86.5 231.5v99l-162 -7q-189 -7 -275.5 -60t-86.5 -167q0 -86 52.5 -132t147.5 -46zM852 0l-35 156h-8q-82 -103 -163.5 -139.5t-205.5 -36.5q-162 0 -254 85t-92 240q0 334 527 350l186 7v65q0 125 -54 184.5t-173 59.5q-87 0 -164.5 -26 t-145.5 -58l-55 135q83 44 181 69t194 25q199 0 296 -88t97 -280v-748h-131zM728 1243q-43 0 -84 18.5t-80.5 40t-76 40t-70.5 18.5q-49 0 -74 -29.5t-39 -89.5h-104q12 122 70 192t155 70q45 0 87.5 -18.5t81.5 -40t75 -40t68 -18.5q48 0 72.5 29.5t39.5 89.5h103 q-12 -119 -70 -190.5t-154 -71.5z"/>
<glyph glyph-name="adieresis" horiz-adv-x="1149" unicode="ä" d="M481 125q151 0 237.5 81.5t86.5 231.5v99l-162 -7q-189 -7 -275.5 -60t-86.5 -167q0 -86 52.5 -132t147.5 -46zM852 0l-35 156h-8q-82 -103 -163.5 -139.5t-205.5 -36.5q-162 0 -254 85t-92 240q0 334 527 350l186 7v65q0 125 -54 184.5t-173 59.5q-87 0 -164.5 -26 t-145.5 -58l-55 135q83 44 181 69t194 25q199 0 296 -88t97 -280v-748h-131zM664 1395q0 53 28 76.5t66 23.5q39 0 68 -23.5t29 -76.5t-29 -78t-68 -25q-38 0 -66 25t-28 78zM279 1395q0 53 28 76.5t68 23.5q39 0 68 -23.5t29 -76.5t-29 -78t-68 -25q-40 0 -68 25t-28 78z "/>
<glyph glyph-name="aring" horiz-adv-x="1149" unicode="å" d="M481 125q151 0 237.5 81.5t86.5 231.5v99l-162 -7q-189 -7 -275.5 -60t-86.5 -167q0 -86 52.5 -132t147.5 -46zM852 0l-35 156h-8q-82 -103 -163.5 -139.5t-205.5 -36.5q-162 0 -254 85t-92 240q0 334 527 350l186 7v65q0 125 -54 184.5t-173 59.5q-87 0 -164.5 -26 t-145.5 -58l-55 135q83 44 181 69t194 25q199 0 296 -88t97 -280v-748h-131zM699 1458q0 54 -32.5 84.5t-81.5 30.5q-50 0 -82.5 -30.5t-32.5 -84.5t29.5 -84.5t85.5 -30.5q51 0 82.5 30.5t31.5 84.5zM812 1460q0 -101 -62.5 -160t-164.5 -59q-103 0 -163 58.5t-60 158.5 q0 98 60 156.5t163 58.5q101 0 164 -59t63 -154z"/>
<glyph glyph-name="ae" horiz-adv-x="1769" unicode="æ" d="M1233 971q-119 0 -187 -80.5t-79 -233.5h508q0 152 -62.5 233t-179.5 81zM281 303q0 -92 52 -135t138 -43q140 0 221.5 81.5t81.5 231.5v99l-153 -7q-177 -7 -258.5 -60t-81.5 -167zM94 305q0 334 500 350l184 7v69q0 122 -56.5 181t-172.5 59q-139 0 -307 -84l-56 135 q71 40 172.5 67t204.5 27q128 0 210.5 -41.5t125.5 -134.5q54 85 139 131.5t197 46.5q197 0 313.5 -135t116.5 -356v-111h-702q8 -383 317 -383q88 0 165 16.5t171 59.5v-158q-88 -39 -164 -55t-178 -16q-291 0 -416 231q-82 -124 -181 -177.5t-235 -53.5q-164 0 -256 85.5 t-92 239.5z"/>
<glyph glyph-name="ccedilla" horiz-adv-x="983" unicode="ç" d="M614 -20q-237 0 -369 145.5t-132 417.5q0 276 133.5 425.5t380.5 149.5q80 0 158.5 -16.5t129.5 -42.5l-55 -150q-139 52 -237 52q-166 0 -245 -104.5t-79 -311.5q0 -199 79 -304.5t234 -105.5q145 0 285 64v-160q-114 -59 -283 -59zM766 -285q0 -99 -75.5 -153 t-227.5 -54q-65 0 -102 11v112q36 -10 108 -10q75 0 113.5 19.5t38.5 70.5q0 89 -187 113l88 176h119l-53 -109q178 -38 178 -176z"/>
<glyph glyph-name="egrave" horiz-adv-x="1155" unicode="è" d="M596 971q-129 0 -204 -83t-89 -231h559q-2 154 -71 234t-195 80zM641 -20q-247 0 -387.5 149.5t-140.5 411.5q0 264 131 420.5t354 156.5q207 0 330 -133.5t123 -361.5v-109h-752q5 -187 95 -284t255 -97q88 0 167 15.5t185 60.5v-158q-91 -39 -171 -55t-189 -16z M724 1241h-121q-75 60 -164.5 155.5t-126.5 151.5v21h215q32 -66 91 -157.5t106 -145.5v-25z"/>
<glyph glyph-name="eacute" horiz-adv-x="1155" unicode="é" d="M596 971q-129 0 -204 -83t-89 -231h559q-2 154 -71 234t-195 80zM641 -20q-247 0 -387.5 149.5t-140.5 411.5q0 264 131 420.5t354 156.5q207 0 330 -133.5t123 -361.5v-109h-752q5 -187 95 -284t255 -97q88 0 167 15.5t185 60.5v-158q-91 -39 -171 -55t-189 -16z M467 1266q38 48 96.5 136.5t98.5 166.5h217v-21q-44 -64 -137 -161t-156 -146h-119v25z"/>
<glyph glyph-name="ecircumflex" horiz-adv-x="1155" unicode="ê" d="M596 971q-129 0 -204 -83t-89 -231h559q-2 154 -71 234t-195 80zM641 -20q-247 0 -387.5 149.5t-140.5 411.5q0 264 131 420.5t354 156.5q207 0 330 -133.5t123 -361.5v-109h-752q5 -187 95 -284t255 -97q88 0 167 15.5t185 60.5v-158q-91 -39 -171 -55t-189 -16z M253 1264q125 134 176.5 198t75.5 107h184q52 -101 256 -305v-23h-127q-90 53 -223 184q-131 -128 -219 -184h-123v23z"/>
<glyph glyph-name="edieresis" horiz-adv-x="1155" unicode="ë" d="M596 971q-129 0 -204 -83t-89 -231h559q-2 154 -71 234t-195 80zM641 -20q-247 0 -387.5 149.5t-140.5 411.5q0 264 131 420.5t354 156.5q207 0 330 -133.5t123 -361.5v-109h-752q5 -187 95 -284t255 -97q88 0 167 15.5t185 60.5v-158q-91 -39 -171 -55t-189 -16z M700 1395q0 53 28 76.5t66 23.5q39 0 68 -23.5t29 -76.5t-29 -78t-68 -25q-38 0 -66 25t-28 78zM315 1395q0 53 28 76.5t68 23.5q39 0 68 -23.5t29 -76.5t-29 -78t-68 -25q-40 0 -68 25t-28 78z"/>
<glyph glyph-name="igrave" horiz-adv-x="528" unicode="ì" d="M354 0h-180v1098h180v-1098zM368 1241h-121q-75 60 -164.5 155.5t-126.5 151.5v21h215q32 -66 91 -157.5t106 -145.5v-25z"/>
<glyph glyph-name="iacute" horiz-adv-x="528" unicode="í" d="M354 0h-180v1098h180v-1098zM167 1266q38 48 96.5 136.5t98.5 166.5h217v-21q-44 -64 -137 -161t-156 -146h-119v25z"/>
<glyph glyph-name="icircumflex" horiz-adv-x="528" unicode="î" d="M354 0h-180v1098h180v-1098zM-81 1264q125 134 176.5 198t75.5 107h184q52 -101 256 -305v-23h-127q-90 53 -223 184q-131 -128 -219 -184h-123v23z"/>
<glyph glyph-name="idieresis" horiz-adv-x="528" unicode="ï" d="M354 0h-180v1098h180v-1098zM363 1395q0 53 28 76.5t66 23.5q39 0 68 -23.5t29 -76.5t-29 -78t-68 -25q-38 0 -66 25t-28 78zM-22 1395q0 53 28 76.5t68 23.5q39 0 68 -23.5t29 -76.5t-29 -78t-68 -25q-40 0 -68 25t-28 78z"/>
<glyph glyph-name="eth" horiz-adv-x="1239" unicode="ð" d="M946 514q0 143 -87.5 226t-237.5 83q-166 0 -246 -86.5t-80 -265.5q0 -165 84 -254.5t242 -89.5q169 0 247 99t78 288zM1128 563q0 -282 -133 -432.5t-379 -150.5q-225 0 -364 135.5t-139 361.5q0 229 129.5 360.5t351.5 131.5q225 0 319 -119l9 4q-59 214 -254 391 l-267 -153l-77 112l229 131q-86 58 -184 109l73 123q156 -73 258 -148l236 137l78 -110l-203 -117q151 -140 234 -337.5t83 -428.5z"/>
<glyph glyph-name="ntilde" horiz-adv-x="1266" unicode="ñ" d="M922 0v702q0 134 -59.5 199.5t-186.5 65.5q-169 0 -245.5 -93.5t-76.5 -304.5v-569h-180v1098h145l27 -150h10q51 81 143 125.5t203 44.5q202 0 300 -98t98 -305v-715h-178zM802 1243q-43 0 -84 18.5t-80.5 40t-76 40t-70.5 18.5q-49 0 -74 -29.5t-39 -89.5h-104 q12 122 70 192t155 70q45 0 87.5 -18.5t81.5 -40t75 -40t68 -18.5q48 0 72.5 29.5t39.5 89.5h103q-12 -119 -70 -190.5t-154 -71.5z"/>
<glyph glyph-name="ograve" horiz-adv-x="1239" unicode="ò" d="M299 551q0 -207 81.5 -314.5t240.5 -107.5q157 0 239 107.5t82 314.5t-82.5 311.5t-241.5 104.5q-319 0 -319 -416zM1128 551q0 -269 -136 -420t-376 -151q-149 0 -264 69.5t-177 199.5t-62 302q0 268 134 417.5t376 149.5q232 0 368.5 -152.5t136.5 -414.5zM751 1241 h-121q-75 60 -164.5 155.5t-126.5 151.5v21h215q32 -66 91 -157.5t106 -145.5v-25z"/>
<glyph glyph-name="oacute" horiz-adv-x="1239" unicode="ó" d="M299 551q0 -207 81.5 -314.5t240.5 -107.5q157 0 239 107.5t82 314.5t-82.5 311.5t-241.5 104.5q-319 0 -319 -416zM1128 551q0 -269 -136 -420t-376 -151q-149 0 -264 69.5t-177 199.5t-62 302q0 268 134 417.5t376 149.5q232 0 368.5 -152.5t136.5 -414.5zM477 1266 q38 48 96.5 136.5t98.5 166.5h217v-21q-44 -64 -137 -161t-156 -146h-119v25z"/>
<glyph glyph-name="ocircumflex" horiz-adv-x="1239" unicode="ô" d="M299 551q0 -207 81.5 -314.5t240.5 -107.5q157 0 239 107.5t82 314.5t-82.5 311.5t-241.5 104.5q-319 0 -319 -416zM1128 551q0 -269 -136 -420t-376 -151q-149 0 -264 69.5t-177 199.5t-62 302q0 268 134 417.5t376 149.5q232 0 368.5 -152.5t136.5 -414.5zM272 1264 q125 134 176.5 198t75.5 107h184q52 -101 256 -305v-23h-127q-90 53 -223 184q-131 -128 -219 -184h-123v23z"/>
<glyph glyph-name="otilde" horiz-adv-x="1239" unicode="õ" d="M299 551q0 -207 81.5 -314.5t240.5 -107.5q157 0 239 107.5t82 314.5t-82.5 311.5t-241.5 104.5q-319 0 -319 -416zM1128 551q0 -269 -136 -420t-376 -151q-149 0 -264 69.5t-177 199.5t-62 302q0 268 134 417.5t376 149.5q232 0 368.5 -152.5t136.5 -414.5zM775 1243 q-43 0 -84 18.5t-80.5 40t-76 40t-70.5 18.5q-49 0 -74 -29.5t-39 -89.5h-104q12 122 70 192t155 70q45 0 87.5 -18.5t81.5 -40t75 -40t68 -18.5q48 0 72.5 29.5t39.5 89.5h103q-12 -119 -70 -190.5t-154 -71.5z"/>
<glyph glyph-name="odieresis" horiz-adv-x="1239" unicode="ö" d="M299 551q0 -207 81.5 -314.5t240.5 -107.5q157 0 239 107.5t82 314.5t-82.5 311.5t-241.5 104.5q-319 0 -319 -416zM1128 551q0 -269 -136 -420t-376 -151q-149 0 -264 69.5t-177 199.5t-62 302q0 268 134 417.5t376 149.5q232 0 368.5 -152.5t136.5 -414.5zM715 1395 q0 53 28 76.5t66 23.5q39 0 68 -23.5t29 -76.5t-29 -78t-68 -25q-38 0 -66 25t-28 78zM330 1395q0 53 28 76.5t68 23.5q39 0 68 -23.5t29 -76.5t-29 -78t-68 -25q-40 0 -68 25t-28 78z"/>
<glyph glyph-name="divide" horiz-adv-x="1128" unicode="÷" d="M449 1018q0 34 9 58q8 24 24 39t36 21t45 7q23 -1 44 -7t37 -21t25 -39t9 -58q0 -32 -9 -56t-25 -40t-37 -22q-21 -7 -44 -7q-25 0 -45 7q-20 6 -36 22t-24 40q-9 24 -9 56zM449 320q0 34 9 58q8 24 24 39t36 21t45 7q23 -1 44 -7t37 -21t25 -39t9 -58q0 -32 -9 -56 t-25 -40t-37 -22q-21 -7 -44 -7q-25 0 -45 7q-20 6 -36 22t-24 40q-9 24 -9 56zM102 585v150h924v-150h-924z"/>
<glyph glyph-name="oslash" horiz-adv-x="1239" unicode="ø" d="M942 551q0 152 -47 252l-451 -627q69 -47 177 -47q157 0 239 107.5t82 314.5zM299 551q0 -166 49 -262l451 626q-73 52 -181 52q-319 0 -319 -416zM1128 551q0 -269 -136 -420t-376 -151q-151 0 -264 67l-82 -115l-118 80l92 127q-131 156 -131 412q0 268 134 417.5 t376 149.5q151 0 268 -74l80 115l121 -78l-93 -129q129 -155 129 -401z"/>
<glyph glyph-name="ugrave" horiz-adv-x="1266" unicode="ù" d="M344 1098v-707q0 -133 59.5 -197.5t184.5 -64.5q169 0 246 94t77 303v572h181v-1098h-148l-26 145h-9q-49 -79 -139 -122t-209 -43q-198 0 -298.5 95t-100.5 304v719h182zM737 1241h-121q-75 60 -164.5 155.5t-126.5 151.5v21h215q32 -66 91 -157.5t106 -145.5v-25z"/>
<glyph glyph-name="uacute" horiz-adv-x="1266" unicode="ú" d="M344 1098v-707q0 -133 59.5 -197.5t184.5 -64.5q169 0 246 94t77 303v572h181v-1098h-148l-26 145h-9q-49 -79 -139 -122t-209 -43q-198 0 -298.5 95t-100.5 304v719h182zM504 1266q38 48 96.5 136.5t98.5 166.5h217v-21q-44 -64 -137 -161t-156 -146h-119v25z"/>
<glyph glyph-name="ucircumflex" horiz-adv-x="1266" unicode="û" d="M344 1098v-707q0 -133 59.5 -197.5t184.5 -64.5q169 0 246 94t77 303v572h181v-1098h-148l-26 145h-9q-49 -79 -139 -122t-209 -43q-198 0 -298.5 95t-100.5 304v719h182zM280 1264q125 134 176.5 198t75.5 107h184q52 -101 256 -305v-23h-127q-90 53 -223 184 q-131 -128 -219 -184h-123v23z"/>
<glyph glyph-name="udieresis" horiz-adv-x="1266" unicode="ü" d="M344 1098v-707q0 -133 59.5 -197.5t184.5 -64.5q169 0 246 94t77 303v572h181v-1098h-148l-26 145h-9q-49 -79 -139 -122t-209 -43q-198 0 -298.5 95t-100.5 304v719h182zM723 1395q0 53 28 76.5t66 23.5q39 0 68 -23.5t29 -76.5t-29 -78t-68 -25q-38 0 -66 25t-28 78z M338 1395q0 53 28 76.5t68 23.5q39 0 68 -23.5t29 -76.5t-29 -78t-68 -25q-40 0 -68 25t-28 78z"/>
<glyph glyph-name="yacute" horiz-adv-x="1044" unicode="ý" d="M2 1098h193l237 -625q75 -204 92 -299h8q9 37 41 138.5t54 162.5l223 623h194l-473 -1250q-69 -182 -164 -261t-235 -79q-75 0 -149 17v143q50 -12 120 -12q86 0 146 47.5t98 146.5l57 146zM410 1266q38 48 96.5 136.5t98.5 166.5h217v-21q-44 -64 -137 -161t-156 -146 h-119v25z"/>
<glyph glyph-name="thorn" horiz-adv-x="1260" unicode="þ" d="M666 967q-161 0 -235.5 -89.5t-76.5 -287.5v-39q0 -223 74 -322.5t240 -99.5q293 0 293 424q0 208 -71.5 311t-223.5 103zM356 950q67 91 150.5 129.5t189.5 38.5q213 0 332 -149.5t119 -417.5q0 -269 -119 -420t-332 -151q-222 0 -342 159h-12q12 -132 12 -172v-459 h-180v2048h180v-458q0 -70 -6 -148h8z"/>
<glyph glyph-name="ydieresis" horiz-adv-x="1044" unicode="ÿ" d="M2 1098h193l237 -625q75 -204 92 -299h8q9 37 41 138.5t54 162.5l223 623h194l-473 -1250q-69 -182 -164 -261t-235 -79q-75 0 -149 17v143q50 -12 120 -12q86 0 146 47.5t98 146.5l57 146zM619 1395q0 53 28 76.5t66 23.5q39 0 68 -23.5t29 -76.5t-29 -78t-68 -25 q-38 0 -66 25t-28 78zM234 1395q0 53 28 76.5t68 23.5q39 0 68 -23.5t29 -76.5t-29 -78t-68 -25q-40 0 -68 25t-28 78z"/>
<glyph glyph-name="Amacron" horiz-adv-x="1309" unicode="Ā" d="M885 616l-164 443l-70 219q-30 -120 -63 -219l-166 -443h463zM1116 0l-176 453h-580l-174 -453h-186l571 1468h166l570 -1468h-191zM365 1724h608v-145h-608v145z"/>
<glyph glyph-name="amacron" horiz-adv-x="1149" unicode="ā" d="M481 125q151 0 237.5 81.5t86.5 231.5v99l-162 -7q-189 -7 -275.5 -60t-86.5 -167q0 -86 52.5 -132t147.5 -46zM852 0l-35 156h-8q-82 -103 -163.5 -139.5t-205.5 -36.5q-162 0 -254 85t-92 240q0 334 527 350l186 7v65q0 125 -54 184.5t-173 59.5q-87 0 -164.5 -26 t-145.5 -58l-55 135q83 44 181 69t194 25q199 0 296 -88t97 -280v-748h-131zM292 1386h608v-145h-608v145z"/>
<glyph glyph-name="Abreve" horiz-adv-x="1309" unicode="Ă" d="M885 616l-164 443l-70 219q-30 -120 -63 -219l-166 -443h463zM1116 0l-176 453h-580l-174 -453h-186l571 1468h166l570 -1468h-191zM647 1579q-141 0 -222.5 69t-90.5 206h110q8 -71 50 -100.5t157 -29.5q101 0 150 31.5t57 98.5h113q-13 -131 -99 -203t-225 -72z"/>
<glyph glyph-name="abreve" horiz-adv-x="1149" unicode="ă" d="M481 125q151 0 237.5 81.5t86.5 231.5v99l-162 -7q-189 -7 -275.5 -60t-86.5 -167q0 -86 52.5 -132t147.5 -46zM852 0l-35 156h-8q-82 -103 -163.5 -139.5t-205.5 -36.5q-162 0 -254 85t-92 240q0 334 527 350l186 7v65q0 125 -54 184.5t-173 59.5q-87 0 -164.5 -26 t-145.5 -58l-55 135q83 44 181 69t194 25q199 0 296 -88t97 -280v-748h-131zM576 1241q-141 0 -222.5 69t-90.5 206h110q8 -71 50 -100.5t157 -29.5q101 0 150 31.5t57 98.5h113q-13 -131 -99 -203t-225 -72z"/>
<glyph glyph-name="Aogonek" horiz-adv-x="1309" unicode="Ą" d="M885 616l-164 443l-70 219q-30 -120 -63 -219l-166 -443h463zM1116 0l-176 453h-580l-174 -453h-186l571 1468h166l570 -1468h-191zM1106 -238q0 -46 24.5 -69t67.5 -23q44 0 99 13v-115q-69 -19 -127 -19q-211 0 -211 193q0 139 160 258h127q-70 -66 -105 -120.5 t-35 -117.5z"/>
<glyph glyph-name="aogonek" horiz-adv-x="1149" unicode="ą" d="M481 125q151 0 237.5 81.5t86.5 231.5v99l-162 -7q-189 -7 -275.5 -60t-86.5 -167q0 -86 52.5 -132t147.5 -46zM852 0l-35 156h-8q-82 -103 -163.5 -139.5t-205.5 -36.5q-162 0 -254 85t-92 240q0 334 527 350l186 7v65q0 125 -54 184.5t-173 59.5q-87 0 -164.5 -26 t-145.5 -58l-55 135q83 44 181 69t194 25q199 0 296 -88t97 -280v-748h-131zM839 -238q0 -46 24.5 -69t67.5 -23q44 0 99 13v-115q-69 -19 -127 -19q-211 0 -211 193q0 139 160 258h127q-70 -66 -105 -120.5t-35 -117.5z"/>
<glyph glyph-name="Cacute" horiz-adv-x="1294" unicode="Ć" d="M825 1321q-236 0 -371 -158t-135 -432q0 -283 131 -436.5t373 -153.5q156 0 351 58v-160q-93 -34 -179 -46.5t-198 -12.5q-323 0 -497.5 196.5t-174.5 556.5q0 226 83.5 396t243 262t375.5 92q232 0 404 -86l-74 -156q-175 80 -332 80zM651 1604q38 48 96.5 136.5 t98.5 166.5h217v-21q-44 -64 -137 -161t-156 -146h-119v25z"/>
<glyph glyph-name="cacute" horiz-adv-x="983" unicode="ć" d="M614 -20q-237 0 -369 145.5t-132 417.5q0 276 133.5 425.5t380.5 149.5q80 0 158.5 -16.5t129.5 -42.5l-55 -150q-139 52 -237 52q-166 0 -245 -104.5t-79 -311.5q0 -199 79 -304.5t234 -105.5q145 0 285 64v-160q-114 -59 -283 -59zM459 1266q38 48 96.5 136.5 t98.5 166.5h217v-21q-44 -64 -137 -161t-156 -146h-119v25z"/>
<glyph glyph-name="Ccircumflex" horiz-adv-x="1294" unicode="Ĉ" d="M825 1321q-236 0 -371 -158t-135 -432q0 -283 131 -436.5t373 -153.5q156 0 351 58v-160q-93 -34 -179 -46.5t-198 -12.5q-323 0 -497.5 196.5t-174.5 556.5q0 226 83.5 396t243 262t375.5 92q232 0 404 -86l-74 -156q-175 80 -332 80zM450 1602q125 134 176.5 198 t75.5 107h184q52 -101 256 -305v-23h-127q-90 53 -223 184q-131 -128 -219 -184h-123v23z"/>
<glyph glyph-name="ccircumflex" horiz-adv-x="983" unicode="ĉ" d="M614 -20q-237 0 -369 145.5t-132 417.5q0 276 133.5 425.5t380.5 149.5q80 0 158.5 -16.5t129.5 -42.5l-55 -150q-139 52 -237 52q-166 0 -245 -104.5t-79 -311.5q0 -199 79 -304.5t234 -105.5q145 0 285 64v-160q-114 -59 -283 -59zM241 1264q125 134 176.5 198 t75.5 107h184q52 -101 256 -305v-23h-127q-90 53 -223 184q-131 -128 -219 -184h-123v23z"/>
<glyph glyph-name="Cdotaccent" horiz-adv-x="1294" unicode="Ċ" d="M825 1321q-236 0 -371 -158t-135 -432q0 -283 131 -436.5t373 -153.5q156 0 351 58v-160q-93 -34 -179 -46.5t-198 -12.5q-323 0 -497.5 196.5t-174.5 556.5q0 226 83.5 396t243 262t375.5 92q232 0 404 -86l-74 -156q-175 80 -332 80zM690 1733q0 60 30.5 87t75.5 27 q42 0 73.5 -27t31.5 -87q0 -59 -31.5 -87t-73.5 -28q-45 0 -75.5 28t-30.5 87z"/>
<glyph glyph-name="cdotaccent" horiz-adv-x="983" unicode="ċ" d="M614 -20q-237 0 -369 145.5t-132 417.5q0 276 133.5 425.5t380.5 149.5q80 0 158.5 -16.5t129.5 -42.5l-55 -150q-139 52 -237 52q-166 0 -245 -104.5t-79 -311.5q0 -199 79 -304.5t234 -105.5q145 0 285 64v-160q-114 -59 -283 -59zM494 1395q0 60 30.5 87t75.5 27 q42 0 73.5 -27t31.5 -87q0 -59 -31.5 -87t-73.5 -28q-45 0 -75.5 28t-30.5 87z"/>
<glyph glyph-name="Ccaron" horiz-adv-x="1294" unicode="Č" d="M825 1321q-236 0 -371 -158t-135 -432q0 -283 131 -436.5t373 -153.5q156 0 351 58v-160q-93 -34 -179 -46.5t-198 -12.5q-323 0 -497.5 196.5t-174.5 556.5q0 226 83.5 396t243 262t375.5 92q232 0 404 -86l-74 -156q-175 80 -332 80zM450 1907h123q114 -74 219 -189 q126 126 223 189h127v-27q-205 -205 -256 -301h-184q-60 102 -252 301v27z"/>
<glyph glyph-name="ccaron" horiz-adv-x="983" unicode="č" d="M614 -20q-237 0 -369 145.5t-132 417.5q0 276 133.5 425.5t380.5 149.5q80 0 158.5 -16.5t129.5 -42.5l-55 -150q-139 52 -237 52q-166 0 -245 -104.5t-79 -311.5q0 -199 79 -304.5t234 -105.5q145 0 285 64v-160q-114 -59 -283 -59zM249 1569h123q114 -74 219 -189 q126 126 223 189h127v-27q-205 -205 -256 -301h-184q-60 102 -252 301v27z"/>
<glyph glyph-name="Dcaron" horiz-adv-x="1495" unicode="Ď" d="M1176 739q0 279 -137.5 422.5t-415.5 143.5h-240v-1147h199q594 0 594 581zM1370 745q0 -362 -197.5 -553.5t-566.5 -191.5h-407v1462h450q341 0 531 -187.5t190 -529.5zM348 1907h123q114 -74 219 -189q126 126 223 189h127v-27q-205 -205 -256 -301h-184 q-60 102 -252 301v27z"/>
<glyph glyph-name="dcaron" horiz-adv-x="1260" unicode="ď" d="M592 129q164 0 239.5 89.5t75.5 293.5v33q0 229 -76.5 326.5t-240.5 97.5q-139 0 -215 -110.5t-76 -315.5q0 -204 75.5 -309t217.5 -105zM563 -20q-214 0 -332 148t-118 419q0 269 118.5 420t333.5 151q221 0 340 -162h13q-3 20 -8 80.5t-5 81.5v438h180v-1556h-145 l-27 147h-8q-115 -167 -342 -167zM1177 1253q23 66 42.5 159t25.5 144h178v-18q-13 -53 -56 -145t-92 -164h-98v24z"/>
<glyph glyph-name="Dcroat" horiz-adv-x="1495" unicode="Đ" d="M1176 739q0 280 -139 423t-414 143h-226v-502h365v-160h-365v-485h185q594 0 594 581zM1370 745q0 -359 -196.5 -552t-569.5 -193h-391v643h-152v160h152v659h436q341 0 531 -188.5t190 -528.5z"/>
<glyph glyph-name="dcroat" horiz-adv-x="1264" unicode="đ" d="M594 129q163 0 238 88.5t75 290.5v35q0 230 -76 325t-241 95q-140 0 -214.5 -107t-74.5 -315q0 -197 72 -304.5t221 -107.5zM563 -20q-214 0 -332 147t-118 416q0 271 117.5 420t332.5 149q223 0 342 -162h13q-3 14 -8 69t-5 95v125h-436v135h436v182h180v-182h156v-135 h-156v-1239h-147l-27 147h-8q-115 -167 -340 -167z"/>
<glyph glyph-name="Emacron" horiz-adv-x="1139" unicode="Ē" d="M1016 0h-817v1462h817v-162h-633v-456h596v-160h-596v-522h633v-162zM303 1724h608v-145h-608v145z"/>
<glyph glyph-name="emacron" horiz-adv-x="1155" unicode="ē" d="M596 971q-129 0 -204 -83t-89 -231h559q-2 154 -71 234t-195 80zM641 -20q-247 0 -387.5 149.5t-140.5 411.5q0 264 131 420.5t354 156.5q207 0 330 -133.5t123 -361.5v-109h-752q5 -187 95 -284t255 -97q88 0 167 15.5t185 60.5v-158q-91 -39 -171 -55t-189 -16z M307 1386h608v-145h-608v145z"/>
<glyph glyph-name="Ebreve" horiz-adv-x="1139" unicode="Ĕ" d="M1016 0h-817v1462h817v-162h-633v-456h596v-160h-596v-522h633v-162zM612 1579q-141 0 -222.5 69t-90.5 206h110q8 -71 50 -100.5t157 -29.5q101 0 150 31.5t57 98.5h113q-13 -131 -99 -203t-225 -72z"/>
<glyph glyph-name="ebreve" horiz-adv-x="1155" unicode="ĕ" d="M596 971q-129 0 -204 -83t-89 -231h559q-2 154 -71 234t-195 80zM641 -20q-247 0 -387.5 149.5t-140.5 411.5q0 264 131 420.5t354 156.5q207 0 330 -133.5t123 -361.5v-109h-752q5 -187 95 -284t255 -97q88 0 167 15.5t185 60.5v-158q-91 -39 -171 -55t-189 -16z M597 1241q-141 0 -222.5 69t-90.5 206h110q8 -71 50 -100.5t157 -29.5q101 0 150 31.5t57 98.5h113q-13 -131 -99 -203t-225 -72z"/>
<glyph glyph-name="Edotaccent" horiz-adv-x="1139" unicode="Ė" d="M1016 0h-817v1462h817v-162h-633v-456h596v-160h-596v-522h633v-162zM518 1704q0 60 30.5 87t75.5 27q42 0 73.5 -27t31.5 -87q0 -59 -31.5 -87t-73.5 -28q-45 0 -75.5 28t-30.5 87z"/>
<glyph glyph-name="edotaccent" horiz-adv-x="1155" unicode="ė" d="M596 971q-129 0 -204 -83t-89 -231h559q-2 154 -71 234t-195 80zM641 -20q-247 0 -387.5 149.5t-140.5 411.5q0 264 131 420.5t354 156.5q207 0 330 -133.5t123 -361.5v-109h-752q5 -187 95 -284t255 -97q88 0 167 15.5t185 60.5v-158q-91 -39 -171 -55t-189 -16z M498 1395q0 60 30.5 87t75.5 27q42 0 73.5 -27t31.5 -87q0 -59 -31.5 -87t-73.5 -28q-45 0 -75.5 28t-30.5 87z"/>
<glyph glyph-name="Eogonek" horiz-adv-x="1139" unicode="Ę" d="M1016 0h-817v1462h817v-162h-633v-456h596v-160h-596v-522h633v-162zM803 -238q0 -46 24.5 -69t67.5 -23q44 0 99 13v-115q-69 -19 -127 -19q-211 0 -211 193q0 139 160 258h127q-70 -66 -105 -120.5t-35 -117.5z"/>
<glyph glyph-name="eogonek" horiz-adv-x="1155" unicode="ę" d="M596 971q-129 0 -204 -83t-89 -231h559q-2 154 -71 234t-195 80zM641 -20q-247 0 -387.5 149.5t-140.5 411.5q0 264 131 420.5t354 156.5q207 0 330 -133.5t123 -361.5v-109h-752q5 -187 95 -284t255 -97q88 0 167 15.5t185 60.5v-158q-91 -39 -171 -55t-189 -16z M792 -209q0 -46 24.5 -69t67.5 -23q44 0 99 13v-115q-69 -19 -127 -19q-211 0 -211 193q0 139 160 258h127q-70 -66 -105 -120.5t-35 -117.5z"/>
<glyph glyph-name="Ecaron" horiz-adv-x="1139" unicode="Ě" d="M1016 0h-817v1462h817v-162h-633v-456h596v-160h-596v-522h633v-162zM272 1907h123q114 -74 219 -189q126 126 223 189h127v-27q-205 -205 -256 -301h-184q-60 102 -252 301v27z"/>
<glyph glyph-name="ecaron" horiz-adv-x="1155" unicode="ě" d="M596 971q-129 0 -204 -83t-89 -231h559q-2 154 -71 234t-195 80zM641 -20q-247 0 -387.5 149.5t-140.5 411.5q0 264 131 420.5t354 156.5q207 0 330 -133.5t123 -361.5v-109h-752q5 -187 95 -284t255 -97q88 0 167 15.5t185 60.5v-158q-91 -39 -171 -55t-189 -16z M257 1569h123q114 -74 219 -189q126 126 223 189h127v-27q-205 -205 -256 -301h-184q-60 102 -252 301v27z"/>
<glyph glyph-name="Gcircumflex" horiz-adv-x="1491" unicode="Ĝ" d="M834 772h505v-717q-116 -37 -236 -56t-278 -19q-334 0 -517 198t-183 553q0 229 91 400t262.5 261.5t404.5 90.5q234 0 436 -86l-70 -160q-193 84 -377 84q-261 0 -408 -158t-147 -432q0 -290 141 -441t410 -151q147 0 287 35v434h-321v164zM508 1602q125 134 176.5 198 t75.5 107h184q52 -101 256 -305v-23h-127q-90 53 -223 184q-131 -128 -219 -184h-123v23z"/>
<glyph glyph-name="gcircumflex" horiz-adv-x="1260" unicode="ĝ" d="M907 10l6 135h-8q-111 -165 -340 -165q-213 0 -332.5 148.5t-119.5 418.5q0 265 120.5 418t329.5 153q223 0 344 -166h11l24 146h143v-1116q0 -236 -119.5 -355t-371.5 -119q-240 0 -395 70v166q160 -86 405 -86q140 0 221.5 82t81.5 227v43zM592 127q166 0 241.5 89.5 t75.5 287.5v43q0 220 -76 320t-245 100q-138 0 -213.5 -109.5t-75.5 -312.5q0 -204 73.5 -311t219.5 -107zM270 1264q125 134 176.5 198t75.5 107h184q52 -101 256 -305v-23h-127q-90 53 -223 184q-131 -128 -219 -184h-123v23z"/>
<glyph glyph-name="Gbreve" horiz-adv-x="1491" unicode="Ğ" d="M834 772h505v-717q-116 -37 -236 -56t-278 -19q-334 0 -517 198t-183 553q0 229 91 400t262.5 261.5t404.5 90.5q234 0 436 -86l-70 -160q-193 84 -377 84q-261 0 -408 -158t-147 -432q0 -290 141 -441t410 -151q147 0 287 35v434h-321v164zM848 1579q-141 0 -222.5 69 t-90.5 206h110q8 -71 50 -100.5t157 -29.5q101 0 150 31.5t57 98.5h113q-13 -131 -99 -203t-225 -72z"/>
<glyph glyph-name="gbreve" horiz-adv-x="1260" unicode="ğ" d="M907 10l6 135h-8q-111 -165 -340 -165q-213 0 -332.5 148.5t-119.5 418.5q0 265 120.5 418t329.5 153q223 0 344 -166h11l24 146h143v-1116q0 -236 -119.5 -355t-371.5 -119q-240 0 -395 70v166q160 -86 405 -86q140 0 221.5 82t81.5 227v43zM592 127q166 0 241.5 89.5 t75.5 287.5v43q0 220 -76 320t-245 100q-138 0 -213.5 -109.5t-75.5 -312.5q0 -204 73.5 -311t219.5 -107zM614 1241q-141 0 -222.5 69t-90.5 206h110q8 -71 50 -100.5t157 -29.5q101 0 150 31.5t57 98.5h113q-13 -131 -99 -203t-225 -72z"/>
<glyph glyph-name="Gdotaccent" horiz-adv-x="1491" unicode="Ġ" d="M834 772h505v-717q-116 -37 -236 -56t-278 -19q-334 0 -517 198t-183 553q0 229 91 400t262.5 261.5t404.5 90.5q234 0 436 -86l-70 -160q-193 84 -377 84q-261 0 -408 -158t-147 -432q0 -290 141 -441t410 -151q147 0 287 35v434h-321v164zM760 1733q0 60 30.5 87 t75.5 27q42 0 73.5 -27t31.5 -87q0 -59 -31.5 -87t-73.5 -28q-45 0 -75.5 28t-30.5 87z"/>
<glyph glyph-name="gdotaccent" horiz-adv-x="1260" unicode="ġ" d="M907 10l6 135h-8q-111 -165 -340 -165q-213 0 -332.5 148.5t-119.5 418.5q0 265 120.5 418t329.5 153q223 0 344 -166h11l24 146h143v-1116q0 -236 -119.5 -355t-371.5 -119q-240 0 -395 70v166q160 -86 405 -86q140 0 221.5 82t81.5 227v43zM592 127q166 0 241.5 89.5 t75.5 287.5v43q0 220 -76 320t-245 100q-138 0 -213.5 -109.5t-75.5 -312.5q0 -204 73.5 -311t219.5 -107zM506 1395q0 60 30.5 87t75.5 27q42 0 73.5 -27t31.5 -87q0 -59 -31.5 -87t-73.5 -28q-45 0 -75.5 28t-30.5 87z"/>
<glyph glyph-name="Gcommaaccent" horiz-adv-x="1491" unicode="Ģ" d="M834 772h505v-717q-116 -37 -236 -56t-278 -19q-334 0 -517 198t-183 553q0 229 91 400t262.5 261.5t404.5 90.5q234 0 436 -86l-70 -160q-193 84 -377 84q-261 0 -408 -158t-147 -432q0 -290 141 -441t410 -151q147 0 287 35v434h-321v164zM660 -428q22 51 49 144 t35 159h178v-18q-16 -63 -64.5 -156.5t-99.5 -153.5h-98v25z"/>
<glyph glyph-name="gcommaaccent" horiz-adv-x="1260" unicode="ģ" d="M907 10l6 135h-8q-111 -165 -340 -165q-213 0 -332.5 148.5t-119.5 418.5q0 265 120.5 418t329.5 153q223 0 344 -166h11l24 146h143v-1116q0 -236 -119.5 -355t-371.5 -119q-240 0 -395 70v166q160 -86 405 -86q140 0 221.5 82t81.5 227v43zM592 127q166 0 241.5 89.5 t75.5 287.5v43q0 220 -76 320t-245 100q-138 0 -213.5 -109.5t-75.5 -312.5q0 -204 73.5 -311t219.5 -107zM776 1544q-27 -59 -53 -152t-33 -151h-178v19q15 56 64.5 152t99.5 157h100v-25z"/>
<glyph glyph-name="Hcircumflex" horiz-adv-x="1518" unicode="Ĥ" d="M1317 0h-184v682h-750v-682h-184v1462h184v-618h750v618h184v-1462zM410 1602q125 134 176.5 198t75.5 107h184q52 -101 256 -305v-23h-127q-90 53 -223 184q-131 -128 -219 -184h-123v23z"/>
<glyph glyph-name="hcircumflex" horiz-adv-x="1266" unicode="ĥ" d="M922 0v702q0 134 -59.5 199.5t-186.5 65.5q-167 0 -244.5 -93t-77.5 -307v-567h-180v1556h180v-456q0 -90 -10 -154h12q49 80 139 125t203 45q200 0 301 -95.5t101 -305.5v-715h-178zM293 1657q125 134 176.5 198t75.5 107h184q52 -101 256 -305v-23h-127 q-90 53 -223 184q-131 -128 -219 -184h-123v23z"/>
<glyph glyph-name="Hbar" horiz-adv-x="1518" unicode="Ħ" d="M1133 844v227h-750v-227h750zM199 1219v243h184v-243h750v243h184v-243h199v-148h-199v-1071h-184v682h-750v-682h-184v1071h-199v148h199z"/>
<glyph glyph-name="hbar" horiz-adv-x="1266" unicode="ħ" d="M922 0v662q0 133 -59.5 198.5t-186.5 65.5q-169 0 -245.5 -92.5t-76.5 -305.5v-528h-180v1237h-156v135h156v184h180v-184h434v-135h-434v-178q0 -88 -10 -152h12q53 85 144.5 127.5t199.5 42.5q199 0 299.5 -96.5t100.5 -306.5v-674h-178z"/>
<glyph glyph-name="Itilde" horiz-adv-x="694" unicode="Ĩ" d="M610 0h-528v106l172 39v1170l-172 41v106h528v-106l-172 -41v-1170l172 -39v-106zM500 1581q-43 0 -84 18.5t-80.5 40t-76 40t-70.5 18.5q-49 0 -74 -29.5t-39 -89.5h-104q12 122 70 192t155 70q45 0 87.5 -18.5t81.5 -40t75 -40t68 -18.5q48 0 72.5 29.5t39.5 89.5h103 q-12 -119 -70 -190.5t-154 -71.5z"/>
<glyph glyph-name="itilde" horiz-adv-x="528" unicode="ĩ" d="M354 0h-180v1098h180v-1098zM418 1243q-43 0 -84 18.5t-80.5 40t-76 40t-70.5 18.5q-49 0 -74 -29.5t-39 -89.5h-104q12 122 70 192t155 70q45 0 87.5 -18.5t81.5 -40t75 -40t68 -18.5q48 0 72.5 29.5t39.5 89.5h103q-12 -119 -70 -190.5t-154 -71.5z"/>
<glyph glyph-name="Imacron" horiz-adv-x="694" unicode="Ī" d="M610 0h-528v106l172 39v1170l-172 41v106h528v-106l-172 -41v-1170l172 -39v-106zM44 1724h608v-145h-608v145z"/>
<glyph glyph-name="imacron" horiz-adv-x="528" unicode="ī" d="M354 0h-180v1098h180v-1098zM-36 1386h608v-145h-608v145z"/>
<glyph glyph-name="Ibreve" horiz-adv-x="694" unicode="Ĭ" d="M610 0h-528v106l172 39v1170l-172 41v106h528v-106l-172 -41v-1170l172 -39v-106zM343 1579q-141 0 -222.5 69t-90.5 206h110q8 -71 50 -100.5t157 -29.5q101 0 150 31.5t57 98.5h113q-13 -131 -99 -203t-225 -72z"/>
<glyph glyph-name="ibreve" horiz-adv-x="528" unicode="ĭ" d="M354 0h-180v1098h180v-1098zM259 1241q-141 0 -222.5 69t-90.5 206h110q8 -71 50 -100.5t157 -29.5q101 0 150 31.5t57 98.5h113q-13 -131 -99 -203t-225 -72z"/>
<glyph glyph-name="Iogonek" horiz-adv-x="694" unicode="Į" d="M610 0h-528v106l172 39v1170l-172 41v106h528v-106l-172 -41v-1170l172 -39v-106zM327 -238q0 -46 24.5 -69t67.5 -23q44 0 99 13v-115q-69 -19 -127 -19q-211 0 -211 193q0 139 160 258h127q-70 -66 -105 -120.5t-35 -117.5z"/>
<glyph glyph-name="iogonek" horiz-adv-x="528" unicode="į" d="M160 1395q0 60 30.5 87t75.5 27q42 0 73.5 -27t31.5 -87q0 -59 -31.5 -87t-73.5 -28q-45 0 -75.5 28t-30.5 87zM354 0h-180v1098h180v-1098zM198 -238q0 -46 24.5 -69t67.5 -23q44 0 99 13v-115q-69 -19 -127 -19q-211 0 -211 193q0 139 160 258h127q-70 -66 -105 -120.5 t-35 -117.5z"/>
<glyph glyph-name="Idotaccent" horiz-adv-x="694" unicode="İ" d="M610 0h-528v106l172 39v1170l-172 41v106h528v-106l-172 -41v-1170l172 -39v-106zM240 1733q0 60 30.5 87t75.5 27q42 0 73.5 -27t31.5 -87q0 -59 -31.5 -87t-73.5 -28q-45 0 -75.5 28t-30.5 87z"/>
<glyph glyph-name="dotlessi" horiz-adv-x="528" unicode="ı" d="M354 0h-180v1098h180v-1098z"/>
<glyph glyph-name="IJ" horiz-adv-x="1253" unicode="Ĳ" d="M610 0h-528v106l172 39v1170l-172 41v106h528v-106l-172 -41v-1170l172 -39v-106zM686 -389q-94 0 -152 27v155q71 -20 148 -20q100 0 150 60.5t50 174.5v1454h185v-1439q0 -198 -98.5 -305t-282.5 -107z"/>
<glyph glyph-name="ij" horiz-adv-x="1053" unicode="ĳ" d="M160 1395q0 60 30.5 87t75.5 27q42 0 73.5 -27t31.5 -87q0 -59 -31.5 -87t-73.5 -28q-45 0 -75.5 28t-30.5 87zM354 0h-180v1098h180v-1098zM684 1395q0 60 30.5 87t75.5 27q42 0 73.5 -27t31.5 -87q0 -59 -31.5 -87t-73.5 -28q-45 0 -75.5 28t-30.5 87zM569 -492 q-94 0 -158 25v145q69 -20 136 -20q78 0 114.5 42.5t36.5 129.5v1268h180v-1262q0 -164 -78.5 -246t-230.5 -82z"/>
<glyph glyph-name="Jcircumflex" horiz-adv-x="559" unicode="Ĵ" d="M-8 -389q-94 0 -152 27v155q71 -20 148 -20q100 0 150 60.5t50 174.5v1454h185v-1439q0 -198 -98.5 -305t-282.5 -107zM-63 1602q125 134 176.5 198t75.5 107h184q52 -101 256 -305v-23h-127q-90 53 -223 184q-131 -128 -219 -184h-123v23z"/>
<glyph glyph-name="jcircumflex" horiz-adv-x="528" unicode="ĵ" d="M45 -492q-94 0 -158 25v145q69 -20 136 -20q78 0 114.5 42.5t36.5 129.5v1268h180v-1262q0 -164 -78.5 -246t-230.5 -82zM-87 1264q125 134 176.5 198t75.5 107h184q52 -101 256 -305v-23h-127q-90 53 -223 184q-131 -128 -219 -184h-123v23z"/>
<glyph glyph-name="Kcommaaccent" horiz-adv-x="1268" unicode="Ķ" d="M1268 0h-217l-519 698l-149 -131v-567h-184v1462h184v-721l126 139l521 582h215l-579 -637zM504 -428q22 51 49 144t35 159h178v-18q-16 -63 -64.5 -156.5t-99.5 -153.5h-98v25z"/>
<glyph glyph-name="kcommaaccent" horiz-adv-x="1094" unicode="ķ" d="M352 565l61 78l70 84l351 371h210l-444 -469l475 -629h-217l-381 512l-125 -109v-403h-178v1556h178v-813l-8 -178h8zM416 -428q22 51 49 144t35 159h178v-18q-16 -63 -64.5 -156.5t-99.5 -153.5h-98v25z"/>
<glyph glyph-name="kgreenlandic" horiz-adv-x="1094" unicode="ĸ" d="M825 1098h217l-415 -486l448 -612h-215l-360 496l-135 -111v-385h-191v1098h191v-285q0 -139 -13 -276l84 102z"/>
<glyph glyph-name="Lacute" horiz-adv-x="1073" unicode="Ĺ" d="M199 0v1462h184v-1298h639v-164h-823zM241 1604q38 48 96.5 136.5t98.5 166.5h217v-21q-44 -64 -137 -161t-156 -146h-119v25z"/>
<glyph glyph-name="lacute" horiz-adv-x="528" unicode="ĺ" d="M354 0h-180v1556h180v-1556zM165 1661q38 48 96.5 136.5t98.5 166.5h217v-21q-44 -64 -137 -161t-156 -146h-119v25z"/>
<glyph glyph-name="Lcommaaccent" horiz-adv-x="1073" unicode="Ļ" d="M199 0v1462h184v-1298h639v-164h-823zM418 -428q22 51 49 144t35 159h178v-18q-16 -63 -64.5 -156.5t-99.5 -153.5h-98v25z"/>
<glyph glyph-name="lcommaaccent" horiz-adv-x="528" unicode="ļ" d="M354 0h-180v1556h180v-1556zM92 -428q22 51 49 144t35 159h178v-18q-16 -63 -64.5 -156.5t-99.5 -153.5h-98v25z"/>
<glyph glyph-name="Lcaron" horiz-adv-x="1073" unicode="Ľ" d="M199 0v1462h184v-1298h639v-164h-823zM682 1160q23 66 42.5 159t25.5 144h178v-18q-13 -53 -56 -145t-92 -164h-98v24z"/>
<glyph glyph-name="lcaron" horiz-adv-x="528" unicode="ľ" d="M354 0h-180v1556h180v-1556zM448 1253q23 66 42.5 159t25.5 144h178v-18q-13 -53 -56 -145t-92 -164h-98v24z"/>
<glyph glyph-name="Ldot" horiz-adv-x="1073" unicode="Ŀ" d="M199 0v1462h184v-1298h639v-164h-823zM680 732q0 60 30.5 87t75.5 27q42 0 73.5 -27t31.5 -87q0 -59 -31.5 -87t-73.5 -28q-45 0 -75.5 28t-30.5 87z"/>
<glyph glyph-name="ldot" horiz-adv-x="666" unicode="ŀ" d="M354 0h-180v1556h180v-1556zM492 683q0 60 30.5 87t75.5 27q42 0 73.5 -27t31.5 -87q0 -59 -31.5 -87t-73.5 -28q-45 0 -75.5 28t-30.5 87z"/>
<glyph glyph-name="Lslash" horiz-adv-x="1073" unicode="Ł" d="M199 0v506l-101 -57l-71 122l172 103v788h184v-680l281 166l73 -129l-354 -205v-450h639v-164h-823z"/>
<glyph glyph-name="lslash" horiz-adv-x="528" unicode="ł" d="M340 870l131 91l76 -121l-207 -140v-700h-180v584l-105 -66l-73 121l178 115v802h180v-686z"/>
<glyph glyph-name="Nacute" horiz-adv-x="1556" unicode="Ń" d="M1358 0h-215l-783 1214h-8l5 -81q12 -182 12 -316v-817h-170v1462h213l45 -71l480 -742l255 -397h8q-2 24 -8 171.5t-6 213.5v825h172v-1462zM651 1604q38 48 96.5 136.5t98.5 166.5h217v-21q-44 -64 -137 -161t-156 -146h-119v25z"/>
<glyph glyph-name="nacute" horiz-adv-x="1266" unicode="ń" d="M922 0v702q0 134 -59.5 199.5t-186.5 65.5q-169 0 -245.5 -93.5t-76.5 -304.5v-569h-180v1098h145l27 -150h10q51 81 143 125.5t203 44.5q202 0 300 -98t98 -305v-715h-178zM512 1266q38 48 96.5 136.5t98.5 166.5h217v-21q-44 -64 -137 -161t-156 -146h-119v25z"/>
<glyph glyph-name="Ncommaaccent" horiz-adv-x="1556" unicode="Ņ" d="M1358 0h-215l-783 1214h-8l5 -81q12 -182 12 -316v-817h-170v1462h213l45 -71l480 -742l255 -397h8q-2 24 -8 171.5t-6 213.5v825h172v-1462zM576 -428q22 51 49 144t35 159h178v-18q-16 -63 -64.5 -156.5t-99.5 -153.5h-98v25z"/>
<glyph glyph-name="ncommaaccent" horiz-adv-x="1266" unicode="ņ" d="M922 0v702q0 134 -59.5 199.5t-186.5 65.5q-169 0 -245.5 -93.5t-76.5 -304.5v-569h-180v1098h145l27 -150h10q51 81 143 125.5t203 44.5q202 0 300 -98t98 -305v-715h-178zM455 -428q22 51 49 144t35 159h178v-18q-16 -63 -64.5 -156.5t-99.5 -153.5h-98v25z"/>
<glyph glyph-name="Ncaron" horiz-adv-x="1556" unicode="Ň" d="M1358 0h-215l-783 1214h-8l5 -81q12 -182 12 -316v-817h-170v1462h213l45 -71l480 -742l255 -397h8q-2 24 -8 171.5t-6 213.5v825h172v-1462zM432 1907h123q114 -74 219 -189q126 126 223 189h127v-27q-205 -205 -256 -301h-184q-60 102 -252 301v27z"/>
<glyph glyph-name="ncaron" horiz-adv-x="1266" unicode="ň" d="M922 0v702q0 134 -59.5 199.5t-186.5 65.5q-169 0 -245.5 -93.5t-76.5 -304.5v-569h-180v1098h145l27 -150h10q51 81 143 125.5t203 44.5q202 0 300 -98t98 -305v-715h-178zM295 1569h123q114 -74 219 -189q126 126 223 189h127v-27q-205 -205 -256 -301h-184 q-60 102 -252 301v27z"/>
<glyph glyph-name="napostrophe" horiz-adv-x="1415" unicode="ŉ" d="M1067 0v702q0 134 -59.5 199.5t-186.5 65.5q-169 0 -245.5 -93.5t-76.5 -304.5v-569h-180v1098h145l27 -150h10q51 81 143 125.5t203 44.5q202 0 300 -98t98 -305v-715h-178zM297 1462l15 -22q-52 -199 -176 -479h-133q70 285 102 501h192z"/>
<glyph glyph-name="Eng" horiz-adv-x="1556" unicode="Ŋ" d="M973 -389q-98 0 -156 27v155q71 -20 156 -20q102 0 156.5 58.5t56.5 168.5l-826 1214h-8q17 -255 17 -421v-793h-170v1462h213l780 -1171h8q-14 154 -14 409v762h172v-1450q0 -196 -99.5 -298.5t-285.5 -102.5z"/>
<glyph glyph-name="eng" horiz-adv-x="1266" unicode="ŋ" d="M807 -492q-86 0 -145 25v145q60 -20 122 -20q138 0 138 172v875q0 133 -59.5 197.5t-184.5 64.5q-170 0 -247 -93.5t-77 -302.5v-571h-180v1098h145l29 -150h10q52 82 142 126t200 44q202 0 302 -95.5t100 -305.5v-881q0 -154 -71.5 -241t-223.5 -87z"/>
<glyph glyph-name="Omacron" horiz-adv-x="1599" unicode="Ō" d="M319 733q0 -290 123 -442t359 -152q235 0 357 150t122 444q0 293 -121 441.5t-356 148.5q-238 0 -361 -150.5t-123 -439.5zM1475 733q0 -351 -177.5 -552t-496.5 -201q-323 0 -499.5 197.5t-176.5 557.5q0 357 175.5 553.5t502.5 196.5q318 0 495 -199.5t177 -552.5z M496 1724h608v-145h-608v145z"/>
<glyph glyph-name="omacron" horiz-adv-x="1239" unicode="ō" d="M299 551q0 -207 81.5 -314.5t240.5 -107.5q157 0 239 107.5t82 314.5t-82.5 311.5t-241.5 104.5q-319 0 -319 -416zM1128 551q0 -269 -136 -420t-376 -151q-149 0 -264 69.5t-177 199.5t-62 302q0 268 134 417.5t376 149.5q232 0 368.5 -152.5t136.5 -414.5zM315 1386 h608v-145h-608v145z"/>
<glyph glyph-name="Obreve" horiz-adv-x="1599" unicode="Ŏ" d="M319 733q0 -290 123 -442t359 -152q235 0 357 150t122 444q0 293 -121 441.5t-356 148.5q-238 0 -361 -150.5t-123 -439.5zM1475 733q0 -351 -177.5 -552t-496.5 -201q-323 0 -499.5 197.5t-176.5 557.5q0 357 175.5 553.5t502.5 196.5q318 0 495 -199.5t177 -552.5z M793 1579q-141 0 -222.5 69t-90.5 206h110q8 -71 50 -100.5t157 -29.5q101 0 150 31.5t57 98.5h113q-13 -131 -99 -203t-225 -72z"/>
<glyph glyph-name="obreve" horiz-adv-x="1239" unicode="ŏ" d="M299 551q0 -207 81.5 -314.5t240.5 -107.5q157 0 239 107.5t82 314.5t-82.5 311.5t-241.5 104.5q-319 0 -319 -416zM1128 551q0 -269 -136 -420t-376 -151q-149 0 -264 69.5t-177 199.5t-62 302q0 268 134 417.5t376 149.5q232 0 368.5 -152.5t136.5 -414.5zM612 1241 q-141 0 -222.5 69t-90.5 206h110q8 -71 50 -100.5t157 -29.5q101 0 150 31.5t57 98.5h113q-13 -131 -99 -203t-225 -72z"/>
<glyph glyph-name="Ohungarumlaut" horiz-adv-x="1599" unicode="Ő" d="M319 733q0 -290 123 -442t359 -152q235 0 357 150t122 444q0 293 -121 441.5t-356 148.5q-238 0 -361 -150.5t-123 -439.5zM1475 733q0 -351 -177.5 -552t-496.5 -201q-323 0 -499.5 197.5t-176.5 557.5q0 357 175.5 553.5t502.5 196.5q318 0 495 -199.5t177 -552.5z M865 1604q47 65 100 156t78 147h196v-21q-33 -56 -119.5 -154t-152.5 -153h-102v25zM504 1604q35 46 87 134.5t91 168.5h197v-21q-33 -56 -119.5 -154t-152.5 -153h-103v25z"/>
<glyph glyph-name="ohungarumlaut" horiz-adv-x="1239" unicode="ő" d="M299 551q0 -207 81.5 -314.5t240.5 -107.5q157 0 239 107.5t82 314.5t-82.5 311.5t-241.5 104.5q-319 0 -319 -416zM1128 551q0 -269 -136 -420t-376 -151q-149 0 -264 69.5t-177 199.5t-62 302q0 268 134 417.5t376 149.5q232 0 368.5 -152.5t136.5 -414.5zM676 1266 q47 65 100 156t78 147h196v-21q-33 -56 -119.5 -154t-152.5 -153h-102v25zM315 1266q35 46 87 134.5t91 168.5h197v-21q-33 -56 -119.5 -154t-152.5 -153h-103v25z"/>
<glyph glyph-name="OE" horiz-adv-x="1901" unicode="Œ" d="M807 1323q-242 0 -366 -151t-124 -439q0 -289 124 -441.5t364 -152.5q117 0 203 35v1116q-85 33 -201 33zM1778 0h-779q-102 -20 -198 -20q-325 0 -500.5 197t-175.5 558q0 359 172.5 554.5t493.5 195.5q106 0 196 -23h791v-162h-588v-456h549v-160h-549v-522h588v-162z "/>
<glyph glyph-name="oe" horiz-adv-x="1937" unicode="œ" d="M1384 969q-123 0 -194.5 -79.5t-83.5 -232.5h534q0 151 -64.5 231.5t-191.5 80.5zM299 551q0 -208 73 -315t236 -107q160 0 233.5 104.5t73.5 309.5q0 214 -74.5 319t-236.5 105q-161 0 -233 -105.5t-72 -310.5zM1432 -20q-290 0 -418 227q-63 -113 -167.5 -170 t-240.5 -57q-226 0 -360.5 154t-134.5 417q0 266 132 415.5t369 149.5q130 0 232 -57t164 -168q60 109 156 167t222 58q205 0 325 -132.5t120 -360.5v-109h-729q8 -381 332 -381q90 0 167 15.5t181 60.5v-158q-93 -40 -170 -55.5t-180 -15.5z"/>
<glyph glyph-name="Racute" horiz-adv-x="1274" unicode="Ŕ" d="M383 604v-604h-184v1462h403q272 0 402.5 -103.5t130.5 -311.5q0 -291 -293 -392l401 -655h-215l-354 604h-291zM383 760h219q178 0 260 70t82 208t-83 201.5t-269 63.5h-209v-543zM510 1604q38 48 96.5 136.5t98.5 166.5h217v-21q-44 -64 -137 -161t-156 -146h-119v25z "/>
<glyph glyph-name="racute" horiz-adv-x="846" unicode="ŕ" d="M686 1118q73 0 129 -12l-22 -166q-61 14 -119 14q-87 0 -161.5 -48t-116.5 -132.5t-42 -187.5v-586h-180v1098h148l20 -201h8q63 109 149 165t187 56zM357 1266q38 48 96.5 136.5t98.5 166.5h217v-21q-44 -64 -137 -161t-156 -146h-119v25z"/>
<glyph glyph-name="Rcommaaccent" horiz-adv-x="1274" unicode="Ŗ" d="M383 604v-604h-184v1462h403q272 0 402.5 -103.5t130.5 -311.5q0 -291 -293 -392l401 -655h-215l-354 604h-291zM383 760h219q178 0 260 70t82 208t-83 201.5t-269 63.5h-209v-543zM496 -428q22 51 49 144t35 159h178v-18q-16 -63 -64.5 -156.5t-99.5 -153.5h-98v25z"/>
<glyph glyph-name="rcommaaccent" horiz-adv-x="846" unicode="ŗ" d="M686 1118q73 0 129 -12l-22 -166q-61 14 -119 14q-87 0 -161.5 -48t-116.5 -132.5t-42 -187.5v-586h-180v1098h148l20 -201h8q63 109 149 165t187 56zM98 -428q22 51 49 144t35 159h178v-18q-16 -63 -64.5 -156.5t-99.5 -153.5h-98v25z"/>
<glyph glyph-name="Rcaron" horiz-adv-x="1274" unicode="Ř" d="M383 604v-604h-184v1462h403q272 0 402.5 -103.5t130.5 -311.5q0 -291 -293 -392l401 -655h-215l-354 604h-291zM383 760h219q178 0 260 70t82 208t-83 201.5t-269 63.5h-209v-543zM289 1907h123q114 -74 219 -189q126 126 223 189h127v-27q-205 -205 -256 -301h-184 q-60 102 -252 301v27z"/>
<glyph glyph-name="rcaron" horiz-adv-x="846" unicode="ř" d="M686 1118q73 0 129 -12l-22 -166q-61 14 -119 14q-87 0 -161.5 -48t-116.5 -132.5t-42 -187.5v-586h-180v1098h148l20 -201h8q63 109 149 165t187 56zM126 1569h123q114 -74 219 -189q126 126 223 189h127v-27q-205 -205 -256 -301h-184q-60 102 -252 301v27z"/>
<glyph glyph-name="Sacute" horiz-adv-x="1124" unicode="Ś" d="M1028 391q0 -191 -138 -301t-384 -110q-260 0 -402 69v176q93 -40 203.5 -63t206.5 -23q164 0 247 63t83 173q0 73 -30 120t-100.5 88t-213.5 93q-203 74 -290 174.5t-87 259.5q0 171 128.5 272t338.5 101q219 0 403 -82l-57 -158q-188 78 -350 78q-130 0 -203.5 -56 t-73.5 -157q0 -72 28.5 -119.5t92 -86.5t199.5 -89q163 -60 243 -116.5t118 -130t38 -175.5zM465 1604q38 48 96.5 136.5t98.5 166.5h217v-21q-44 -64 -137 -161t-156 -146h-119v25z"/>
<glyph glyph-name="sacute" horiz-adv-x="981" unicode="ś" d="M889 303q0 -154 -115 -238.5t-323 -84.5q-217 0 -345 69v164q181 -88 349 -88q136 0 198 44t62 118q0 65 -59.5 110t-211.5 103q-155 60 -218 102.5t-92.5 95.5t-29.5 129q0 135 110 213t302 78q187 0 350 -74l-61 -143q-167 70 -301 70q-112 0 -170 -35.5t-58 -97.5 q0 -60 50 -99.5t233 -109.5q137 -51 202.5 -95t96.5 -99t31 -132zM370 1266q38 48 96.5 136.5t98.5 166.5h217v-21q-44 -64 -137 -161t-156 -146h-119v25z"/>
<glyph glyph-name="Scircumflex" horiz-adv-x="1124" unicode="Ŝ" d="M1028 391q0 -191 -138 -301t-384 -110q-260 0 -402 69v176q93 -40 203.5 -63t206.5 -23q164 0 247 63t83 173q0 73 -30 120t-100.5 88t-213.5 93q-203 74 -290 174.5t-87 259.5q0 171 128.5 272t338.5 101q219 0 403 -82l-57 -158q-188 78 -350 78q-130 0 -203.5 -56 t-73.5 -157q0 -72 28.5 -119.5t92 -86.5t199.5 -89q163 -60 243 -116.5t118 -130t38 -175.5zM238 1602q125 134 176.5 198t75.5 107h184q52 -101 256 -305v-23h-127q-90 53 -223 184q-131 -128 -219 -184h-123v23z"/>
<glyph glyph-name="scircumflex" horiz-adv-x="981" unicode="ŝ" d="M889 303q0 -154 -115 -238.5t-323 -84.5q-217 0 -345 69v164q181 -88 349 -88q136 0 198 44t62 118q0 65 -59.5 110t-211.5 103q-155 60 -218 102.5t-92.5 95.5t-29.5 129q0 135 110 213t302 78q187 0 350 -74l-61 -143q-167 70 -301 70q-112 0 -170 -35.5t-58 -97.5 q0 -60 50 -99.5t233 -109.5q137 -51 202.5 -95t96.5 -99t31 -132zM157 1264q125 134 176.5 198t75.5 107h184q52 -101 256 -305v-23h-127q-90 53 -223 184q-131 -128 -219 -184h-123v23z"/>
<glyph glyph-name="Scedilla" horiz-adv-x="1124" unicode="Ş" d="M1028 391q0 -191 -138 -301t-384 -110q-260 0 -402 69v176q93 -40 203.5 -63t206.5 -23q164 0 247 63t83 173q0 73 -30 120t-100.5 88t-213.5 93q-203 74 -290 174.5t-87 259.5q0 171 128.5 272t338.5 101q219 0 403 -82l-57 -158q-188 78 -350 78q-130 0 -203.5 -56 t-73.5 -157q0 -72 28.5 -119.5t92 -86.5t199.5 -89q163 -60 243 -116.5t118 -130t38 -175.5zM733 -285q0 -99 -75.5 -153t-227.5 -54q-65 0 -102 11v112q36 -10 108 -10q75 0 113.5 19.5t38.5 70.5q0 89 -187 113l88 176h119l-53 -109q178 -38 178 -176z"/>
<glyph glyph-name="scedilla" horiz-adv-x="981" unicode="ş" d="M889 303q0 -154 -115 -238.5t-323 -84.5q-217 0 -345 69v164q181 -88 349 -88q136 0 198 44t62 118q0 65 -59.5 110t-211.5 103q-155 60 -218 102.5t-92.5 95.5t-29.5 129q0 135 110 213t302 78q187 0 350 -74l-61 -143q-167 70 -301 70q-112 0 -170 -35.5t-58 -97.5 q0 -60 50 -99.5t233 -109.5q137 -51 202.5 -95t96.5 -99t31 -132zM655 -285q0 -99 -75.5 -153t-227.5 -54q-65 0 -102 11v112q36 -10 108 -10q75 0 113.5 19.5t38.5 70.5q0 89 -187 113l88 176h119l-53 -109q178 -38 178 -176z"/>
<glyph glyph-name="Scaron" horiz-adv-x="1124" unicode="Š" d="M1028 391q0 -191 -138 -301t-384 -110q-260 0 -402 69v176q93 -40 203.5 -63t206.5 -23q164 0 247 63t83 173q0 73 -30 120t-100.5 88t-213.5 93q-203 74 -290 174.5t-87 259.5q0 171 128.5 272t338.5 101q219 0 403 -82l-57 -158q-188 78 -350 78q-130 0 -203.5 -56 t-73.5 -157q0 -72 28.5 -119.5t92 -86.5t199.5 -89q163 -60 243 -116.5t118 -130t38 -175.5zM234 1907h123q114 -74 219 -189q126 126 223 189h127v-27q-205 -205 -256 -301h-184q-60 102 -252 301v27z"/>
<glyph glyph-name="scaron" horiz-adv-x="981" unicode="š" d="M889 303q0 -154 -115 -238.5t-323 -84.5q-217 0 -345 69v164q181 -88 349 -88q136 0 198 44t62 118q0 65 -59.5 110t-211.5 103q-155 60 -218 102.5t-92.5 95.5t-29.5 129q0 135 110 213t302 78q187 0 350 -74l-61 -143q-167 70 -301 70q-112 0 -170 -35.5t-58 -97.5 q0 -60 50 -99.5t233 -109.5q137 -51 202.5 -95t96.5 -99t31 -132zM169 1569h123q114 -74 219 -189q126 126 223 189h127v-27q-205 -205 -256 -301h-184q-60 102 -252 301v27z"/>
<glyph glyph-name="Tcommaaccent" horiz-adv-x="1139" unicode="Ţ" d="M662 0h-185v1300h-457v162h1096v-162h-454v-1300zM760 -285q0 -99 -75.5 -153t-227.5 -54q-65 0 -102 11v112q36 -10 108 -10q75 0 113.5 19.5t38.5 70.5q0 89 -187 113l88 176h119l-53 -109q178 -38 178 -176z"/>
<glyph glyph-name="tcommaaccent" horiz-adv-x="739" unicode="ţ" d="M541 127q35 0 82 7t71 16v-138q-25 -11 -77.5 -21.5t-106.5 -10.5q-322 0 -322 339v639h-155v86l157 72l72 234h107v-252h317v-140h-317v-634q0 -95 45.5 -146t126.5 -51zM639 -285q0 -99 -75.5 -153t-227.5 -54q-65 0 -102 11v112q36 -10 108 -10q75 0 113.5 19.5 t38.5 70.5q0 89 -187 113l88 176h119l-53 -109q178 -38 178 -176z"/>
<glyph glyph-name="Tcaron" horiz-adv-x="1139" unicode="Ť" d="M662 0h-185v1300h-457v162h1096v-162h-454v-1300zM226 1907h123q114 -74 219 -189q126 126 223 189h127v-27q-205 -205 -256 -301h-184q-60 102 -252 301v27z"/>
<glyph glyph-name="tcaron" horiz-adv-x="739" unicode="ť" d="M541 127q35 0 82 7t71 16v-138q-25 -11 -77.5 -21.5t-106.5 -10.5q-322 0 -322 339v639h-155v86l157 72l72 234h107v-252h317v-140h-317v-634q0 -95 45.5 -146t126.5 -51zM504 1253q23 66 42.5 159t25.5 144h178v-18q-13 -53 -56 -145t-92 -164h-98v24z"/>
<glyph glyph-name="Tbar" horiz-adv-x="1139" unicode="Ŧ" d="M475 817v481h-455v164h1096v-164h-457v-481h304v-151h-304v-666h-184v666h-305v151h305z"/>
<glyph glyph-name="tbar" horiz-adv-x="739" unicode="ŧ" d="M545 127q85 0 149 23v-138q-26 -12 -79.5 -22t-110.5 -10q-316 0 -316 350v243h-139v136h139v249h-155v86l157 72l72 234h107v-252h317v-140h-317v-249h299v-136h-299v-233q0 -106 42.5 -159.5t133.5 -53.5z"/>
<glyph glyph-name="Utilde" horiz-adv-x="1497" unicode="Ũ" d="M1311 1462v-946q0 -250 -151 -393t-419 -143q-265 0 -411 144.5t-146 395.5v942h185v-948q0 -179 95.5 -277t287.5 -98q181 0 278.5 97t97.5 280v946h183zM901 1581q-43 0 -84 18.5t-80.5 40t-76 40t-70.5 18.5q-49 0 -74 -29.5t-39 -89.5h-104q12 122 70 192t155 70 q45 0 87.5 -18.5t81.5 -40t75 -40t68 -18.5q48 0 72.5 29.5t39.5 89.5h103q-12 -119 -70 -190.5t-154 -71.5z"/>
<glyph glyph-name="utilde" horiz-adv-x="1266" unicode="ũ" d="M344 1098v-707q0 -133 59.5 -197.5t184.5 -64.5q169 0 246 94t77 303v572h181v-1098h-148l-26 145h-9q-49 -79 -139 -122t-209 -43q-198 0 -298.5 95t-100.5 304v719h182zM783 1243q-43 0 -84 18.5t-80.5 40t-76 40t-70.5 18.5q-49 0 -74 -29.5t-39 -89.5h-104 q12 122 70 192t155 70q45 0 87.5 -18.5t81.5 -40t75 -40t68 -18.5q48 0 72.5 29.5t39.5 89.5h103q-12 -119 -70 -190.5t-154 -71.5z"/>
<glyph glyph-name="Umacron" horiz-adv-x="1497" unicode="Ū" d="M1311 1462v-946q0 -250 -151 -393t-419 -143q-265 0 -411 144.5t-146 395.5v942h185v-948q0 -179 95.5 -277t287.5 -98q181 0 278.5 97t97.5 280v946h183zM444 1724h608v-145h-608v145z"/>
<glyph glyph-name="umacron" horiz-adv-x="1266" unicode="ū" d="M344 1098v-707q0 -133 59.5 -197.5t184.5 -64.5q169 0 246 94t77 303v572h181v-1098h-148l-26 145h-9q-49 -79 -139 -122t-209 -43q-198 0 -298.5 95t-100.5 304v719h182zM326 1386h608v-145h-608v145z"/>
<glyph glyph-name="Ubreve" horiz-adv-x="1497" unicode="Ŭ" d="M1311 1462v-946q0 -250 -151 -393t-419 -143q-265 0 -411 144.5t-146 395.5v942h185v-948q0 -179 95.5 -277t287.5 -98q181 0 278.5 97t97.5 280v946h183zM739 1579q-141 0 -222.5 69t-90.5 206h110q8 -71 50 -100.5t157 -29.5q101 0 150 31.5t57 98.5h113 q-13 -131 -99 -203t-225 -72z"/>
<glyph glyph-name="ubreve" horiz-adv-x="1266" unicode="ŭ" d="M344 1098v-707q0 -133 59.5 -197.5t184.5 -64.5q169 0 246 94t77 303v572h181v-1098h-148l-26 145h-9q-49 -79 -139 -122t-209 -43q-198 0 -298.5 95t-100.5 304v719h182zM620 1241q-141 0 -222.5 69t-90.5 206h110q8 -71 50 -100.5t157 -29.5q101 0 150 31.5t57 98.5 h113q-13 -131 -99 -203t-225 -72z"/>
<glyph glyph-name="Uring" horiz-adv-x="1497" unicode="Ů" d="M1311 1462v-946q0 -250 -151 -393t-419 -143q-265 0 -411 144.5t-146 395.5v942h185v-948q0 -179 95.5 -277t287.5 -98q181 0 278.5 97t97.5 280v946h183zM860 1796q0 54 -32.5 84.5t-81.5 30.5q-50 0 -82.5 -30.5t-32.5 -84.5t29.5 -84.5t85.5 -30.5q51 0 82.5 30.5 t31.5 84.5zM973 1798q0 -101 -62.5 -160t-164.5 -59q-103 0 -163 58.5t-60 158.5q0 98 60 156.5t163 58.5q101 0 164 -59t63 -154z"/>
<glyph glyph-name="uring" horiz-adv-x="1266" unicode="ů" d="M344 1098v-707q0 -133 59.5 -197.5t184.5 -64.5q169 0 246 94t77 303v572h181v-1098h-148l-26 145h-9q-49 -79 -139 -122t-209 -43q-198 0 -298.5 95t-100.5 304v719h182zM741 1458q0 54 -32.5 84.5t-81.5 30.5q-50 0 -82.5 -30.5t-32.5 -84.5t29.5 -84.5t85.5 -30.5 q51 0 82.5 30.5t31.5 84.5zM854 1460q0 -101 -62.5 -160t-164.5 -59q-103 0 -163 58.5t-60 158.5q0 98 60 156.5t163 58.5q101 0 164 -59t63 -154z"/>
<glyph glyph-name="Uhungarumlaut" horiz-adv-x="1497" unicode="Ű" d="M1311 1462v-946q0 -250 -151 -393t-419 -143q-265 0 -411 144.5t-146 395.5v942h185v-948q0 -179 95.5 -277t287.5 -98q181 0 278.5 97t97.5 280v946h183zM813 1604q47 65 100 156t78 147h196v-21q-33 -56 -119.5 -154t-152.5 -153h-102v25zM452 1604q35 46 87 134.5 t91 168.5h197v-21q-33 -56 -119.5 -154t-152.5 -153h-103v25z"/>
<glyph glyph-name="uhungarumlaut" horiz-adv-x="1266" unicode="ű" d="M344 1098v-707q0 -133 59.5 -197.5t184.5 -64.5q169 0 246 94t77 303v572h181v-1098h-148l-26 145h-9q-49 -79 -139 -122t-209 -43q-198 0 -298.5 95t-100.5 304v719h182zM697 1266q47 65 100 156t78 147h196v-21q-33 -56 -119.5 -154t-152.5 -153h-102v25zM336 1266 q35 46 87 134.5t91 168.5h197v-21q-33 -56 -119.5 -154t-152.5 -153h-103v25z"/>
<glyph glyph-name="Uogonek" horiz-adv-x="1497" unicode="Ų" d="M1311 1462v-946q0 -250 -151 -393t-419 -143q-265 0 -411 144.5t-146 395.5v942h185v-948q0 -179 95.5 -277t287.5 -98q181 0 278.5 97t97.5 280v946h183zM729 -238q0 -46 24.5 -69t67.5 -23q44 0 99 13v-115q-69 -19 -127 -19q-211 0 -211 193q0 139 160 258h127 q-70 -66 -105 -120.5t-35 -117.5z"/>
<glyph glyph-name="uogonek" horiz-adv-x="1266" unicode="ų" d="M344 1098v-707q0 -133 59.5 -197.5t184.5 -64.5q169 0 246 94t77 303v572h181v-1098h-148l-26 145h-9q-49 -79 -139 -122t-209 -43q-198 0 -298.5 95t-100.5 304v719h182zM938 -238q0 -46 24.5 -69t67.5 -23q44 0 99 13v-115q-69 -19 -127 -19q-211 0 -211 193 q0 139 160 258h127q-70 -66 -105 -120.5t-35 -117.5z"/>
<glyph glyph-name="Wcircumflex" horiz-adv-x="1905" unicode="Ŵ" d="M1489 0h-186l-285 958q-63 214 -74 289q-16 -115 -70 -295l-276 -952h-186l-387 1462h192l227 -893q46 -175 70 -348q22 164 78 359l258 882h190l269 -889q52 -173 80 -352q16 138 71 350l226 891h192zM602 1602q125 134 176.5 198t75.5 107h184q52 -101 256 -305v-23 h-127q-90 53 -223 184q-131 -128 -219 -184h-123v23z"/>
<glyph glyph-name="wcircumflex" horiz-adv-x="1610" unicode="ŵ" d="M1071 0l-188 618q-26 77 -76 291h-8q-42 -195 -74 -293l-197 -616h-204l-301 1098h186q104 -405 158.5 -616t64.5 -298h8l14 62q31 143 60 233l195 619h196l189 -619q10 -35 21.5 -74.5t21.5 -78t18 -75t12 -65.5h9q9 76 73 326l154 586h184l-305 -1098h-211zM459 1264 q125 134 176.5 198t75.5 107h184q52 -101 256 -305v-23h-127q-90 53 -223 184q-131 -128 -219 -184h-123v23z"/>
<glyph glyph-name="Ycircumflex" horiz-adv-x="1159" unicode="Ŷ" d="M580 743l381 719h198l-487 -895v-567h-185v559l-487 903h201zM234 1602q125 134 176.5 198t75.5 107h184q52 -101 256 -305v-23h-127q-90 53 -223 184q-131 -128 -219 -184h-123v23z"/>
<glyph glyph-name="ycircumflex" horiz-adv-x="1044" unicode="ŷ" d="M2 1098h193l237 -625q75 -204 92 -299h8q9 37 41 138.5t54 162.5l223 623h194l-473 -1250q-69 -182 -164 -261t-235 -79q-75 0 -149 17v143q50 -12 120 -12q86 0 146 47.5t98 146.5l57 146zM183 1264q125 134 176.5 198t75.5 107h184q52 -101 256 -305v-23h-127 q-90 53 -223 184q-131 -128 -219 -184h-123v23z"/>
<glyph glyph-name="Ydieresis" horiz-adv-x="1159" unicode="Ÿ" d="M580 743l381 719h198l-487 -895v-567h-185v559l-487 903h201zM679 1733q0 53 28 76.5t66 23.5q39 0 68 -23.5t29 -76.5t-29 -78t-68 -25q-38 0 -66 25t-28 78zM294 1733q0 53 28 76.5t68 23.5q39 0 68 -23.5t29 -76.5t-29 -78t-68 -25q-40 0 -68 25t-28 78z"/>
<glyph glyph-name="Zacute" horiz-adv-x="1171" unicode="Ź" d="M1092 0h-1014v139l770 1159h-746v164h969v-139l-770 -1159h791v-164zM453 1604q38 48 96.5 136.5t98.5 166.5h217v-21q-44 -64 -137 -161t-156 -146h-119v25z"/>
<glyph glyph-name="zacute" horiz-adv-x="963" unicode="ź" d="M883 0h-803v119l590 839h-555v140h753v-135l-581 -824h596v-139zM370 1266q38 48 96.5 136.5t98.5 166.5h217v-21q-44 -64 -137 -161t-156 -146h-119v25z"/>
<glyph glyph-name="Zdotaccent" horiz-adv-x="1171" unicode="Ż" d="M1092 0h-1014v139l770 1159h-746v164h969v-139l-770 -1159h791v-164zM477 1733q0 60 30.5 87t75.5 27q42 0 73.5 -27t31.5 -87q0 -59 -31.5 -87t-73.5 -28q-45 0 -75.5 28t-30.5 87z"/>
<glyph glyph-name="zdotaccent" horiz-adv-x="963" unicode="ż" d="M883 0h-803v119l590 839h-555v140h753v-135l-581 -824h596v-139zM379 1395q0 60 30.5 87t75.5 27q42 0 73.5 -27t31.5 -87q0 -59 -31.5 -87t-73.5 -28q-45 0 -75.5 28t-30.5 87z"/>
<glyph glyph-name="Zcaron" horiz-adv-x="1171" unicode="Ž" d="M1092 0h-1014v139l770 1159h-746v164h969v-139l-770 -1159h791v-164zM243 1907h123q114 -74 219 -189q126 126 223 189h127v-27q-205 -205 -256 -301h-184q-60 102 -252 301v27z"/>
<glyph glyph-name="zcaron" horiz-adv-x="963" unicode="ž" d="M883 0h-803v119l590 839h-555v140h753v-135l-581 -824h596v-139zM140 1569h123q114 -74 219 -189q126 126 223 189h127v-27q-205 -205 -256 -301h-184q-60 102 -252 301v27z"/>
<glyph glyph-name="longs" horiz-adv-x="668" unicode="ſ" d="M535 1417q-94 0 -137.5 -58.5t-43.5 -176.5v-1182h-180v1182q0 385 363 385q100 0 204 -39l-47 -142q-90 31 -159 31z"/>
<glyph glyph-name="uni0180" horiz-adv-x="1260" unicode="ƀ" d="M664 967q-166 0 -238 -94t-72 -318v-8q0 -225 73.5 -321.5t240.5 -96.5q148 0 220.5 108.5t72.5 313.5q0 208 -73 312t-224 104zM694 1116q217 0 335 -149.5t118 -417.5q0 -272 -120 -420.5t-333 -148.5q-111 0 -198 40t-142 119h-14q-31 -120 -37 -139h-129v1239h-156 v135h156v182h180v-182h437v-135h-437v-61q0 -113 -10 -226h10q111 164 340 164z"/>
<glyph glyph-name="uni0181" horiz-adv-x="1495" unicode="Ɓ" d="M547 686v-530h295q176 0 261 68t85 206q0 131 -90 193.5t-271 62.5h-280zM547 840h270q172 0 250 55t78 184q0 120 -85.5 173t-271.5 53h-241v-465zM309 1305q-125 0 -125 -103q0 -61 21 -110h-162q-9 21 -16 54t-7 58q0 133 70.5 195.5t218.5 62.5h471 q294 0 424.5 -87.5t130.5 -274.5q0 -130 -71 -214.5t-207 -109.5v-10q167 -29 247 -116.5t80 -233.5q0 -197 -134.5 -306.5t-372.5 -109.5h-515v1305h-53z"/>
<glyph glyph-name="uni0182" horiz-adv-x="1260" unicode="Ƃ" d="M383 158h225q188 0 272.5 63.5t84.5 206.5q0 140 -88 198t-299 58h-195v-526zM1155 428q0 -216 -130 -322t-398 -106h-428v1462h868v-162h-684v-456h217q280 0 417.5 -99t137.5 -317z"/>
<glyph glyph-name="uni0183" horiz-adv-x="1260" unicode="ƃ" d="M664 967q-166 0 -238 -94t-72 -318v-8q0 -225 73.5 -321.5t240.5 -96.5q148 0 220.5 108.5t72.5 313.5q0 208 -73 312t-224 104zM694 1116q217 0 335 -149.5t118 -417.5q0 -272 -120 -420.5t-333 -148.5q-111 0 -198 40t-142 119h-14q-31 -120 -37 -139h-129v1556h862 v-151h-682v-227q0 -113 -10 -226h10q111 164 340 164z"/>
<glyph glyph-name="uni0184" horiz-adv-x="1300" unicode="Ƅ" d="M184 1462h185v-618h274q265 0 409 -108.5t144 -315.5t-130.5 -323.5t-367.5 -116.5q-514 0 -514 450v1032zM369 430q0 -158 76.5 -225.5t250.5 -67.5q163 0 236.5 73t73.5 210q0 141 -98.5 202.5t-286.5 61.5h-252v-254z"/>
<glyph glyph-name="uni0185" horiz-adv-x="1253" unicode="ƅ" d="M348 543q0 -196 83.5 -305t230.5 -109t219.5 109t72.5 313q0 208 -72.5 312t-224.5 104q-165 0 -237 -94.5t-72 -317.5v-12zM659 -20q-235 0 -363 148t-128 419v1009h180v-378q0 -113 -10 -226h10q111 164 340 164q217 0 335 -149.5t118 -417.5q0 -274 -125.5 -421.5 t-356.5 -147.5z"/>
<glyph glyph-name="uni0186" horiz-adv-x="1294" unicode="Ɔ" d="M498 1483q324 0 497.5 -197t173.5 -557q0 -225 -81 -394.5t-234.5 -262t-355.5 -92.5q-113 0 -201.5 13t-175.5 46v160q193 -58 348 -58q236 0 371 158t135 432q0 281 -130.5 435.5t-375.5 154.5q-157 0 -332 -80l-74 156q172 86 435 86z"/>
<glyph glyph-name="uni0187" horiz-adv-x="1294" unicode="Ƈ" d="M825 1321q-236 0 -371 -158t-135 -432q0 -283 131 -436.5t373 -153.5q156 0 351 58v-160q-93 -34 -179 -46.5t-198 -12.5q-323 0 -497.5 196.5t-174.5 556.5q0 226 83.5 396t243 262t375.5 92q124 0 240 -29v29q0 132 55 203t181 71q61 0 122 -26v-148q-49 21 -106 21 q-96 0 -96 -99v-104l-74 -160q-68 31 -147 55.5t-177 24.5z"/>
<glyph glyph-name="uni0188" horiz-adv-x="1030" unicode="ƈ" d="M614 -20q-237 0 -369 145.5t-132 417.5q0 276 133.5 425.5t380.5 149.5q56 0 133 -12v186q0 132 54.5 203.5t180.5 71.5q60 0 123 -27v-149q-47 20 -106 20q-97 0 -97 -98v-254l-55 -150q-139 52 -237 52q-166 0 -245 -104.5t-79 -311.5q0 -199 79 -304.5t234 -105.5 q145 0 285 64v-160q-114 -59 -283 -59z"/>
<glyph glyph-name="uni0189" horiz-adv-x="1495" unicode="Ɖ" d="M1176 739q0 280 -139 423t-414 143h-226v-502h365v-160h-365v-485h185q594 0 594 581zM1370 745q0 -359 -196.5 -552t-569.5 -193h-391v643h-152v160h152v659h436q341 0 531 -188.5t190 -528.5z"/>
<glyph glyph-name="uni018A" horiz-adv-x="1659" unicode="Ɗ" d="M813 1462q344 0 532.5 -189.5t188.5 -527.5q0 -362 -197.5 -553.5t-566.5 -191.5h-408v1305h-53q-125 0 -125 -103q0 -61 21 -110h-162q-9 21 -16 54t-7 58q0 133 70.5 195.5t218.5 62.5h504zM1339 739q0 279 -137.5 422.5t-415.5 143.5h-239v-1147h198q594 0 594 581z "/>
<glyph glyph-name="uni018B" horiz-adv-x="1260" unicode="Ƌ" d="M1061 1462v-1462h-408q-549 0 -549 406q0 210 151 324t433 114h189v456h-684v162h868zM877 686h-168q-217 0 -315.5 -65t-98.5 -207q0 -129 90.5 -192.5t284.5 -63.5h207v528z"/>
<glyph glyph-name="uni018C" horiz-adv-x="1260" unicode="ƌ" d="M1085 0h-145l-27 147h-8q-115 -167 -342 -167q-214 0 -332 148t-118 419q0 269 118.5 420t333.5 151q221 0 340 -162h13q-3 20 -8 80.5t-5 81.5v287h-682v151h862v-1556zM592 129q164 0 239.5 89.5t75.5 293.5v33q0 229 -76.5 326.5t-240.5 97.5q-139 0 -215 -110.5 t-76 -315.5q0 -204 75.5 -309t217.5 -105z"/>
<glyph glyph-name="uni018D" horiz-adv-x="1237" unicode="ƍ" d="M297 1055q0 -126 61.5 -216t196.5 -159q189 45 286 152t97 268q0 138 -85 222.5t-230 84.5q-158 0 -242 -90.5t-84 -261.5zM698 602q136 -77 195 -157t59 -179q0 -132 -98 -209t-270 -77q-104 0 -199 23t-223 87l78 141q76 -43 162 -73.5t190 -30.5q82 0 130 38t48 103 q0 69 -54.5 122.5t-219.5 144.5q-213 117 -299 239t-86 279q0 236 135 369.5t377 133.5q229 0 366 -124t137 -334q0 -179 -111 -307t-317 -189z"/>
<glyph glyph-name="uni018E" horiz-adv-x="1139" unicode="Ǝ" d="M123 162h633v522h-596v160h596v456h-633v162h817v-1462h-817v162z"/>
<glyph glyph-name="uni018F" horiz-adv-x="1513" unicode="Ə" d="M727 141q205 0 327 130.5t138 367.5h-875q0 -255 100.5 -376.5t309.5 -121.5zM680 1323q-225 0 -467 -84v168q125 44 234 61t237 17q332 0 517 -200t185 -556q0 -350 -173.5 -549.5t-485.5 -199.5q-301 0 -453.5 188.5t-152.5 562.5v70h1071q-17 259 -146 390.5 t-366 131.5z"/>
<glyph glyph-name="uni0190" horiz-adv-x="1204" unicode="Ɛ" d="M178 1120q0 167 124.5 265t340.5 98q132 0 254.5 -38.5t222.5 -113.5l-88 -125q-107 73 -193 99t-192 26q-130 0 -204 -62.5t-74 -166.5q0 -123 98.5 -195.5t296.5 -72.5h199v-154h-209q-225 0 -338 -67.5t-113 -198.5q0 -137 99 -210t286 -73q215 0 438 107v-168 q-184 -90 -448 -90q-276 0 -421.5 106t-145.5 313q0 156 95.5 248t280.5 117v8q-147 25 -228 115.5t-81 232.5z"/>
<glyph glyph-name="uni0191" horiz-adv-x="1063" unicode="Ƒ" d="M92 -492q-66 0 -115 27v156q42 -21 93 -21q72 0 100.5 41.5t28.5 126.5v1624h817v-162h-633v-518h594v-161h-594v-791q0 -322 -291 -322z"/>
<glyph glyph-name="florin" horiz-adv-x="1171" unicode="ƒ" d="M330 -492q-73 0 -140 19v149q70 -18 129 -18q92 0 130 48t38 163v962h-215v84l215 62v133q0 193 81 283t266 90q93 0 210 -43l-45 -140q-102 33 -159 33q-94 0 -133 -50t-39 -171v-141h276v-140h-272v-962q0 -187 -82 -274t-260 -87z"/>
<glyph glyph-name="uni0193" horiz-adv-x="1491" unicode="Ɠ" d="M834 772h505v-717q-116 -37 -236 -56t-278 -19q-334 0 -517 198t-183 553q0 229 91 400t262.5 261.5t404.5 90.5q146 0 280 -35v35q0 132 55 203t181 71q59 0 123 -26v-148q-49 21 -107 21q-96 0 -96 -99v-108l-70 -160q-193 84 -377 84q-261 0 -408 -158t-147 -432 q0 -290 141 -441t410 -151q147 0 287 35v434h-321v164z"/>
<glyph glyph-name="uni0194" horiz-adv-x="1167" unicode="Ɣ" d="M653 -215q0 54 -17.5 127.5t-51.5 138.5q-39 -77 -54.5 -147t-15.5 -115q0 -63 19.5 -92t50.5 -29q69 0 69 117zM684 221q68 -134 102.5 -248.5t34.5 -191.5q0 -121 -65.5 -197t-171.5 -76q-110 0 -174 77.5t-64 195.5q0 159 137 438l-483 1243h193q183 -486 279.5 -742 t111.5 -341q20 104 102 323l287 760h194z"/>
<glyph glyph-name="uni0195" horiz-adv-x="1913" unicode="ƕ" d="M1309 129q137 0 197.5 73.5t60.5 231.5v664h180v-670q0 -234 -104 -341t-334 -107q-226 0 -332.5 99.5t-106.5 301.5v321q0 134 -53.5 199.5t-169.5 65.5q-152 0 -222.5 -93.5t-70.5 -306.5v-567h-180v1556h180v-456q0 -90 -10 -154h12q50 85 135.5 127.5t184.5 42.5 q186 0 280.5 -95.5t94.5 -305.5v-322q0 -133 62.5 -198.5t195.5 -65.5z"/>
<glyph glyph-name="uni0196" horiz-adv-x="713" unicode="Ɩ" d="M367 1462v-1124q0 -99 37 -148t120 -49q44 0 91 7t77 16v-152q-26 -12 -82 -22t-112 -10q-164 0 -239 84.5t-75 257.5v1140h183z"/>
<glyph glyph-name="uni0197" horiz-adv-x="694" unicode="Ɨ" d="M610 0h-528v106l172 39v525h-184v159h184v486l-172 41v106h528v-106l-172 -41v-486h185v-159h-185v-525l172 -39v-106z"/>
<glyph glyph-name="uni0198" horiz-adv-x="1268" unicode="Ƙ" d="M670 829l598 -829h-217q-61 81 -248 353q-146 211 -258 347l-162 -157v-543h-184v1462h184v-737q57 72 123 148q44 50 379 460q59 77 111.5 109.5t136.5 32.5q62 0 102 -17v-143q-42 6 -90 6q-34 0 -64 -20t-75 -74z"/>
<glyph glyph-name="uni0199" horiz-adv-x="1094" unicode="ƙ" d="M352 743l-8 -178h8l61 78l70 84l351 371h210l-444 -469l475 -629h-217l-381 512l-125 -109v-403h-178v1280q0 287 248 287q67 0 133 -27v-149q-47 20 -106 20q-47 0 -72 -27t-25 -92v-549z"/>
<glyph glyph-name="uni019A" horiz-adv-x="528" unicode="ƚ" d="M354 860h144v-135h-144v-725h-180v725h-143v135h143v696h180v-696z"/>
<glyph glyph-name="uni019B" horiz-adv-x="1110" unicode="ƛ" d="M-12 0l473 1077l-47 131l-217 -65l-39 129l202 61q-26 46 -60 66t-93 20q-62 0 -115 -12v145q68 17 135 17q109 0 178.5 -43t120.5 -142l224 68l38 -129l-208 -66l366 -1019q20 -57 43.5 -84t59.5 -27q24 0 61 10v-133q-50 -24 -117 -24q-74 0 -119 37t-77 128l-150 420 q-85 243 -102 326h-8q-33 -126 -113 -316l-250 -575h-186z"/>
<glyph glyph-name="uni019C" horiz-adv-x="2109" unicode="Ɯ" d="M369 1462v-1036q0 -143 59 -215t188 -72q173 0 255.5 96.5t82.5 301.5v925h185v-1036q0 -143 59.5 -215t192.5 -72q172 0 252.5 102t80.5 337v884h185v-1462h-146l-30 168h-11q-51 -87 -151 -137.5t-219 -50.5q-139 0 -226.5 50t-132.5 154h-10q-58 -98 -163.5 -151 t-231.5 -53q-211 0 -307.5 108t-96.5 338v1036h185z"/>
<glyph glyph-name="uni019D" horiz-adv-x="1556" unicode="Ɲ" d="M199 1462h213l45 -71l480 -742l255 -397h8q-2 24 -8 171.5t-6 213.5v825h172v-1462h-215l-783 1214h-8l5 -81q12 -182 12 -316v-987q0 -169 -69.5 -245.5t-207.5 -76.5q-66 0 -115 27v156q42 -21 93 -21q72 0 100.5 41.5t28.5 126.5v1624z"/>
<glyph glyph-name="uni019E" horiz-adv-x="1266" unicode="ƞ" d="M922 -492v1194q0 132 -59 198.5t-187 66.5q-169 0 -245.5 -95.5t-76.5 -302.5v-569h-180v1098h145l27 -150h10q51 81 143 125.5t203 44.5q202 0 300 -98t98 -305v-1207h-178z"/>
<glyph glyph-name="uni019F" horiz-adv-x="1602" unicode="Ɵ" d="M803 1323q-218 0 -340 -125.5t-141 -372.5h954q-19 248 -138.5 373t-334.5 125zM801 139q222 0 343.5 133.5t133.5 393.5h-956q13 -260 134.5 -393.5t344.5 -133.5zM1475 733q0 -351 -177.5 -552t-496.5 -201q-323 0 -499.5 197.5t-176.5 557.5q0 357 175.5 553.5 t502.5 196.5q318 0 495 -199.5t177 -552.5z"/>
<glyph glyph-name="Ohorn" horiz-adv-x="1606" unicode="Ơ" d="M319 733q0 -291 122 -442.5t360 -151.5q237 0 357 149.5t120 444.5q0 292 -119.5 441t-355.5 149q-241 0 -362.5 -151t-121.5 -439zM1473 733q0 -354 -177.5 -553.5t-494.5 -199.5q-323 0 -499.5 196.5t-176.5 558.5q0 360 176.5 555t501.5 195t506 -213q68 19 99.5 81 t31.5 203h194l15 -22q-31 -160 -98 -247t-171 -126q93 -174 93 -428z"/>
<glyph glyph-name="ohorn" horiz-adv-x="1262" unicode="ơ" d="M299 551q0 -216 79 -319t243 -103q169 0 245 107t76 315q0 205 -77.5 310.5t-246.5 105.5t-244 -105.5t-75 -310.5zM1128 551q0 -269 -136 -420t-376 -151q-149 0 -264 69.5t-177 199.5t-62 302q0 268 134 417.5t376 149.5q108 0 199 -36.5t157 -104.5q50 15 79.5 48.5 t43.5 84t14 156.5h193l14 -23q-32 -161 -95 -248.5t-169 -126.5q69 -140 69 -317z"/>
<glyph glyph-name="uni01A2" horiz-adv-x="2202" unicode="Ƣ" d="M319 733q0 -290 114.5 -442t334.5 -152q219 0 332.5 150t113.5 444q0 293 -112.5 441.5t-331.5 148.5q-222 0 -336.5 -150.5t-114.5 -439.5zM1409 733q0 -354 -169 -553.5t-472 -199.5q-307 0 -475 197t-168 558q0 357 167.5 553.5t477.5 196.5q291 0 459 -187 q57 88 159.5 137.5t225.5 49.5q209 0 306 -108t97 -339v-1038h-184v1038q0 144 -59 215.5t-189 71.5q-108 0 -177 -31t-108 -94q109 -189 109 -467z"/>
<glyph glyph-name="uni01A3" horiz-adv-x="1731" unicode="ƣ" d="M299 551q0 -207 75 -314.5t220 -107.5t221 107t76 315q0 206 -75.5 311t-221.5 105q-295 0 -295 -416zM1077 551q0 -270 -129.5 -420.5t-355.5 -150.5q-142 0 -251.5 69.5t-168.5 200.5t-59 301q0 267 127.5 417t355.5 150q217 0 346 -147q53 75 130.5 111t164.5 36 q164 0 246 -96t82 -307v-1207h-179v1199q0 260 -188 260q-130 0 -192 -90q71 -130 71 -326z"/>
<glyph glyph-name="uni01A4" horiz-adv-x="1403" unicode="Ƥ" d="M750 1462q548 0 548 -430q0 -223 -152 -343t-431 -120h-168v-569h-185v1305h-53q-125 0 -125 -103q0 -61 21 -110h-162q-9 21 -16 54t-7 58q0 133 70.5 195.5t218.5 62.5h441zM547 727h147q218 0 316 70.5t98 226.5q0 141 -91 211t-284 70h-186v-578z"/>
<glyph glyph-name="uni01A5" horiz-adv-x="1260" unicode="ƥ" d="M664 967q-163 0 -235.5 -92t-74.5 -289v-35q0 -223 74 -322.5t240 -99.5q138 0 215.5 112t77.5 312q0 201 -77.5 307.5t-219.5 106.5zM424 1567q67 0 133 -27v-149q-47 20 -106 20q-47 0 -72 -27t-25 -92v-164q0 -61 -8 -139l-4 -41h12q64 90 148 130t194 40 q214 0 332.5 -148.5t118.5 -418.5q0 -269 -119 -420t-334 -151q-221 0 -340 159h-12l4 -41q8 -78 8 -139v-451h-180l2 1772q0 287 248 287z"/>
<glyph glyph-name="uni01A6" horiz-adv-x="1274" unicode="Ʀ" d="M383 399v-399h-184v1462h184v-205h219q272 0 402.5 -103.5t130.5 -311.5q0 -290 -293 -391l401 -656h-215l-354 604h-291zM383 555h219q178 0 260 70t82 209q0 138 -83 201t-269 63h-209v-543z"/>
<glyph glyph-name="uni01A7" horiz-adv-x="1124" unicode="Ƨ" d="M96 391q0 99 41 172t125 130t254 120q140 52 202.5 90.5t90 86t27.5 118.5q0 101 -73.5 157t-203.5 56q-147 0 -315 -78l-58 158q175 82 369 82q209 0 338 -101t129 -272q0 -156 -85 -257.5t-292 -176.5q-159 -58 -230.5 -99t-102.5 -88t-31 -114q0 -110 82.5 -173 t246.5 -63q186 0 410 97v-177q-69 -34 -174 -56.5t-228 -22.5q-245 0 -383.5 110t-138.5 301z"/>
<glyph glyph-name="uni01A8" horiz-adv-x="981" unicode="ƨ" d="M92 303q0 76 31 131t95.5 99t203.5 96q181 69 232 108.5t51 100.5q0 62 -58 97.5t-170 35.5q-103 0 -270 -70l-62 143q165 74 320 74q201 0 306.5 -75t105.5 -216q0 -76 -29.5 -129t-92.5 -95.5t-218 -102.5q-108 -41 -165.5 -73t-81.5 -63.5t-24 -76.5q0 -80 65.5 -121 t194.5 -41q172 0 348 88v-164q-128 -69 -344 -69q-438 0 -438 323z"/>
<glyph glyph-name="uni01A9" horiz-adv-x="1167" unicode="Ʃ" d="M74 0v152l479 612l-467 545v153h973v-164h-666l-96 2l461 -534l-482 -606l334 2h508v-162h-1044z"/>
<glyph glyph-name="uni01AA" horiz-adv-x="633" unicode="ƪ" d="M129 1419q-44 0 -62 -24.5t-18 -55.5q0 -82 101 -82h79v27q0 72 -25 103.5t-75 31.5zM137 1110q-123 0 -187.5 60t-64.5 169q0 110 67 169t189 59q130 0 198.5 -74t68.5 -215v-1425q0 -100 37 -148.5t120 -48.5q39 0 89.5 6.5t78.5 15.5v-137q-31 -14 -85.5 -23.5 t-106.5 -9.5q-163 0 -237.5 84.5t-74.5 257.5v1260h-92z"/>
<glyph glyph-name="uni01AB" horiz-adv-x="739" unicode="ƫ" d="M455 -492q-60 0 -123 25v150q46 -19 102 -19q98 0 98 107v209h-22q-322 0 -322 339v639h-155v86l157 72l72 234h107v-252h317v-140h-317v-634q0 -95 45.5 -146t126.5 -51q35 0 82 7t71 16v-369q0 -273 -239 -273z"/>
<glyph glyph-name="uni01AC" horiz-adv-x="1180" unicode="Ƭ" d="M309 1300q-125 0 -125 -98q0 -61 21 -110h-162q-9 21 -16 54t-7 58q0 133 70.5 195.5t218.5 62.5h848v-162h-455v-1300h-184v1300h-209z"/>
<glyph glyph-name="uni01AD" horiz-adv-x="739" unicode="ƭ" d="M369 1098h317v-140h-317v-634q0 -95 45.5 -146t126.5 -51q35 0 82 7t71 16v-138q-25 -11 -77.5 -21.5t-106.5 -10.5q-322 0 -322 339v639h-155v86l157 72v135q0 316 302 316q79 0 157 -27v-149q-23 8 -70.5 14t-86.5 6q-65 0 -94 -35t-29 -104v-174z"/>
<glyph glyph-name="uni01AE" horiz-adv-x="1139" unicode="Ʈ" d="M477 1300h-457v162h1096v-162h-454v-1462q0 -87 29 -127.5t100 -40.5q50 0 92 21v-156q-49 -27 -129 -27q-139 0 -208 76.5t-69 245.5v1470z"/>
<glyph glyph-name="Uhorn" horiz-adv-x="1597" unicode="Ư" d="M1311 1462v-198q82 11 120.5 75.5t38.5 216.5h191l14 -22q-33 -185 -121 -278t-243 -119v-621q0 -256 -144.5 -396t-410.5 -140q-272 0 -422 144t-150 396v942h185v-950q0 -177 97 -275t294 -98q180 0 274 95t94 280v948h183z"/>
<glyph glyph-name="uhorn" horiz-adv-x="1380" unicode="ư" d="M344 1096v-705q0 -133 59.5 -197.5t184.5 -64.5q169 0 246 94t77 303v570h181v-121q80 13 116.5 77t36.5 216h191l14 -23q-32 -191 -120.5 -285.5t-237.5 -111.5v-848h-148l-26 145h-9q-50 -79 -139 -122t-205 -43q-201 0 -302 95t-101 304v717h182z"/>
<glyph glyph-name="uni01B1" horiz-adv-x="1602" unicode="Ʊ" d="M801 139q234 0 354.5 127.5t120.5 374.5q0 225 -83 386.5t-259 287.5v147h590v-162h-365q151 -116 231 -288t80 -377q0 -308 -177.5 -483t-491.5 -175q-318 0 -495 174t-177 482q0 205 80 379t229 288h-362v162h590v-147q-179 -128 -261.5 -291t-82.5 -383 q0 -246 121.5 -374t357.5 -128z"/>
<glyph glyph-name="uni01B2" horiz-adv-x="1229" unicode="Ʋ" d="M1169 1188q0 -109 -92 -322l-370 -866h-185l-522 1462h193l331 -954q63 -180 92 -320q17 61 55 149q43 102 66 167l174 416q74 181 74 256q0 80 -33 112.5t-96 32.5q-50 0 -92 -21v156q46 27 129 27q276 0 276 -295z"/>
<glyph glyph-name="uni01B3" horiz-adv-x="1159" unicode="Ƴ" d="M80 1329q-43 0 -80 -16v149q58 23 123 23q75 0 121 -35.5t84 -118.5l262 -588l371 719h198l-477 -895v-567h-184v559l-332 698q-36 72 -86 72z"/>
<glyph glyph-name="uni01B4" horiz-adv-x="1110" unicode="ƴ" d="M993 1118q67 0 117 -24v-133q-37 10 -61 10q-36 0 -58.5 -27t-44.5 -84l-375 -1012q-65 -179 -161.5 -259.5t-237.5 -80.5q-75 0 -149 17v143q50 -12 120 -12q174 0 248 194l53 146l-442 1102h193l237 -625q75 -204 92 -299h8q17 73 99 301l155 445q39 111 84.5 154.5 t122.5 43.5z"/>
<glyph glyph-name="uni01B5" horiz-adv-x="1171" unicode="Ƶ" d="M162 834h377l309 464h-746v164h969v-139l-326 -489h250v-146h-346l-348 -524h791v-164h-1014v139l364 549h-280v146z"/>
<glyph glyph-name="uni01B6" horiz-adv-x="963" unicode="ƶ" d="M117 641h329l224 317h-555v140h753v-135l-227 -322h207v-143h-309l-252 -359h596v-139h-803v119l266 379h-229v143z"/>
<glyph glyph-name="uni01B7" horiz-adv-x="1196" unicode="Ʒ" d="M596 901q139 -4 251 -61t174 -156.5t62 -230.5q0 -224 -155 -348.5t-434 -124.5q-259 0 -422 79v168q100 -48 213 -72t211 -24q199 0 297 84t98 240q0 142 -101 219.5t-294 77.5h-127v133l422 413h-678v164h909v-145z"/>
<glyph glyph-name="uni01B8" horiz-adv-x="1196" unicode="Ƹ" d="M174 1317v145h909v-164h-675l419 -413v-133h-159q-173 0 -268 -83t-95 -233q0 -145 101 -225t294 -80q100 0 212.5 24t211.5 72v-168q-92 -44 -201 -61.5t-245 -17.5q-179 0 -306 55.5t-193 157.5t-66 239q0 139 61.5 243.5t172.5 163t253 62.5z"/>
<glyph glyph-name="uni01B9" horiz-adv-x="1020" unicode="ƹ" d="M125 967v131h838v-152h-627l448 -497v-125h-120q-206 0 -310 -87t-104 -255q0 -146 96.5 -235t257.5 -89q204 0 387 86v-164q-140 -72 -401 -72q-232 0 -376 129.5t-144 339.5q0 216 131.5 344.5t371.5 145.5z"/>
<glyph glyph-name="uni01BA" horiz-adv-x="1020" unicode="ƺ" d="M442 -342q172 0 328 74v-164q-122 -60 -330 -60q-185 0 -284 64t-99 180q0 128 95 188t282 60q163 0 234 56t71 194q0 122 -91 179.5t-292 57.5h-120v125l374 334h-553v152h807v-131l-383 -336q212 -10 325.5 -105.5t113.5 -273.5q0 -195 -122 -298.5t-360 -103.5 q-108 0 -159.5 -21t-51.5 -77q0 -43 54.5 -68.5t160.5 -25.5z"/>
<glyph glyph-name="uni01BB" horiz-adv-x="1167" unicode="ƻ" d="M160 858h493q56 90 80.5 167.5t24.5 166.5q0 103 -61 160t-169 57q-93 0 -167.5 -34t-149.5 -101l-96 121q191 172 417 172q192 0 302 -99.5t110 -271.5q0 -86 -21.5 -166.5t-72.5 -171.5h205v-143h-295q-22 -33 -48 -66.5t-413 -496.5v-9h766v-143h-967v150l359 440 l96 125h-393v143z"/>
<glyph glyph-name="uni01BC" horiz-adv-x="1196" unicode="Ƽ" d="M459 1298v-395h86q158 0 281 -55t190 -157t67 -238q0 -224 -155 -348.5t-434 -124.5q-259 0 -422 79v168q100 -48 213 -72t211 -24q199 0 297 84t98 240q0 139 -96 218t-267 79h-254v546h-161v164h909v-164h-563z"/>
<glyph glyph-name="uni01BD" horiz-adv-x="1004" unicode="ƽ" d="M406 946v-239h47q219 0 338.5 -95t119.5 -278q0 -167 -124 -260.5t-345 -93.5q-242 0 -374 71v162q183 -86 372 -86q141 0 217 54.5t76 162.5q0 109 -77 162t-236 53h-195v387h-127v152h746v-152h-438z"/>
<glyph glyph-name="uni01BE" horiz-adv-x="948" unicode="ƾ" d="M279 774v184h-187v86l189 72l71 234h107v-252h317v-140h-317v-188q0 -69 21 -101.5t75 -50.5q169 -63 235 -136t66 -179q0 -154 -115 -238.5t-323 -84.5q-216 0 -344 69v164q176 -88 348 -88q136 0 198 44t62 118q0 60 -49.5 102t-183.5 96q-97 41 -133.5 107t-36.5 182z "/>
<glyph glyph-name="uni01BF" horiz-adv-x="1202" unicode="ƿ" d="M354 127q268 35 416 175t148 355q0 142 -74 226t-203 84q-149 0 -218 -90t-69 -291v-459zM354 -492h-180v1590h148l24 -150h8q112 170 324 170q196 0 311 -121t115 -335q0 -187 -93.5 -337.5t-266 -241t-390.5 -103.5v-472z"/>
<glyph glyph-name="uni01C0" horiz-adv-x="1057" unicode="ǀ" d="M608 -492h-159v2048h159v-2048z"/>
<glyph glyph-name="uni01C1" horiz-adv-x="1057" unicode="ǁ" d="M345 -492h-159v2048h159v-2048zM872 -492h-159v2048h159v-2048z"/>
<glyph glyph-name="uni01C2" horiz-adv-x="1057" unicode="ǂ" d="M133 823h316v733h159v-733h316v-147h-316v-254h316v-148h-316v-766h-159v766h-316v148h316v254h-316v147z"/>
<glyph glyph-name="uni01C3" horiz-adv-x="551" unicode="ǃ" d="M147 111q0 66 32.5 101.5t94.5 35.5t94.5 -36.5t32.5 -100.5t-33.5 -102t-93.5 -38q-61 0 -94 37t-33 103zM334 412h-117l-51 1050h219z"/>
<glyph glyph-name="uni01C4" horiz-adv-x="2646" unicode="Ǆ" d="M1176 739q0 279 -137.5 422.5t-415.5 143.5h-240v-1147h199q594 0 594 581zM1370 745q0 -362 -197.5 -553.5t-566.5 -191.5h-407v1462h450q341 0 531 -187.5t190 -529.5zM2567 0h-1014v139l770 1159h-746v164h969v-139l-770 -1159h791v-164zM1694 1907h123 q114 -74 219 -189q126 126 223 189h127v-27q-205 -205 -256 -301h-184q-60 102 -252 301v27z"/>
<glyph glyph-name="uni01C5" horiz-adv-x="2458" unicode="ǅ" d="M1176 739q0 279 -137.5 422.5t-415.5 143.5h-240v-1147h199q594 0 594 581zM1370 745q0 -362 -197.5 -553.5t-566.5 -191.5h-407v1462h450q341 0 531 -187.5t190 -529.5zM2378 0h-803v119l590 839h-555v140h753v-135l-581 -824h596v-139zM1638 1569h123q114 -74 219 -189 q126 126 223 189h127v-27q-205 -205 -256 -301h-184q-60 102 -252 301v27z"/>
<glyph glyph-name="uni01C6" horiz-adv-x="2222" unicode="ǆ" d="M592 129q164 0 239.5 89.5t75.5 293.5v33q0 229 -76.5 326.5t-240.5 97.5q-139 0 -215 -110.5t-76 -315.5q0 -204 75.5 -309t217.5 -105zM563 -20q-214 0 -332 148t-118 419q0 269 118.5 420t333.5 151q221 0 340 -162h13q-3 20 -8 80.5t-5 81.5v438h180v-1556h-145 l-27 147h-8q-115 -167 -342 -167zM2143 0h-803v119l590 839h-555v140h753v-135l-581 -824h596v-139zM1407 1569h123q114 -74 219 -189q126 126 223 189h127v-27q-205 -205 -256 -301h-184q-60 102 -252 301v27z"/>
<glyph glyph-name="uni01C7" horiz-adv-x="1632" unicode="Ǉ" d="M199 0v1462h184v-1298h639v-164h-823zM1065 -389q-94 0 -152 27v155q71 -20 148 -20q100 0 150 60.5t50 174.5v1454h185v-1439q0 -198 -98.5 -305t-282.5 -107z"/>
<glyph glyph-name="uni01C8" horiz-adv-x="1602" unicode="ǈ" d="M199 0v1462h184v-1298h639v-164h-823zM1233 1395q0 60 30.5 87t75.5 27q42 0 73.5 -27t31.5 -87q0 -59 -31.5 -87t-73.5 -28q-45 0 -75.5 28t-30.5 87zM1118 -492q-94 0 -158 25v145q69 -20 136 -20q78 0 114.5 42.5t36.5 129.5v1268h180v-1262q0 -164 -78.5 -246 t-230.5 -82z"/>
<glyph glyph-name="uni01C9" horiz-adv-x="1057" unicode="ǉ" d="M354 0h-180v1556h180v-1556zM688 1395q0 60 30.5 87t75.5 27q42 0 73.5 -27t31.5 -87q0 -59 -31.5 -87t-73.5 -28q-45 0 -75.5 28t-30.5 87zM573 -492q-94 0 -158 25v145q69 -20 136 -20q78 0 114.5 42.5t36.5 129.5v1268h180v-1262q0 -164 -78.5 -246t-230.5 -82z"/>
<glyph glyph-name="uni01CA" horiz-adv-x="2116" unicode="Ǌ" d="M1358 0h-215l-783 1214h-8l5 -81q12 -182 12 -316v-817h-170v1462h213l45 -71l480 -742l255 -397h8q-2 24 -8 171.5t-6 213.5v825h172v-1462zM1548 -389q-94 0 -152 27v155q71 -20 148 -20q100 0 150 60.5t50 174.5v1454h185v-1439q0 -198 -98.5 -305t-282.5 -107z"/>
<glyph glyph-name="uni01CB" horiz-adv-x="2085" unicode="ǋ" d="M1358 0h-215l-783 1214h-8l5 -81q12 -182 12 -316v-817h-170v1462h213l45 -71l480 -742l255 -397h8q-2 24 -8 171.5t-6 213.5v825h172v-1462zM1716 1395q0 60 30.5 87t75.5 27q42 0 73.5 -27t31.5 -87q0 -59 -31.5 -87t-73.5 -28q-45 0 -75.5 28t-30.5 87zM1601 -492 q-94 0 -158 25v145q69 -20 136 -20q78 0 114.5 42.5t36.5 129.5v1268h180v-1262q0 -164 -78.5 -246t-230.5 -82z"/>
<glyph glyph-name="uni01CC" horiz-adv-x="1794" unicode="ǌ" d="M922 0v702q0 134 -59.5 199.5t-186.5 65.5q-169 0 -245.5 -93.5t-76.5 -304.5v-569h-180v1098h145l27 -150h10q51 81 143 125.5t203 44.5q202 0 300 -98t98 -305v-715h-178zM1426 1395q0 60 30.5 87t75.5 27q42 0 73.5 -27t31.5 -87q0 -59 -31.5 -87t-73.5 -28 q-45 0 -75.5 28t-30.5 87zM1311 -492q-94 0 -158 25v145q69 -20 136 -20q78 0 114.5 42.5t36.5 129.5v1268h180v-1262q0 -164 -78.5 -246t-230.5 -82z"/>
<glyph glyph-name="uni01CD" horiz-adv-x="1309" unicode="Ǎ" d="M885 616l-164 443l-70 219q-30 -120 -63 -219l-166 -443h463zM1116 0l-176 453h-580l-174 -453h-186l571 1468h166l570 -1468h-191zM307 1934h123q114 -74 219 -189q126 126 223 189h127v-27q-205 -205 -256 -301h-184q-60 102 -252 301v27z"/>
<glyph glyph-name="uni01CE" horiz-adv-x="1149" unicode="ǎ" d="M481 125q151 0 237.5 81.5t86.5 231.5v99l-162 -7q-189 -7 -275.5 -60t-86.5 -167q0 -86 52.5 -132t147.5 -46zM852 0l-35 156h-8q-82 -103 -163.5 -139.5t-205.5 -36.5q-162 0 -254 85t-92 240q0 334 527 350l186 7v65q0 125 -54 184.5t-173 59.5q-87 0 -164.5 -26 t-145.5 -58l-55 135q83 44 181 69t194 25q199 0 296 -88t97 -280v-748h-131zM230 1569h123q114 -74 219 -189q126 126 223 189h127v-27q-205 -205 -256 -301h-184q-60 102 -252 301v27z"/>
<glyph glyph-name="uni01CF" horiz-adv-x="694" unicode="Ǐ" d="M610 0h-528v106l172 39v1170l-172 41v106h528v-106l-172 -41v-1170l172 -39v-106zM3 1934h123q114 -74 219 -189q126 126 223 189h127v-27q-205 -205 -256 -301h-184q-60 102 -252 301v27z"/>
<glyph glyph-name="uni01D0" horiz-adv-x="528" unicode="ǐ" d="M354 0h-180v1098h180v-1098zM-81 1569h123q114 -74 219 -189q126 126 223 189h127v-27q-205 -205 -256 -301h-184q-60 102 -252 301v27z"/>
<glyph glyph-name="uni01D1" horiz-adv-x="1599" unicode="Ǒ" d="M319 733q0 -290 123 -442t359 -152q235 0 357 150t122 444q0 293 -121 441.5t-356 148.5q-238 0 -361 -150.5t-123 -439.5zM1475 733q0 -351 -177.5 -552t-496.5 -201q-323 0 -499.5 197.5t-176.5 557.5q0 357 175.5 553.5t502.5 196.5q318 0 495 -199.5t177 -552.5z M453 1934h123q114 -74 219 -189q126 126 223 189h127v-27q-205 -205 -256 -301h-184q-60 102 -252 301v27z"/>
<glyph glyph-name="uni01D2" horiz-adv-x="1239" unicode="ǒ" d="M299 551q0 -207 81.5 -314.5t240.5 -107.5q157 0 239 107.5t82 314.5t-82.5 311.5t-241.5 104.5q-319 0 -319 -416zM1128 551q0 -269 -136 -420t-376 -151q-149 0 -264 69.5t-177 199.5t-62 302q0 268 134 417.5t376 149.5q232 0 368.5 -152.5t136.5 -414.5zM272 1569 h123q114 -74 219 -189q126 126 223 189h127v-27q-205 -205 -256 -301h-184q-60 102 -252 301v27z"/>
<glyph glyph-name="uni01D3" horiz-adv-x="1497" unicode="Ǔ" d="M1311 1462v-946q0 -250 -151 -393t-419 -143q-265 0 -411 144.5t-146 395.5v942h185v-948q0 -179 95.5 -277t287.5 -98q181 0 278.5 97t97.5 280v946h183zM401 1934h123q114 -74 219 -189q126 126 223 189h127v-27q-205 -205 -256 -301h-184q-60 102 -252 301v27z"/>
<glyph glyph-name="uni01D4" horiz-adv-x="1266" unicode="ǔ" d="M344 1098v-707q0 -133 59.5 -197.5t184.5 -64.5q169 0 246 94t77 303v572h181v-1098h-148l-26 145h-9q-49 -79 -139 -122t-209 -43q-198 0 -298.5 95t-100.5 304v719h182zM287 1569h123q114 -74 219 -189q126 126 223 189h127v-27q-205 -205 -256 -301h-184 q-60 102 -252 301v27z"/>
<glyph glyph-name="uni01D5" horiz-adv-x="1497" unicode="Ǖ" d="M1311 1462v-946q0 -250 -151 -393t-419 -143q-265 0 -411 144.5t-146 395.5v942h185v-948q0 -179 95.5 -277t287.5 -98q181 0 278.5 97t97.5 280v946h183zM449 2050h608v-145h-608v145zM656 1669q0 -53 -28 -76.5t-67 -23.5q-46 0 -71 27t-25 73q0 53 29 78t67 25 q39 0 67 -25t28 -78zM1041 1669q0 -48 -25.5 -74t-71.5 -26t-71 27t-25 73q0 53 29 78t67 25q41 0 69 -25t28 -78z"/>
<glyph glyph-name="uni01D6" horiz-adv-x="1266" unicode="ǖ" d="M344 1098v-707q0 -133 59.5 -197.5t184.5 -64.5q169 0 246 94t77 303v572h181v-1098h-148l-26 145h-9q-49 -79 -139 -122t-209 -43q-198 0 -298.5 95t-100.5 304v719h182zM324 1712h608v-145h-608v145zM531 1331q0 -53 -28 -76.5t-67 -23.5q-46 0 -71 27t-25 73 q0 53 29 78t67 25q39 0 67 -25t28 -78zM916 1331q0 -48 -25.5 -74t-71.5 -26t-71 27t-25 73q0 53 29 78t67 25q41 0 69 -25t28 -78z"/>
<glyph glyph-name="uni01D7" horiz-adv-x="1497" unicode="Ǘ" d="M1311 1462v-946q0 -250 -151 -393t-419 -143q-265 0 -411 144.5t-146 395.5v942h185v-948q0 -179 95.5 -277t287.5 -98q181 0 278.5 97t97.5 280v946h183zM624 1849q149 173 197 273h215v-21q-57 -89 -291 -276h-121v24zM637 1669q0 -53 -28 -76.5t-67 -23.5 q-46 0 -71 27t-25 73q0 53 29 78t67 25q39 0 67 -25t28 -78zM1022 1669q0 -48 -25.5 -74t-71.5 -26t-71 27t-25 73q0 53 29 78t67 25q41 0 69 -25t28 -78z"/>
<glyph glyph-name="uni01D8" horiz-adv-x="1266" unicode="ǘ" d="M344 1098v-707q0 -133 59.5 -197.5t184.5 -64.5q169 0 246 94t77 303v572h181v-1098h-148l-26 145h-9q-49 -79 -139 -122t-209 -43q-198 0 -298.5 95t-100.5 304v719h182zM516 1511q149 173 197 273h215v-21q-57 -89 -291 -276h-121v24zM529 1331q0 -53 -28 -76.5 t-67 -23.5q-46 0 -71 27t-25 73q0 53 29 78t67 25q39 0 67 -25t28 -78zM914 1331q0 -48 -25.5 -74t-71.5 -26t-71 27t-25 73q0 53 29 78t67 25q41 0 69 -25t28 -78z"/>
<glyph glyph-name="uni01D9" horiz-adv-x="1497" unicode="Ǚ" d="M1311 1462v-946q0 -250 -151 -393t-419 -143q-265 0 -411 144.5t-146 395.5v942h185v-948q0 -179 95.5 -277t287.5 -98q181 0 278.5 97t97.5 280v946h183zM399 2142h123q53 -35 110.5 -74t108.5 -94q56 56 112.5 94.5t110.5 73.5h127v-26l-66 -64q-150 -142 -190 -217 h-184q-44 74 -188 217l-64 64v26zM647 1669q0 -53 -28 -76.5t-67 -23.5q-46 0 -71 27t-25 73q0 53 29 78t67 25q39 0 67 -25t28 -78zM1032 1669q0 -48 -25.5 -74t-71.5 -26t-71 27t-25 73q0 53 29 78t67 25q41 0 69 -25t28 -78z"/>
<glyph glyph-name="uni01DA" horiz-adv-x="1266" unicode="ǚ" d="M344 1098v-707q0 -133 59.5 -197.5t184.5 -64.5q169 0 246 94t77 303v572h181v-1098h-148l-26 145h-9q-49 -79 -139 -122t-209 -43q-198 0 -298.5 95t-100.5 304v719h182zM277 1804h123q53 -35 110.5 -74t108.5 -94q56 56 112.5 94.5t110.5 73.5h127v-26l-66 -64 q-150 -142 -190 -217h-184q-44 74 -188 217l-64 64v26zM525 1331q0 -53 -28 -76.5t-67 -23.5q-46 0 -71 27t-25 73q0 53 29 78t67 25q39 0 67 -25t28 -78zM910 1331q0 -48 -25.5 -74t-71.5 -26t-71 27t-25 73q0 53 29 78t67 25q41 0 69 -25t28 -78z"/>
<glyph glyph-name="uni01DB" horiz-adv-x="1497" unicode="Ǜ" d="M1311 1462v-946q0 -250 -151 -393t-419 -143q-265 0 -411 144.5t-146 395.5v942h185v-948q0 -179 95.5 -277t287.5 -98q181 0 278.5 97t97.5 280v946h183zM848 1825h-121q-234 187 -291 276v21h215q48 -100 197 -273v-24zM639 1669q0 -53 -28 -76.5t-67 -23.5 q-46 0 -71 27t-25 73q0 53 29 78t67 25q39 0 67 -25t28 -78zM1024 1669q0 -48 -25.5 -74t-71.5 -26t-71 27t-25 73q0 53 29 78t67 25q41 0 69 -25t28 -78z"/>
<glyph glyph-name="uni01DC" horiz-adv-x="1266" unicode="ǜ" d="M344 1098v-707q0 -133 59.5 -197.5t184.5 -64.5q169 0 246 94t77 303v572h181v-1098h-148l-26 145h-9q-49 -79 -139 -122t-209 -43q-198 0 -298.5 95t-100.5 304v719h182zM740 1487h-121q-234 187 -291 276v21h215q48 -100 197 -273v-24zM531 1331q0 -53 -28 -76.5 t-67 -23.5q-46 0 -71 27t-25 73q0 53 29 78t67 25q39 0 67 -25t28 -78zM916 1331q0 -48 -25.5 -74t-71.5 -26t-71 27t-25 73q0 53 29 78t67 25q41 0 69 -25t28 -78z"/>
<glyph glyph-name="uni01DD" horiz-adv-x="1155" unicode="ǝ" d="M559 127q129 0 204 83t89 230h-559q2 -151 70 -232t196 -81zM514 1118q248 0 388 -149.5t140 -411.5q0 -264 -131 -420.5t-354 -156.5q-207 0 -330 133.5t-123 361.5v109h752q-5 186 -95 283.5t-255 97.5q-88 0 -167 -15.5t-185 -60.5v158q91 39 171 55t189 16z"/>
<glyph glyph-name="uni01DE" horiz-adv-x="1309" unicode="Ǟ" d="M885 616l-164 443l-70 219q-30 -120 -63 -219l-166 -443h463zM1116 0l-176 453h-580l-174 -453h-186l571 1468h166l570 -1468h-191zM350 2050h608v-145h-608v145zM557 1669q0 -53 -28 -76.5t-67 -23.5q-46 0 -71 27t-25 73q0 53 29 78t67 25q39 0 67 -25t28 -78z M942 1669q0 -48 -25.5 -74t-71.5 -26t-71 27t-25 73q0 53 29 78t67 25q41 0 69 -25t28 -78z"/>
<glyph glyph-name="uni01DF" horiz-adv-x="1149" unicode="ǟ" d="M481 125q151 0 237.5 81.5t86.5 231.5v99l-162 -7q-189 -7 -275.5 -60t-86.5 -167q0 -86 52.5 -132t147.5 -46zM852 0l-35 156h-8q-82 -103 -163.5 -139.5t-205.5 -36.5q-162 0 -254 85t-92 240q0 334 527 350l186 7v65q0 125 -54 184.5t-173 59.5q-87 0 -164.5 -26 t-145.5 -58l-55 135q83 44 181 69t194 25q199 0 296 -88t97 -280v-748h-131zM281 1712h608v-145h-608v145zM488 1331q0 -53 -28 -76.5t-67 -23.5q-46 0 -71 27t-25 73q0 53 29 78t67 25q39 0 67 -25t28 -78zM873 1331q0 -48 -25.5 -74t-71.5 -26t-71 27t-25 73q0 53 29 78 t67 25q41 0 69 -25t28 -78z"/>
<glyph glyph-name="uni01E0" horiz-adv-x="1309" unicode="Ǡ" d="M885 616l-164 443l-70 219q-30 -120 -63 -219l-166 -443h463zM1116 0l-176 453h-580l-174 -453h-186l571 1468h166l570 -1468h-191zM350 2050h608v-145h-608v145zM551 1692q0 60 30.5 87t75.5 27q48 0 76 -30.5t28 -83.5q0 -54 -29 -84.5t-75 -30.5q-45 0 -75.5 28 t-30.5 87z"/>
<glyph glyph-name="uni01E1" horiz-adv-x="1149" unicode="ǡ" d="M481 125q151 0 237.5 81.5t86.5 231.5v99l-162 -7q-189 -7 -275.5 -60t-86.5 -167q0 -86 52.5 -132t147.5 -46zM852 0l-35 156h-8q-82 -103 -163.5 -139.5t-205.5 -36.5q-162 0 -254 85t-92 240q0 334 527 350l186 7v65q0 125 -54 184.5t-173 59.5q-87 0 -164.5 -26 t-145.5 -58l-55 135q83 44 181 69t194 25q199 0 296 -88t97 -280v-748h-131zM281 1714h608v-145h-608v145zM482 1356q0 60 30.5 87t75.5 27q48 0 76 -30.5t28 -83.5q0 -54 -29 -84.5t-75 -30.5q-45 0 -75.5 28t-30.5 87z"/>
<glyph glyph-name="uni01E2" horiz-adv-x="1804" unicode="Ǣ" d="M479 616h441v682h-119zM1681 0h-761v453h-512l-220 -453h-190l694 1462h989v-162h-577v-456h538v-160h-538v-522h577v-162zM711 1724h608v-145h-608v145z"/>
<glyph glyph-name="uni01E3" horiz-adv-x="1769" unicode="ǣ" d="M1233 971q-119 0 -187 -80.5t-79 -233.5h508q0 152 -62.5 233t-179.5 81zM281 303q0 -92 52 -135t138 -43q140 0 221.5 81.5t81.5 231.5v99l-153 -7q-177 -7 -258.5 -60t-81.5 -167zM94 305q0 334 500 350l184 7v69q0 122 -56.5 181t-172.5 59q-139 0 -307 -84l-56 135 q71 40 172.5 67t204.5 27q128 0 210.5 -41.5t125.5 -134.5q54 85 139 131.5t197 46.5q197 0 313.5 -135t116.5 -356v-111h-702q8 -383 317 -383q88 0 165 16.5t171 59.5v-158q-88 -39 -164 -55t-178 -16q-291 0 -416 231q-82 -124 -181 -177.5t-235 -53.5q-164 0 -256 85.5 t-92 239.5zM580 1386h608v-145h-608v145z"/>
<glyph glyph-name="uni01E4" horiz-adv-x="1491" unicode="Ǥ" d="M834 772h505v-307h131v-146h-131v-264q-116 -37 -236 -56t-278 -19q-334 0 -517 198t-183 553q0 229 91 400t262.5 261.5t404.5 90.5q234 0 436 -86l-70 -160q-193 84 -377 84q-261 0 -408 -158t-147 -432q0 -290 141 -441t410 -151q147 0 287 35v145h-301v146h301v143 h-321v164z"/>
<glyph glyph-name="uni01E5" horiz-adv-x="1260" unicode="ǥ" d="M592 147q171 0 244 87.5t73 279.5v33q0 220 -76 320t-245 100q-140 0 -214.5 -104t-74.5 -308q0 -408 293 -408zM907 31l6 135h-8q-111 -166 -340 -166q-215 0 -333.5 145t-118.5 412q0 263 119 412t331 149q223 0 344 -166h11l24 146h143v-1116q0 -40 -4 -76h117v-146 h-147q-97 -252 -457 -252q-240 0 -395 70v166q160 -86 405 -86q157 0 240 102h-305v146h364l4 61v64z"/>
<glyph glyph-name="Gcaron" horiz-adv-x="1491" unicode="Ǧ" d="M834 772h505v-717q-116 -37 -236 -56t-278 -19q-334 0 -517 198t-183 553q0 229 91 400t262.5 261.5t404.5 90.5q234 0 436 -86l-70 -160q-193 84 -377 84q-261 0 -408 -158t-147 -432q0 -290 141 -441t410 -151q147 0 287 35v434h-321v164zM508 1907h123 q114 -74 219 -189q126 126 223 189h127v-27q-205 -205 -256 -301h-184q-60 102 -252 301v27z"/>
<glyph glyph-name="gcaron" horiz-adv-x="1260" unicode="ǧ" d="M907 10l6 135h-8q-111 -165 -340 -165q-213 0 -332.5 148.5t-119.5 418.5q0 265 120.5 418t329.5 153q223 0 344 -166h11l24 146h143v-1116q0 -236 -119.5 -355t-371.5 -119q-240 0 -395 70v166q160 -86 405 -86q140 0 221.5 82t81.5 227v43zM592 127q166 0 241.5 89.5 t75.5 287.5v43q0 220 -76 320t-245 100q-138 0 -213.5 -109.5t-75.5 -312.5q0 -204 73.5 -311t219.5 -107zM283 1569h123q114 -74 219 -189q126 126 223 189h127v-27q-205 -205 -256 -301h-184q-60 102 -252 301v27z"/>
<glyph glyph-name="uni01E8" horiz-adv-x="1268" unicode="Ǩ" d="M1268 0h-217l-519 698l-149 -131v-567h-184v1462h184v-721l126 139l521 582h215l-579 -637zM336 1907h123q114 -74 219 -189q126 126 223 189h127v-27q-205 -205 -256 -301h-184q-60 102 -252 301v27z"/>
<glyph glyph-name="uni01E9" horiz-adv-x="1094" unicode="ǩ" d="M352 565l61 78l70 84l351 371h210l-444 -469l475 -629h-217l-381 512l-125 -109v-403h-178v1556h178v-813l-8 -178h8zM262 1948h123q114 -74 219 -189q126 126 223 189h127v-27q-205 -205 -256 -301h-184q-60 102 -252 301v27z"/>
<glyph glyph-name="uni01EA" horiz-adv-x="1599" unicode="Ǫ" d="M319 733q0 -290 123 -442t359 -152q235 0 357 150t122 444q0 293 -121 441.5t-356 148.5q-238 0 -361 -150.5t-123 -439.5zM1475 733q0 -351 -177.5 -552t-496.5 -201q-323 0 -499.5 197.5t-176.5 557.5q0 357 175.5 553.5t502.5 196.5q318 0 495 -199.5t177 -552.5z M819 -238q0 -46 24.5 -69t67.5 -23q44 0 99 13v-115q-69 -19 -127 -19q-211 0 -211 193q0 139 160 258h127q-70 -66 -105 -120.5t-35 -117.5z"/>
<glyph glyph-name="uni01EB" horiz-adv-x="1239" unicode="ǫ" d="M299 551q0 -207 81.5 -314.5t240.5 -107.5q157 0 239 107.5t82 314.5t-82.5 311.5t-241.5 104.5q-319 0 -319 -416zM1128 551q0 -269 -136 -420t-376 -151q-149 0 -264 69.5t-177 199.5t-62 302q0 268 134 417.5t376 149.5q232 0 368.5 -152.5t136.5 -414.5zM618 -238 q0 -46 24.5 -69t67.5 -23q44 0 99 13v-115q-69 -19 -127 -19q-211 0 -211 193q0 139 160 258h127q-70 -66 -105 -120.5t-35 -117.5z"/>
<glyph glyph-name="uni01EC" horiz-adv-x="1599" unicode="Ǭ" d="M319 733q0 -290 123 -442t359 -152q235 0 357 150t122 444q0 293 -121 441.5t-356 148.5q-238 0 -361 -150.5t-123 -439.5zM1475 733q0 -351 -177.5 -552t-496.5 -201q-323 0 -499.5 197.5t-176.5 557.5q0 357 175.5 553.5t502.5 196.5q318 0 495 -199.5t177 -552.5z M496 1724h608v-145h-608v145zM819 -238q0 -46 24.5 -69t67.5 -23q44 0 99 13v-115q-69 -19 -127 -19q-211 0 -211 193q0 139 160 258h127q-70 -66 -105 -120.5t-35 -117.5z"/>
<glyph glyph-name="uni01ED" horiz-adv-x="1239" unicode="ǭ" d="M299 551q0 -207 81.5 -314.5t240.5 -107.5q157 0 239 107.5t82 314.5t-82.5 311.5t-241.5 104.5q-319 0 -319 -416zM1128 551q0 -269 -136 -420t-376 -151q-149 0 -264 69.5t-177 199.5t-62 302q0 268 134 417.5t376 149.5q232 0 368.5 -152.5t136.5 -414.5zM315 1386 h608v-145h-608v145zM618 -238q0 -46 24.5 -69t67.5 -23q44 0 99 13v-115q-69 -19 -127 -19q-211 0 -211 193q0 139 160 258h127q-70 -66 -105 -120.5t-35 -117.5z"/>
<glyph glyph-name="uni01EE" horiz-adv-x="1196" unicode="Ǯ" d="M596 901q139 -4 251 -61t174 -156.5t62 -230.5q0 -224 -155 -348.5t-434 -124.5q-259 0 -422 79v168q100 -48 213 -72t211 -24q199 0 297 84t98 240q0 142 -101 219.5t-294 77.5h-127v133l422 413h-678v164h909v-145zM210 1907h123q114 -74 219 -189q126 126 223 189h127 v-27q-205 -205 -256 -301h-184q-60 102 -252 301v27z"/>
<glyph glyph-name="uni01EF" horiz-adv-x="1020" unicode="ǯ" d="M446 467q235 -16 369.5 -140t134.5 -325q0 -144 -67 -257t-191.5 -175t-283.5 -62q-239 0 -379 72v164q183 -86 387 -86q162 0 258 92.5t96 247.5q0 157 -104 241.5t-310 84.5h-120v125l448 497h-627v152h838v-131zM118 1569h123q114 -74 219 -189q126 126 223 189h127 v-27q-205 -205 -256 -301h-184q-60 102 -252 301v27z"/>
<glyph glyph-name="uni01F0" horiz-adv-x="528" unicode="ǰ" d="M45 -492q-94 0 -158 25v145q69 -20 136 -20q78 0 114.5 42.5t36.5 129.5v1268h180v-1262q0 -164 -78.5 -246t-230.5 -82zM-81 1569h123q114 -74 219 -189q126 126 223 189h127v-27q-205 -205 -256 -301h-184q-60 102 -252 301v27z"/>
<glyph glyph-name="uni01F1" horiz-adv-x="2646" unicode="Ǳ" d="M1176 739q0 279 -137.5 422.5t-415.5 143.5h-240v-1147h199q594 0 594 581zM1370 745q0 -362 -197.5 -553.5t-566.5 -191.5h-407v1462h450q341 0 531 -187.5t190 -529.5zM2567 0h-1014v139l770 1159h-746v164h969v-139l-770 -1159h791v-164z"/>
<glyph glyph-name="uni01F2" horiz-adv-x="2458" unicode="ǲ" d="M1176 739q0 279 -137.5 422.5t-415.5 143.5h-240v-1147h199q594 0 594 581zM1370 745q0 -362 -197.5 -553.5t-566.5 -191.5h-407v1462h450q341 0 531 -187.5t190 -529.5zM2378 0h-803v119l590 839h-555v140h753v-135l-581 -824h596v-139z"/>
<glyph glyph-name="uni01F3" horiz-adv-x="2222" unicode="ǳ" d="M592 129q164 0 239.5 89.5t75.5 293.5v33q0 229 -76.5 326.5t-240.5 97.5q-139 0 -215 -110.5t-76 -315.5q0 -204 75.5 -309t217.5 -105zM563 -20q-214 0 -332 148t-118 419q0 269 118.5 420t333.5 151q221 0 340 -162h13q-3 20 -8 80.5t-5 81.5v438h180v-1556h-145 l-27 147h-8q-115 -167 -342 -167zM2143 0h-803v119l590 839h-555v140h753v-135l-581 -824h596v-139z"/>
<glyph glyph-name="uni01F4" horiz-adv-x="1491" unicode="Ǵ" d="M834 772h505v-717q-116 -37 -236 -56t-278 -19q-334 0 -517 198t-183 553q0 229 91 400t262.5 261.5t404.5 90.5q234 0 436 -86l-70 -160q-193 84 -377 84q-261 0 -408 -158t-147 -432q0 -290 141 -441t410 -151q147 0 287 35v434h-321v164zM743 1604q38 48 96.5 136.5 t98.5 166.5h217v-21q-44 -64 -137 -161t-156 -146h-119v25z"/>
<glyph glyph-name="uni01F5" horiz-adv-x="1260" unicode="ǵ" d="M907 10l6 135h-8q-111 -165 -340 -165q-213 0 -332.5 148.5t-119.5 418.5q0 265 120.5 418t329.5 153q223 0 344 -166h11l24 146h143v-1116q0 -236 -119.5 -355t-371.5 -119q-240 0 -395 70v166q160 -86 405 -86q140 0 221.5 82t81.5 227v43zM592 127q166 0 241.5 89.5 t75.5 287.5v43q0 220 -76 320t-245 100q-138 0 -213.5 -109.5t-75.5 -312.5q0 -204 73.5 -311t219.5 -107zM461 1266q38 48 96.5 136.5t98.5 166.5h217v-21q-44 -64 -137 -161t-156 -146h-119v25z"/>
<glyph glyph-name="uni01F6" horiz-adv-x="1921" unicode="Ƕ" d="M383 682v-682h-184v1462h184v-618h606v618h185v-1126q0 -93 47 -144t143 -51q91 0 139.5 51.5t48.5 145.5v760h185v-760q0 -165 -100 -260.5t-279 -95.5q-174 0 -271.5 94t-97.5 264v342h-606z"/>
<glyph glyph-name="uni01F7" horiz-adv-x="1354" unicode="Ƿ" d="M383 152q330 138 502 351t172 482q0 166 -76 253t-217 87q-193 0 -287 -113.5t-94 -355.5v-704zM797 1485q210 0 327 -131t117 -367q0 -330 -218.5 -583t-639.5 -424v-472h-184v1956h145l31 -198h10q76 113 177.5 166t234.5 53z"/>
<glyph glyph-name="uni01F8" horiz-adv-x="1556" unicode="Ǹ" d="M1358 0h-215l-783 1214h-8l5 -81q12 -182 12 -316v-817h-170v1462h213l45 -71l480 -742l255 -397h8q-2 24 -8 171.5t-6 213.5v825h172v-1462zM901 1579h-121q-75 60 -164.5 155.5t-126.5 151.5v21h215q32 -66 91 -157.5t106 -145.5v-25z"/>
<glyph glyph-name="uni01F9" horiz-adv-x="1266" unicode="ǹ" d="M922 0v702q0 134 -59.5 199.5t-186.5 65.5q-169 0 -245.5 -93.5t-76.5 -304.5v-569h-180v1098h145l27 -150h10q51 81 143 125.5t203 44.5q202 0 300 -98t98 -305v-715h-178zM777 1241h-121q-75 60 -164.5 155.5t-126.5 151.5v21h215q32 -66 91 -157.5t106 -145.5v-25z "/>
<glyph glyph-name="Aringacute" horiz-adv-x="1311" unicode="Ǻ" d="M766 1430q0 55 -32 84.5t-83 29.5q-49 0 -81.5 -29.5t-32.5 -84.5q0 -54 29.5 -84.5t84.5 -30.5q51 0 83 29.5t32 85.5zM555 1716q57 67 104.5 137t69.5 109h217v-16q-30 -42 -118.5 -124t-151.5 -124h-121v18zM899 557l-172 424q-27 61 -74 207q-31 -107 -71 -211 l-170 -420h487zM881 1432q0 -65 -27 -112t-72 -73l529 -1247h-191l-168 393h-604l-160 -393h-188l528 1245q-100 54 -100 185q0 98 60 157.5t163 59.5t166.5 -60t63.5 -155z"/>
<glyph glyph-name="aringacute" horiz-adv-x="1149" unicode="ǻ" d="M471 1753v16q46 42 99 102t75 91h268v-12q-21 -24 -103 -76.5t-210 -120.5h-129zM698 1458q0 54 -32.5 84.5t-81.5 30.5q-50 0 -82.5 -30.5t-32.5 -84.5t29.5 -84.5t85.5 -30.5q51 0 82.5 30.5t31.5 84.5zM811 1460q0 -101 -62.5 -160t-164.5 -59q-103 0 -163.5 59 t-60.5 158q0 97 60 156t164 59q101 0 164 -59t63 -154zM481 125q151 0 237.5 81.5t86.5 231.5v99l-162 -7q-189 -7 -275.5 -60t-86.5 -167q0 -86 52.5 -132t147.5 -46zM852 0l-35 156h-8q-82 -103 -163.5 -139.5t-205.5 -36.5q-162 0 -254 85t-92 240q0 334 527 350l186 7 v65q0 125 -54 184.5t-173 59.5q-87 0 -164.5 -26t-145.5 -58l-55 135q83 44 181 69t194 25q199 0 296 -88t97 -280v-748h-131z"/>
<glyph glyph-name="AEacute" horiz-adv-x="1804" unicode="Ǽ" d="M479 616h441v682h-119zM1681 0h-761v453h-512l-220 -453h-190l694 1462h989v-162h-577v-456h538v-160h-538v-522h577v-162zM983 1604q38 48 96.5 136.5t98.5 166.5h217v-21q-44 -64 -137 -161t-156 -146h-119v25z"/>
<glyph glyph-name="aeacute" horiz-adv-x="1769" unicode="ǽ" d="M1233 971q-119 0 -187 -80.5t-79 -233.5h508q0 152 -62.5 233t-179.5 81zM281 303q0 -92 52 -135t138 -43q140 0 221.5 81.5t81.5 231.5v99l-153 -7q-177 -7 -258.5 -60t-81.5 -167zM94 305q0 334 500 350l184 7v69q0 122 -56.5 181t-172.5 59q-139 0 -307 -84l-56 135 q71 40 172.5 67t204.5 27q128 0 210.5 -41.5t125.5 -134.5q54 85 139 131.5t197 46.5q197 0 313.5 -135t116.5 -356v-111h-702q8 -383 317 -383q88 0 165 16.5t171 59.5v-158q-88 -39 -164 -55t-178 -16q-291 0 -416 231q-82 -124 -181 -177.5t-235 -53.5q-164 0 -256 85.5 t-92 239.5zM782 1266q38 48 96.5 136.5t98.5 166.5h217v-21q-44 -64 -137 -161t-156 -146h-119v25z"/>
<glyph glyph-name="Oslashacute" horiz-adv-x="1599" unicode="Ǿ" d="M319 733q0 -259 97 -405l653 923q-109 72 -266 72q-238 0 -361 -150.5t-123 -439.5zM1280 733q0 264 -104 414l-656 -930q114 -78 281 -78q235 0 357 150t122 444zM1475 733q0 -351 -177.5 -552t-496.5 -201q-232 0 -379 96l-98 -139l-125 81l106 152q-180 198 -180 565 q0 357 175.5 553.5t502.5 196.5q204 0 364 -92l95 135l124 -84l-104 -146q193 -203 193 -565zM670 1604q38 48 96.5 136.5t98.5 166.5h217v-21q-44 -64 -137 -161t-156 -146h-119v25z"/>
<glyph glyph-name="oslashacute" horiz-adv-x="1239" unicode="ǿ" d="M942 551q0 152 -47 252l-451 -627q69 -47 177 -47q157 0 239 107.5t82 314.5zM299 551q0 -166 49 -262l451 626q-73 52 -181 52q-319 0 -319 -416zM1128 551q0 -269 -136 -420t-376 -151q-151 0 -264 67l-82 -115l-118 80l92 127q-131 156 -131 412q0 268 134 417.5 t376 149.5q151 0 268 -74l80 115l121 -78l-93 -129q129 -155 129 -401zM475 1266q38 48 96.5 136.5t98.5 166.5h217v-21q-44 -64 -137 -161t-156 -146h-119v25z"/>
<glyph glyph-name="uni0200" horiz-adv-x="1309" unicode="Ȁ" d="M885 616l-164 443l-70 219q-30 -120 -63 -219l-166 -443h463zM1116 0l-176 453h-580l-174 -453h-186l571 1468h166l570 -1468h-191zM559 1579h-102q-65 52 -152.5 152t-120.5 155v21h199q28 -61 77.5 -148t98.5 -155v-25zM919 1579h-102q-60 48 -148 147.5t-124 159.5v21 h198q28 -61 77.5 -148t98.5 -155v-25z"/>
<glyph glyph-name="uni0201" horiz-adv-x="1149" unicode="ȁ" d="M481 125q151 0 237.5 81.5t86.5 231.5v99l-162 -7q-189 -7 -275.5 -60t-86.5 -167q0 -86 52.5 -132t147.5 -46zM852 0l-35 156h-8q-82 -103 -163.5 -139.5t-205.5 -36.5q-162 0 -254 85t-92 240q0 334 527 350l186 7v65q0 125 -54 184.5t-173 59.5q-87 0 -164.5 -26 t-145.5 -58l-55 135q83 44 181 69t194 25q199 0 296 -88t97 -280v-748h-131zM490 1241h-102q-65 52 -152.5 152t-120.5 155v21h199q28 -61 77.5 -148t98.5 -155v-25zM850 1241h-102q-60 48 -148 147.5t-124 159.5v21h198q28 -61 77.5 -148t98.5 -155v-25z"/>
<glyph glyph-name="uni0202" horiz-adv-x="1309" unicode="Ȃ" d="M885 616l-164 443l-70 219q-30 -120 -63 -219l-166 -443h463zM1116 0l-176 453h-580l-174 -453h-186l571 1468h166l570 -1468h-191zM659 1854q141 0 222.5 -69t90.5 -206h-110q-9 73 -51.5 101t-155.5 28q-103 0 -151 -32t-56 -97h-112q11 129 97 202t226 73z"/>
<glyph glyph-name="uni0203" horiz-adv-x="1149" unicode="ȃ" d="M481 125q151 0 237.5 81.5t86.5 231.5v99l-162 -7q-189 -7 -275.5 -60t-86.5 -167q0 -86 52.5 -132t147.5 -46zM852 0l-35 156h-8q-82 -103 -163.5 -139.5t-205.5 -36.5q-162 0 -254 85t-92 240q0 334 527 350l186 7v65q0 125 -54 184.5t-173 59.5q-87 0 -164.5 -26 t-145.5 -58l-55 135q83 44 181 69t194 25q199 0 296 -88t97 -280v-748h-131zM600 1516q141 0 222.5 -69t90.5 -206h-110q-9 73 -51.5 101t-155.5 28q-103 0 -151 -32t-56 -97h-112q11 129 97 202t226 73z"/>
<glyph glyph-name="uni0204" horiz-adv-x="1139" unicode="Ȅ" d="M1016 0h-817v1462h817v-162h-633v-456h596v-160h-596v-522h633v-162zM535 1579h-102q-65 52 -152.5 152t-120.5 155v21h199q28 -61 77.5 -148t98.5 -155v-25zM895 1579h-102q-60 48 -148 147.5t-124 159.5v21h198q28 -61 77.5 -148t98.5 -155v-25z"/>
<glyph glyph-name="uni0205" horiz-adv-x="1155" unicode="ȅ" d="M596 971q-129 0 -204 -83t-89 -231h559q-2 154 -71 234t-195 80zM641 -20q-247 0 -387.5 149.5t-140.5 411.5q0 264 131 420.5t354 156.5q207 0 330 -133.5t123 -361.5v-109h-752q5 -187 95 -284t255 -97q88 0 167 15.5t185 60.5v-158q-91 -39 -171 -55t-189 -16z M522 1241h-102q-65 52 -152.5 152t-120.5 155v21h199q28 -61 77.5 -148t98.5 -155v-25zM882 1241h-102q-60 48 -148 147.5t-124 159.5v21h198q28 -61 77.5 -148t98.5 -155v-25z"/>
<glyph glyph-name="uni0206" horiz-adv-x="1139" unicode="Ȇ" d="M1016 0h-817v1462h817v-162h-633v-456h596v-160h-596v-522h633v-162zM614 1854q141 0 222.5 -69t90.5 -206h-110q-9 73 -51.5 101t-155.5 28q-103 0 -151 -32t-56 -97h-112q11 129 97 202t226 73z"/>
<glyph glyph-name="uni0207" horiz-adv-x="1155" unicode="ȇ" d="M596 971q-129 0 -204 -83t-89 -231h559q-2 154 -71 234t-195 80zM641 -20q-247 0 -387.5 149.5t-140.5 411.5q0 264 131 420.5t354 156.5q207 0 330 -133.5t123 -361.5v-109h-752q5 -187 95 -284t255 -97q88 0 167 15.5t185 60.5v-158q-91 -39 -171 -55t-189 -16z M602 1516q141 0 222.5 -69t90.5 -206h-110q-9 73 -51.5 101t-155.5 28q-103 0 -151 -32t-56 -97h-112q11 129 97 202t226 73z"/>
<glyph glyph-name="uni0208" horiz-adv-x="694" unicode="Ȉ" d="M610 0h-528v106l172 39v1170l-172 41v106h528v-106l-172 -41v-1170l172 -39v-106zM252 1579h-102q-65 52 -152.5 152t-120.5 155v21h199q28 -61 77.5 -148t98.5 -155v-25zM612 1579h-102q-60 48 -148 147.5t-124 159.5v21h198q28 -61 77.5 -148t98.5 -155v-25z"/>
<glyph glyph-name="uni0209" horiz-adv-x="528" unicode="ȉ" d="M354 0h-180v1098h180v-1098zM168 1241h-102q-65 52 -152.5 152t-120.5 155v21h199q28 -61 77.5 -148t98.5 -155v-25zM528 1241h-102q-60 48 -148 147.5t-124 159.5v21h198q28 -61 77.5 -148t98.5 -155v-25z"/>
<glyph glyph-name="uni020A" horiz-adv-x="694" unicode="Ȋ" d="M610 0h-528v106l172 39v1170l-172 41v106h528v-106l-172 -41v-1170l172 -39v-106zM352 1854q141 0 222.5 -69t90.5 -206h-110q-9 73 -51.5 101t-155.5 28q-103 0 -151 -32t-56 -97h-112q11 129 97 202t226 73z"/>
<glyph glyph-name="uni020B" horiz-adv-x="528" unicode="ȋ" d="M354 0h-180v1098h180v-1098zM268 1516q141 0 222.5 -69t90.5 -206h-110q-9 73 -51.5 101t-155.5 28q-103 0 -151 -32t-56 -97h-112q11 129 97 202t226 73z"/>
<glyph glyph-name="uni020C" horiz-adv-x="1599" unicode="Ȍ" d="M319 733q0 -290 123 -442t359 -152q235 0 357 150t122 444q0 293 -121 441.5t-356 148.5q-238 0 -361 -150.5t-123 -439.5zM1475 733q0 -351 -177.5 -552t-496.5 -201q-323 0 -499.5 197.5t-176.5 557.5q0 357 175.5 553.5t502.5 196.5q318 0 495 -199.5t177 -552.5z M707 1579h-102q-65 52 -152.5 152t-120.5 155v21h199q28 -61 77.5 -148t98.5 -155v-25zM1067 1579h-102q-60 48 -148 147.5t-124 159.5v21h198q28 -61 77.5 -148t98.5 -155v-25z"/>
<glyph glyph-name="uni020D" horiz-adv-x="1239" unicode="ȍ" d="M299 551q0 -207 81.5 -314.5t240.5 -107.5q157 0 239 107.5t82 314.5t-82.5 311.5t-241.5 104.5q-319 0 -319 -416zM1128 551q0 -269 -136 -420t-376 -151q-149 0 -264 69.5t-177 199.5t-62 302q0 268 134 417.5t376 149.5q232 0 368.5 -152.5t136.5 -414.5zM537 1241 h-102q-65 52 -152.5 152t-120.5 155v21h199q28 -61 77.5 -148t98.5 -155v-25zM897 1241h-102q-60 48 -148 147.5t-124 159.5v21h198q28 -61 77.5 -148t98.5 -155v-25z"/>
<glyph glyph-name="uni020E" horiz-adv-x="1599" unicode="Ȏ" d="M319 733q0 -290 123 -442t359 -152q235 0 357 150t122 444q0 293 -121 441.5t-356 148.5q-238 0 -361 -150.5t-123 -439.5zM1475 733q0 -351 -177.5 -552t-496.5 -201q-323 0 -499.5 197.5t-176.5 557.5q0 357 175.5 553.5t502.5 196.5q318 0 495 -199.5t177 -552.5z M805 1854q141 0 222.5 -69t90.5 -206h-110q-9 73 -51.5 101t-155.5 28q-103 0 -151 -32t-56 -97h-112q11 129 97 202t226 73z"/>
<glyph glyph-name="uni020F" horiz-adv-x="1239" unicode="ȏ" d="M299 551q0 -207 81.5 -314.5t240.5 -107.5q157 0 239 107.5t82 314.5t-82.5 311.5t-241.5 104.5q-319 0 -319 -416zM1128 551q0 -269 -136 -420t-376 -151q-149 0 -264 69.5t-177 199.5t-62 302q0 268 134 417.5t376 149.5q232 0 368.5 -152.5t136.5 -414.5zM625 1516 q141 0 222.5 -69t90.5 -206h-110q-9 73 -51.5 101t-155.5 28q-103 0 -151 -32t-56 -97h-112q11 129 97 202t226 73z"/>
<glyph glyph-name="uni0210" horiz-adv-x="1274" unicode="Ȑ" d="M383 604v-604h-184v1462h403q272 0 402.5 -103.5t130.5 -311.5q0 -291 -293 -392l401 -655h-215l-354 604h-291zM383 760h219q178 0 260 70t82 208t-83 201.5t-269 63.5h-209v-543zM541 1579h-102q-65 52 -152.5 152t-120.5 155v21h199q28 -61 77.5 -148t98.5 -155v-25z M901 1579h-102q-60 48 -148 147.5t-124 159.5v21h198q28 -61 77.5 -148t98.5 -155v-25z"/>
<glyph glyph-name="uni0211" horiz-adv-x="846" unicode="ȑ" d="M686 1118q73 0 129 -12l-22 -166q-61 14 -119 14q-87 0 -161.5 -48t-116.5 -132.5t-42 -187.5v-586h-180v1098h148l20 -201h8q63 109 149 165t187 56zM410 1241h-102q-65 52 -152.5 152t-120.5 155v21h199q28 -61 77.5 -148t98.5 -155v-25zM770 1241h-102 q-60 48 -148 147.5t-124 159.5v21h198q28 -61 77.5 -148t98.5 -155v-25z"/>
<glyph glyph-name="uni0212" horiz-adv-x="1274" unicode="Ȓ" d="M383 604v-604h-184v1462h403q272 0 402.5 -103.5t130.5 -311.5q0 -291 -293 -392l401 -655h-215l-354 604h-291zM383 760h219q178 0 260 70t82 208t-83 201.5t-269 63.5h-209v-543zM641 1854q141 0 222.5 -69t90.5 -206h-110q-9 73 -51.5 101t-155.5 28q-103 0 -151 -32 t-56 -97h-112q11 129 97 202t226 73z"/>
<glyph glyph-name="uni0213" horiz-adv-x="846" unicode="ȓ" d="M686 1118q73 0 129 -12l-22 -166q-61 14 -119 14q-87 0 -161.5 -48t-116.5 -132.5t-42 -187.5v-586h-180v1098h148l20 -201h8q63 109 149 165t187 56zM500 1516q141 0 222.5 -69t90.5 -206h-110q-9 73 -51.5 101t-155.5 28q-103 0 -151 -32t-56 -97h-112q11 129 97 202 t226 73z"/>
<glyph glyph-name="uni0214" horiz-adv-x="1497" unicode="Ȕ" d="M1311 1462v-946q0 -250 -151 -393t-419 -143q-265 0 -411 144.5t-146 395.5v942h185v-948q0 -179 95.5 -277t287.5 -98q181 0 278.5 97t97.5 280v946h183zM682 1579h-102q-65 52 -152.5 152t-120.5 155v21h199q28 -61 77.5 -148t98.5 -155v-25zM1042 1579h-102 q-60 48 -148 147.5t-124 159.5v21h198q28 -61 77.5 -148t98.5 -155v-25z"/>
<glyph glyph-name="uni0215" horiz-adv-x="1266" unicode="ȕ" d="M344 1098v-707q0 -133 59.5 -197.5t184.5 -64.5q169 0 246 94t77 303v572h181v-1098h-148l-26 145h-9q-49 -79 -139 -122t-209 -43q-198 0 -298.5 95t-100.5 304v719h182zM537 1241h-102q-65 52 -152.5 152t-120.5 155v21h199q28 -61 77.5 -148t98.5 -155v-25zM897 1241 h-102q-60 48 -148 147.5t-124 159.5v21h198q28 -61 77.5 -148t98.5 -155v-25z"/>
<glyph glyph-name="uni0216" horiz-adv-x="1497" unicode="Ȗ" d="M1311 1462v-946q0 -250 -151 -393t-419 -143q-265 0 -411 144.5t-146 395.5v942h185v-948q0 -179 95.5 -277t287.5 -98q181 0 278.5 97t97.5 280v946h183zM754 1854q141 0 222.5 -69t90.5 -206h-110q-9 73 -51.5 101t-155.5 28q-103 0 -151 -32t-56 -97h-112 q11 129 97 202t226 73z"/>
<glyph glyph-name="uni0217" horiz-adv-x="1266" unicode="ȗ" d="M344 1098v-707q0 -133 59.5 -197.5t184.5 -64.5q169 0 246 94t77 303v572h181v-1098h-148l-26 145h-9q-49 -79 -139 -122t-209 -43q-198 0 -298.5 95t-100.5 304v719h182zM637 1516q141 0 222.5 -69t90.5 -206h-110q-9 73 -51.5 101t-155.5 28q-103 0 -151 -32t-56 -97 h-112q11 129 97 202t226 73z"/>
<glyph glyph-name="Scommaaccent" horiz-adv-x="1124" unicode="Ș" d="M1028 391q0 -191 -138 -301t-384 -110q-260 0 -402 69v176q93 -40 203.5 -63t206.5 -23q164 0 247 63t83 173q0 73 -30 120t-100.5 88t-213.5 93q-203 74 -290 174.5t-87 259.5q0 171 128.5 272t338.5 101q219 0 403 -82l-57 -158q-188 78 -350 78q-130 0 -203.5 -56 t-73.5 -157q0 -72 28.5 -119.5t92 -86.5t199.5 -89q163 -60 243 -116.5t118 -130t38 -175.5zM390 -428q22 51 49 144t35 159h178v-18q-16 -63 -64.5 -156.5t-99.5 -153.5h-98v25z"/>
<glyph glyph-name="scommaaccent" horiz-adv-x="981" unicode="ș" d="M889 303q0 -154 -115 -238.5t-323 -84.5q-217 0 -345 69v164q181 -88 349 -88q136 0 198 44t62 118q0 65 -59.5 110t-211.5 103q-155 60 -218 102.5t-92.5 95.5t-29.5 129q0 135 110 213t302 78q187 0 350 -74l-61 -143q-167 70 -301 70q-112 0 -170 -35.5t-58 -97.5 q0 -60 50 -99.5t233 -109.5q137 -51 202.5 -95t96.5 -99t31 -132zM331 -428q22 51 49 144t35 159h178v-18q-16 -63 -64.5 -156.5t-99.5 -153.5h-98v25z"/>
<glyph glyph-name="uni021A" horiz-adv-x="1139" unicode="Ț" d="M662 0h-185v1300h-457v162h1096v-162h-454v-1300zM392 -428q22 51 49 144t35 159h178v-18q-16 -63 -64.5 -156.5t-99.5 -153.5h-98v25z"/>
<glyph glyph-name="uni021B" horiz-adv-x="739" unicode="ț" d="M541 127q35 0 82 7t71 16v-138q-25 -11 -77.5 -21.5t-106.5 -10.5q-322 0 -322 339v639h-155v86l157 72l72 234h107v-252h317v-140h-317v-634q0 -95 45.5 -146t126.5 -51zM290 -428q22 51 49 144t35 159h178v-18q-16 -63 -64.5 -156.5t-99.5 -153.5h-98v25z"/>
<glyph glyph-name="uni021C" horiz-adv-x="1204" unicode="Ȝ" d="M1063 1120q0 -142 -91 -232.5t-255 -115.5v-8q186 -25 281.5 -115t95.5 -235q0 -205 -155 -319.5t-435 -114.5q-263 0 -426 79v168q99 -47 212.5 -71.5t211.5 -24.5q198 0 298.5 73t100.5 210q0 131 -113 198.5t-337 67.5h-209v154h198q217 0 324.5 72.5t107.5 195.5 q0 106 -79.5 167.5t-214.5 61.5q-114 0 -205.5 -27t-200.5 -98l-88 125q211 152 496 152q225 0 354 -98t129 -265z"/>
<glyph glyph-name="uni021D" horiz-adv-x="1020" unicode="ȝ" d="M395 467q144 0 229 71.5t85 184.5t-79 180.5t-212 67.5q-61 0 -124 -15t-149 -55l-61 143q90 43 169.5 58.5t174.5 15.5q211 0 332 -98.5t121 -271.5q0 -125 -65 -215t-195 -134q165 -42 247 -144.5t82 -252.5q0 -144 -67 -257t-191.5 -175t-283.5 -62q-238 0 -388 76 v164q91 -43 195 -66.5t201 -23.5q162 0 258 92.5t96 247.5q0 157 -104 241.5t-310 84.5h-161v143h200z"/>
<glyph glyph-name="uni021E" horiz-adv-x="1518" unicode="Ȟ" d="M1317 0h-184v682h-750v-682h-184v1462h184v-618h750v618h184v-1462zM412 1907h123q114 -74 219 -189q126 126 223 189h127v-27q-205 -205 -256 -301h-184q-60 102 -252 301v27z"/>
<glyph glyph-name="uni021F" horiz-adv-x="1266" unicode="ȟ" d="M922 0v702q0 134 -59.5 199.5t-186.5 65.5q-167 0 -244.5 -93t-77.5 -307v-567h-180v1556h180v-456q0 -90 -10 -154h12q49 80 139 125t203 45q200 0 301 -95.5t101 -305.5v-715h-178zM338 1948h123q114 -74 219 -189q126 126 223 189h127v-27q-205 -205 -256 -301h-184 q-60 102 -252 301v27z"/>
<glyph glyph-name="uni0220" horiz-adv-x="1518" unicode="Ƞ" d="M803 1325q-420 0 -420 -459v-866h-184v1464h145l31 -188h10q66 93 190.5 151t249.5 58q506 0 506 -541v-1436h-184v1436q0 199 -84 290t-260 91z"/>
<glyph glyph-name="uni0221" horiz-adv-x="1260" unicode="ȡ" d="M592 129q164 0 239.5 89.5t75.5 293.5v33q0 229 -76.5 326.5t-240.5 97.5q-139 0 -215 -110.5t-76 -315.5q0 -204 75.5 -309t217.5 -105zM1085 -147q0 -106 24.5 -151.5t92.5 -45.5q73 0 117 22v-137q-47 -33 -156 -33q-258 0 -258 342v130q0 24 5 83.5t8 77.5h-13 q-118 -161 -340 -161q-215 0 -333.5 149t-118.5 418t118.5 420t333.5 151q221 0 340 -162h13q-3 20 -8 80.5t-5 81.5v438h180v-1703z"/>
<glyph glyph-name="uni0222" horiz-adv-x="1374" unicode="Ȣ" d="M313 475q0 -167 94 -251.5t279 -84.5t280 85t95 251q0 330 -377 330q-371 0 -371 -330zM686 963q151 0 231 84t80 235v180h185v-180q0 -296 -236 -395q151 -48 230 -152.5t79 -259.5q0 -229 -152.5 -362t-420.5 -133q-165 0 -293.5 60.5t-199 174t-70.5 260.5 q0 321 305 414q-231 95 -231 393v180h184v-180q0 -151 80 -235t229 -84z"/>
<glyph glyph-name="uni0223" horiz-adv-x="1239" unicode="ȣ" d="M299 489q0 -176 81 -268t241 -92q157 0 239 91t82 269t-83.5 266.5t-240.5 88.5t-238 -89t-81 -266zM621 993q137 0 197.5 73.5t60.5 231.5v258h180v-264q0 -158 -47 -248t-152 -129q134 -51 201 -159.5t67 -266.5q0 -239 -136.5 -374t-375.5 -135q-228 0 -365.5 138.5 t-137.5 370.5q0 331 266 429q-105 39 -151 130t-46 244v264h180v-258q0 -158 60.5 -231.5t198.5 -73.5z"/>
<glyph glyph-name="uni0224" horiz-adv-x="1171" unicode="Ȥ" d="M1092 0h-1014v139l770 1159h-746v164h969v-139l-770 -1159h791v-164zM852 -406q-59 0 -122 25v150q46 -19 102 -19q98 0 98 107v307h162v-297q0 -273 -240 -273z"/>
<glyph glyph-name="uni0225" horiz-adv-x="963" unicode="ȥ" d="M883 -133q0 -273 -240 -273q-60 0 -123 25v150q46 -19 103 -19q98 0 98 107v143h-641v119l590 839h-555v140h753v-135l-581 -824h596v-272z"/>
<glyph glyph-name="uni0226" horiz-adv-x="1309" unicode="Ȧ" d="M885 616l-164 443l-70 219q-30 -120 -63 -219l-166 -443h463zM1116 0l-176 453h-580l-174 -453h-186l571 1468h166l570 -1468h-191zM549 1733q0 60 30.5 87t75.5 27q42 0 73.5 -27t31.5 -87q0 -59 -31.5 -87t-73.5 -28q-45 0 -75.5 28t-30.5 87z"/>
<glyph glyph-name="uni0227" horiz-adv-x="1149" unicode="ȧ" d="M481 125q151 0 237.5 81.5t86.5 231.5v99l-162 -7q-189 -7 -275.5 -60t-86.5 -167q0 -86 52.5 -132t147.5 -46zM852 0l-35 156h-8q-82 -103 -163.5 -139.5t-205.5 -36.5q-162 0 -254 85t-92 240q0 334 527 350l186 7v65q0 125 -54 184.5t-173 59.5q-87 0 -164.5 -26 t-145.5 -58l-55 135q83 44 181 69t194 25q199 0 296 -88t97 -280v-748h-131zM469 1395q0 60 30.5 87t75.5 27q42 0 73.5 -27t31.5 -87q0 -59 -31.5 -87t-73.5 -28q-45 0 -75.5 28t-30.5 87z"/>
<glyph glyph-name="uni0228" horiz-adv-x="1139" unicode="Ȩ" d="M1016 0h-817v1462h817v-162h-633v-456h596v-160h-596v-522h633v-162zM813 -285q0 -99 -75.5 -153t-227.5 -54q-65 0 -102 11v112q36 -10 108 -10q75 0 113.5 19.5t38.5 70.5q0 89 -187 113l88 176h119l-53 -109q178 -38 178 -176z"/>
<glyph glyph-name="uni0229" horiz-adv-x="1155" unicode="ȩ" d="M596 971q-129 0 -204 -83t-89 -231h559q-2 154 -71 234t-195 80zM641 -20q-247 0 -387.5 149.5t-140.5 411.5q0 264 131 420.5t354 156.5q207 0 330 -133.5t123 -361.5v-109h-752q5 -187 95 -284t255 -97q88 0 167 15.5t185 60.5v-158q-91 -39 -171 -55t-189 -16z M801 -285q0 -99 -75.5 -153t-227.5 -54q-65 0 -102 11v112q36 -10 108 -10q75 0 113.5 19.5t38.5 70.5q0 89 -187 113l88 176h119l-53 -109q178 -38 178 -176z"/>
<glyph glyph-name="uni022A" horiz-adv-x="1599" unicode="Ȫ" d="M319 733q0 -290 123 -442t359 -152q235 0 357 150t122 444q0 293 -121 441.5t-356 148.5q-238 0 -361 -150.5t-123 -439.5zM1475 733q0 -351 -177.5 -552t-496.5 -201q-323 0 -499.5 197.5t-176.5 557.5q0 357 175.5 553.5t502.5 196.5q318 0 495 -199.5t177 -552.5z M496 2077h608v-145h-608v145zM703 1696q0 -53 -28 -76.5t-67 -23.5q-46 0 -71 27t-25 73q0 53 29 78t67 25q39 0 67 -25t28 -78zM1088 1696q0 -48 -25.5 -74t-71.5 -26t-71 27t-25 73q0 53 29 78t67 25q41 0 69 -25t28 -78z"/>
<glyph glyph-name="uni022B" horiz-adv-x="1239" unicode="ȫ" d="M299 551q0 -207 81.5 -314.5t240.5 -107.5q157 0 239 107.5t82 314.5t-82.5 311.5t-241.5 104.5q-319 0 -319 -416zM1128 551q0 -269 -136 -420t-376 -151q-149 0 -264 69.5t-177 199.5t-62 302q0 268 134 417.5t376 149.5q232 0 368.5 -152.5t136.5 -414.5zM316 1712 h608v-145h-608v145zM523 1331q0 -53 -28 -76.5t-67 -23.5q-46 0 -71 27t-25 73q0 53 29 78t67 25q39 0 67 -25t28 -78zM908 1331q0 -48 -25.5 -74t-71.5 -26t-71 27t-25 73q0 53 29 78t67 25q41 0 69 -25t28 -78z"/>
<glyph glyph-name="uni022C" horiz-adv-x="1599" unicode="Ȭ" d="M319 733q0 -290 123 -442t359 -152q235 0 357 150t122 444q0 293 -121 441.5t-356 148.5q-238 0 -361 -150.5t-123 -439.5zM1475 733q0 -351 -177.5 -552t-496.5 -201q-323 0 -499.5 197.5t-176.5 557.5q0 357 175.5 553.5t502.5 196.5q318 0 495 -199.5t177 -552.5z M494 2077h608v-145h-608v145zM944 1606q-39 0 -77.5 15.5t-75 33.5t-71.5 33.5t-66 15.5q-38 0 -59 -22t-36 -78h-104q10 112 62 173t137 61q42 0 82 -15.5t76.5 -34t70 -34t63.5 -15.5q43 0 62 27t33 74h102q-11 -112 -61.5 -173t-137.5 -61z"/>
<glyph glyph-name="uni022D" horiz-adv-x="1239" unicode="ȭ" d="M299 551q0 -207 81.5 -314.5t240.5 -107.5q157 0 239 107.5t82 314.5t-82.5 311.5t-241.5 104.5q-319 0 -319 -416zM1128 551q0 -269 -136 -420t-376 -151q-149 0 -264 69.5t-177 199.5t-62 302q0 268 134 417.5t376 149.5q232 0 368.5 -152.5t136.5 -414.5zM313 1712 h608v-145h-608v145zM763 1241q-39 0 -77.5 15.5t-75 33.5t-71.5 33.5t-66 15.5q-38 0 -59 -22t-36 -78h-104q10 112 62 173t137 61q42 0 82 -15.5t76.5 -34t70 -34t63.5 -15.5q43 0 62 27t33 74h102q-11 -112 -61.5 -173t-137.5 -61z"/>
<glyph glyph-name="uni022E" horiz-adv-x="1599" unicode="Ȯ" d="M319 733q0 -290 123 -442t359 -152q235 0 357 150t122 444q0 293 -121 441.5t-356 148.5q-238 0 -361 -150.5t-123 -439.5zM1475 733q0 -351 -177.5 -552t-496.5 -201q-323 0 -499.5 197.5t-176.5 557.5q0 357 175.5 553.5t502.5 196.5q318 0 495 -199.5t177 -552.5z M695 1733q0 60 30.5 87t75.5 27q42 0 73.5 -27t31.5 -87q0 -59 -31.5 -87t-73.5 -28q-45 0 -75.5 28t-30.5 87z"/>
<glyph glyph-name="uni022F" horiz-adv-x="1239" unicode="ȯ" d="M299 551q0 -207 81.5 -314.5t240.5 -107.5q157 0 239 107.5t82 314.5t-82.5 311.5t-241.5 104.5q-319 0 -319 -416zM1128 551q0 -269 -136 -420t-376 -151q-149 0 -264 69.5t-177 199.5t-62 302q0 268 134 417.5t376 149.5q232 0 368.5 -152.5t136.5 -414.5zM514 1395 q0 60 30.5 87t75.5 27q42 0 73.5 -27t31.5 -87q0 -59 -31.5 -87t-73.5 -28q-45 0 -75.5 28t-30.5 87z"/>
<glyph glyph-name="uni0230" horiz-adv-x="1599" unicode="Ȱ" d="M319 733q0 -290 123 -442t359 -152q235 0 357 150t122 444q0 293 -121 441.5t-356 148.5q-238 0 -361 -150.5t-123 -439.5zM1475 733q0 -351 -177.5 -552t-496.5 -201q-323 0 -499.5 197.5t-176.5 557.5q0 357 175.5 553.5t502.5 196.5q318 0 495 -199.5t177 -552.5z M494 2050h608v-145h-608v145zM695 1692q0 60 30.5 87t75.5 27q48 0 76 -30.5t28 -83.5q0 -54 -29 -84.5t-75 -30.5q-45 0 -75.5 28t-30.5 87z"/>
<glyph glyph-name="uni0231" horiz-adv-x="1239" unicode="ȱ" d="M299 551q0 -207 81.5 -314.5t240.5 -107.5q157 0 239 107.5t82 314.5t-82.5 311.5t-241.5 104.5q-319 0 -319 -416zM1128 551q0 -269 -136 -420t-376 -151q-149 0 -264 69.5t-177 199.5t-62 302q0 268 134 417.5t376 149.5q232 0 368.5 -152.5t136.5 -414.5zM316 1714 h608v-145h-608v145zM517 1356q0 60 30.5 87t75.5 27q48 0 76 -30.5t28 -83.5q0 -54 -29 -84.5t-75 -30.5q-45 0 -75.5 28t-30.5 87z"/>
<glyph glyph-name="uni0232" horiz-adv-x="1159" unicode="Ȳ" d="M580 743l381 719h198l-487 -895v-567h-185v559l-487 903h201zM277 1724h608v-145h-608v145z"/>
<glyph glyph-name="uni0233" horiz-adv-x="1044" unicode="ȳ" d="M2 1098h193l237 -625q75 -204 92 -299h8q9 37 41 138.5t54 162.5l223 623h194l-473 -1250q-69 -182 -164 -261t-235 -79q-75 0 -149 17v143q50 -12 120 -12q86 0 146 47.5t98 146.5l57 146zM220 1386h608v-145h-608v145z"/>
<glyph glyph-name="uni0234" horiz-adv-x="780" unicode="ȴ" d="M485 119q60 0 85.5 30.5t25.5 75.5q0 53 -31.5 80t-85.5 27q-62 0 -125 -49q7 -164 131 -164zM174 1556h180v-1110q63 25 140 25q124 0 195 -68.5t71 -177.5q0 -114 -71 -179.5t-202 -65.5q-94 0 -161 35.5t-105 95.5q-30 -61 -69 -172l-138 61q74 200 160 309v1247z"/>
<glyph glyph-name="uni0235" horiz-adv-x="1526" unicode="ȵ" d="M1231 119q52 0 81 26.5t29 79.5t-31 80t-85 27q-62 0 -125 -49q7 -164 131 -164zM1100 446q63 25 139 25q124 0 195 -68.5t71 -177.5q0 -114 -69.5 -179.5t-202.5 -65.5q-181 0 -264 131q-30 -57 -70 -172l-137 61q74 200 160 309v393q0 134 -59.5 199.5t-186.5 65.5 q-169 0 -245.5 -93.5t-76.5 -304.5v-569h-180v1098h145l27 -150h10q51 81 143 125.5t203 44.5q202 0 300 -98t98 -305v-269z"/>
<glyph glyph-name="uni0236" horiz-adv-x="795" unicode="ȶ" d="M500 119q52 0 81 26.5t29 79.5t-31 80t-85 27q-62 0 -125 -49q7 -164 131 -164zM188 958h-155v86l157 72l72 234h107v-252h317v-140h-317v-512q63 25 139 25q124 0 195 -68.5t71 -177.5q0 -114 -69.5 -179.5t-202.5 -65.5q-94 0 -161 35.5t-105 95.5q-30 -57 -70 -172 l-137 61q75 203 159 309v649z"/>
<glyph glyph-name="uni0237" horiz-adv-x="528" unicode="ȷ" d="M45 -492q-94 0 -158 25v145q69 -20 136 -20q78 0 114.5 42.5t36.5 129.5v1268h180v-1262q0 -164 -78.5 -246t-230.5 -82z"/>
<glyph glyph-name="uni0238" horiz-adv-x="1991" unicode="ȸ" d="M604 129q145 0 224 112.5t79 313.5q0 226 -75.5 320t-241.5 94q-139 0 -215 -110.5t-76 -315.5q0 -204 77.5 -309t227.5 -105zM1391 129q301 0 301 422q0 208 -73 312t-224 104q-166 0 -238 -94t-72 -318q0 -426 306 -426zM598 -20q-235 0 -360 145t-125 422 q0 269 118.5 420t333.5 151q221 0 340 -162h13q-4 26 -8.5 92t-4.5 123v385h180v-378q0 -113 -10 -226h10q111 164 340 164q217 0 335 -149.5t118 -417.5q0 -276 -126.5 -422.5t-362.5 -146.5q-282 0 -396 256q-114 -256 -395 -256z"/>
<glyph glyph-name="uni0239" horiz-adv-x="1991" unicode="ȹ" d="M1386 969q-144 0 -223.5 -112t-79.5 -314q0 -223 74.5 -318.5t243.5 -95.5q139 0 215 110.5t76 315.5q0 204 -77.5 309t-228.5 105zM600 969q-301 0 -301 -422q0 -209 72.5 -312.5t224.5 -103.5q165 0 237 94.5t72 317.5q0 426 -305 426zM1393 1118q235 0 360 -145 t125 -422q0 -269 -118.5 -420t-334.5 -151q-222 0 -340 161h-12l4 -35q8 -75 8 -180v-418h-180v412q0 112 10 225h-10q-107 -163 -340 -163q-215 0 -333.5 149t-118.5 418q0 276 126.5 422.5t362.5 146.5q281 0 395 -256q58 132 161 194t235 62z"/>
<glyph glyph-name="uni023A" horiz-adv-x="1309" unicode="Ⱥ" d="M786 881l-92 -265h191zM559 616l158 455q-40 113 -66 207q-30 -120 -63 -219l-166 -443h137zM1022 1556l-152 -434l437 -1122h-191l-176 453h-303l-209 -607h-137l211 607h-142l-174 -453h-186l571 1468h166l62 -159l86 247h137z"/>
<glyph glyph-name="uni023B" horiz-adv-x="1294" unicode="Ȼ" d="M825 1321q-236 0 -371 -158t-135 -432q0 -375 222 -516l383 1098q-40 8 -99 8zM1145 1556l-39 -112q61 -16 125 -47l-74 -156q-73 32 -108 43l-390 -1122q73 -21 164 -21q156 0 351 58v-160q-93 -34 -179 -46.5t-198 -12.5q-95 0 -193 20l-53 -154h-137l67 195 q-175 82 -265.5 259t-90.5 433q0 226 83.5 396t243 262t375.5 92q78 0 152 -10l29 83h137z"/>
<glyph glyph-name="uni023C" horiz-adv-x="983" unicode="ȼ" d="M299 545q0 -198 76 -301l256 717h-8q-166 0 -245 -104.5t-79 -311.5zM981 1556l-166 -462q57 -16 100 -35l-55 -150q-63 23 -98 31l-279 -782q57 -23 129 -23q145 0 285 64v-160q-114 -59 -283 -59q-93 0 -186 26l-154 -432h-137l174 489q-198 144 -198 480 q0 276 133.5 425.5t380.5 149.5h30l29 -2l158 440h137z"/>
<glyph glyph-name="uni023D" horiz-adv-x="1073" unicode="Ƚ" d="M20 825h179v637h184v-637h348v-145h-348v-516h639v-164h-823v680h-179v145z"/>
<glyph glyph-name="uni023E" horiz-adv-x="1139" unicode="Ⱦ" d="M662 997l141 303h-141v-303zM1065 1556l-45 -94h96v-162h-170l-284 -612v-688h-185v291l-207 -445h-143l350 754v700h-457v162h857l45 94h143z"/>
<glyph glyph-name="uni023F" horiz-adv-x="981" unicode="ȿ" d="M481 -18q37 -54 60 -152q34 -172 215 -172q39 0 83.5 9t63.5 18v-148q-70 -29 -166 -29q-163 0 -248 75t-116 247q-27 142 -154 176q-69 18 -113 43v164q181 -88 349 -88q136 0 198 44t62 118q0 65 -59.5 110t-211.5 103q-155 60 -218 102.5t-92.5 95.5t-29.5 129 q0 135 110 213t302 78q187 0 350 -74l-61 -143q-167 70 -301 70q-112 0 -170 -35.5t-58 -97.5q0 -60 50 -99.5t233 -109.5q137 -51 202.5 -95t96.5 -99t31 -132q0 -147 -105 -230.5t-303 -90.5z"/>
<glyph glyph-name="uni0240" horiz-adv-x="963" unicode="ɀ" d="M287 139q112 -20 178 -93.5t102 -215.5q23 -91 80.5 -131.5t157.5 -40.5q70 0 135 23v-148q-59 -25 -147 -25q-167 0 -259 72t-141 250q-26 97 -80.5 133.5t-160.5 36.5h-72v119l590 839h-555v140h753v-135z"/>
<glyph glyph-name="uni0241" horiz-adv-x="918" unicode="Ɂ" d="M254 0v659q180 55 287.5 168t107.5 258q0 115 -69 175.5t-197 60.5q-74 0 -163 -28t-148 -72l-68 147q75 54 178 84.5t209 30.5q211 0 332 -104.5t121 -286.5q0 -168 -104 -306.5t-302 -230.5v-555h-184z"/>
<glyph glyph-name="uni0242" horiz-adv-x="893" unicode="ɂ" d="M254 0v295q179 55 280 167.5t101 258.5q0 248 -252 248q-70 0 -148 -26.5t-143 -74.5l-67 136q158 114 366 114q204 0 316 -101.5t112 -289.5q0 -166 -100 -303t-285 -223v-201h-180z"/>
<glyph glyph-name="uni0243" horiz-adv-x="1331" unicode="Ƀ" d="M383 840h270q172 0 250 55t78 184q0 120 -85.5 173t-270.5 53h-242v-465zM383 686v-176h303v-160h-303v-194h295q176 0 261 68t85 206q0 131 -90 193.5t-270 62.5h-281zM199 350h-168v160h168v952h417q294 0 424.5 -87.5t130.5 -274.5q0 -130 -71 -214.5t-207 -109.5v-10 q169 -29 248.5 -117t79.5 -233q0 -196 -134 -306t-374 -110h-514v350z"/>
<glyph glyph-name="uni0244" horiz-adv-x="1497" unicode="Ʉ" d="M752 139q181 0 278.5 97t97.5 280v209h-759v-211q0 -179 95.5 -277t287.5 -98zM1311 1462v-577h166v-160h-166v-209q0 -250 -151 -393t-419 -143q-265 0 -411 144.5t-146 395.5v205h-164v160h164v577h185v-577h759v577h183z"/>
<glyph glyph-name="uni0245" horiz-adv-x="1245" unicode="Ʌ" d="M717 1462l526 -1462h-194l-324 922q-73 207 -107 340q-20 -99 -102 -338l-321 -924h-195l524 1462h193z"/>
<glyph glyph-name="uni0246" horiz-adv-x="1139" unicode="Ɇ" d="M383 162h70l133 522h-203v-522zM383 844h244l114 456h-358v-456zM940 1556l-25 -94h101v-162h-142l-116 -456h221v-160h-262l-131 -522h430v-162h-471l-39 -154h-133l39 154h-213v1462h583l25 94h133z"/>
<glyph glyph-name="uni0247" horiz-adv-x="1155" unicode="ɇ" d="M299 514q4 -180 88 -276l96 276h-184zM862 657q-4 184 -102 263l-90 -263h192zM596 971q-129 0 -204 -83t-89 -231h229l107 310zM158 -426l170 492q-215 143 -215 475q0 264 131 420.5t354 156.5q31 0 90 -8l156 446h137l-168 -485q113 -57 175.5 -173t62.5 -275v-109 h-430l-123 -354q62 -27 151 -27q88 0 167 15.5t185 60.5v-158q-91 -39 -171 -55t-189 -16q-107 0 -197 28l-149 -434h-137z"/>
<glyph glyph-name="uni0248" horiz-adv-x="559" unicode="Ɉ" d="M-8 -389q-94 0 -152 27v155q71 -20 148 -20q100 0 150 60.5t50 174.5v635h-168v160h168v659h185v-659h166v-160h-166v-620q0 -198 -98.5 -305t-282.5 -107z"/>
<glyph glyph-name="uni0249" horiz-adv-x="528" unicode="ɉ" d="M160 1395q0 60 30.5 87t75.5 27q42 0 73.5 -27t31.5 -87q0 -59 -31.5 -87t-73.5 -28q-45 0 -75.5 28t-30.5 87zM45 -492q-94 0 -158 25v145q69 -20 136 -20q78 0 114.5 42.5t36.5 129.5v678h-154v145h154v445h180v-445h154v-145h-154v-672q0 -164 -78.5 -246t-230.5 -82z "/>
<glyph glyph-name="uni024A" horiz-adv-x="1571" unicode="Ɋ" d="M1186 41q0 54 8 147h-10q-57 -96 -171.5 -152t-279.5 -56q-187 0 -325 91t-210.5 262t-72.5 400q0 353 163.5 551.5t454.5 198.5q144 0 263 -55t178 -154h10l31 188h145v-1624q0 -87 29 -127.5t100 -40.5q50 0 92 21v-156q-47 -27 -114 -27q-291 0 -291 322v211z M739 1323q-199 0 -310.5 -155.5t-111.5 -436.5q0 -277 111 -434.5t313 -157.5q158 0 256 46t143.5 137t45.5 251v316q0 161 -46 252t-145 136.5t-256 45.5z"/>
<glyph glyph-name="uni024B" horiz-adv-x="1260" unicode="ɋ" d="M905 -23q0 110 10 170h-12q-115 -167 -344 -167q-212 0 -329 150t-117 417q0 268 119.5 419.5t332.5 151.5q225 0 342 -170h8l27 150h143v-1245q0 -112 22.5 -154.5t78.5 -42.5q64 0 102 22v-137q-42 -33 -143 -33q-240 0 -240 342v127zM594 129q161 0 235 88t78 291v37 q0 227 -76 325.5t-241 98.5q-141 0 -216 -111t-75 -315q0 -201 74.5 -307.5t220.5 -106.5z"/>
<glyph glyph-name="uni024C" horiz-adv-x="1274" unicode="Ɍ" d="M383 760h219q178 0 260 70t82 208t-83 201.5t-269 63.5h-209v-543zM383 604v-604h-184v604h-179v156h179v702h403q272 0 402.5 -103.5t130.5 -311.5q0 -291 -293 -392l401 -655h-215l-354 604h-291z"/>
<glyph glyph-name="uni024D" horiz-adv-x="846" unicode="ɍ" d="M612 508h-258v-508h-180v508h-154v145h154v445h148l20 -201h8q63 109 149 165t187 56q73 0 129 -12l-22 -166q-61 14 -119 14q-117 0 -206.5 -83t-109.5 -218h254v-145z"/>
<glyph glyph-name="uni024E" horiz-adv-x="1159" unicode="Ɏ" d="M580 743l157 297h-315zM338 1200h483l140 262h198l-143 -262h123v-160h-209l-258 -473v-567h-185v559l-260 481h-207v160h121l-141 262h201z"/>
<glyph glyph-name="uni024F" horiz-adv-x="1044" unicode="ɏ" d="M532 174q25 106 136 416h-281q63 -165 93.5 -254t43.5 -162h8zM205 590h-185v145h127l-145 363h193l137 -363h387l131 363h194l-137 -363h117v-145h-172l-281 -742q-69 -182 -164 -261t-235 -79q-75 0 -149 17v143q50 -12 120 -12q86 0 146 47.5t98 146.5l57 146z"/>
<glyph glyph-name="uni0250" horiz-adv-x="1149" unicode="ɐ" d="M668 971q-151 0 -237.5 -81.5t-86.5 -231.5v-99l162 7q189 7 275.5 60t86.5 167q0 86 -52.5 132t-147.5 46zM297 1096l35 -156h8q82 103 163.5 139.5t205.5 36.5q162 0 254 -85t92 -240q0 -334 -527 -350l-186 -7v-65q0 -125 54 -184.5t173 -59.5q87 0 164.5 26t145.5 58 l55 -135q-83 -44 -181 -69t-194 -25q-199 0 -296 88t-97 280v748h131z"/>
<glyph glyph-name="uni0251" horiz-adv-x="1260" unicode="ɑ" d="M592 129q164 0 239.5 89.5t75.5 293.5v33q0 229 -76.5 326.5t-240.5 97.5q-139 0 -215 -110.5t-76 -315.5q0 -204 75.5 -309t217.5 -105zM563 -20q-214 0 -332 148t-118 419q0 269 118.5 420t333.5 151q221 0 340 -162h8l29 142h143v-1098h-145l-27 147h-8 q-115 -167 -342 -167z"/>
<glyph glyph-name="uni0252" horiz-adv-x="1260" unicode="ɒ" d="M668 969q-164 0 -239.5 -89.5t-75.5 -293.5v-33q0 -229 76.5 -326.5t240.5 -97.5q139 0 215 110.5t76 315.5q0 204 -75.5 309t-217.5 105zM697 1118q214 0 332 -148t118 -419q0 -269 -118.5 -420t-333.5 -151q-221 0 -340 162h-8l-29 -142h-143v1098h145l27 -147h8 q115 167 342 167z"/>
<glyph glyph-name="uni0253" horiz-adv-x="1260" unicode="ɓ" d="M664 967q-166 0 -238 -94t-72 -318v-8q0 -225 73.5 -321.5t240.5 -96.5q148 0 220.5 108.5t72.5 313.5q0 208 -73 312t-224 104zM174 1280q0 287 248 287q69 0 135 -27v-149q-47 20 -106 20q-47 0 -72 -27t-25 -92v-114q0 -113 -10 -226h10q111 164 340 164 q217 0 335 -149.5t118 -417.5q0 -272 -120 -420.5t-333 -148.5q-111 0 -198 40t-142 119h-14q-31 -120 -37 -139h-129v1280z"/>
<glyph glyph-name="uni0254" horiz-adv-x="983" unicode="ɔ" d="M86 199q140 -64 279 -64q165 0 242 105.5t77 312.5q0 198 -80 304t-242 106q-55 0 -122 -14.5t-117 -39.5l-55 150q49 25 129 42t174 17q237 0 368 -146.5t131 -416.5q0 -279 -133.5 -427t-374.5 -148q-162 0 -276 59v160z"/>
<glyph glyph-name="uni0255" horiz-adv-x="1087" unicode="ɕ" d="M676 371q-151 0 -270 -148q82 -94 233 -94q87 0 139.5 38.5t52.5 98.5q0 48 -40.5 76.5t-114.5 28.5zM641 -20q-205 0 -330 98q-43 -81 -75 -178l-138 63q43 126 107 236q-78 133 -78 344q0 276 133.5 425.5t380.5 149.5q84 0 161.5 -17t127.5 -42l-56 -150 q-139 52 -237 52q-324 0 -324 -416q0 -105 21 -183q160 158 354 158q142 0 227.5 -67.5t85.5 -182.5q0 -133 -99.5 -211.5t-260.5 -78.5z"/>
<glyph glyph-name="uni0256" horiz-adv-x="1260" unicode="ɖ" d="M592 129q164 0 239.5 89.5t75.5 293.5v33q0 229 -76.5 326.5t-240.5 97.5q-139 0 -215 -110.5t-76 -315.5q0 -204 75.5 -309t217.5 -105zM1085 -147q0 -106 24.5 -151.5t92.5 -45.5q73 0 117 22v-137q-47 -33 -156 -33q-258 0 -258 342v130q0 24 5 83.5t8 77.5h-13 q-118 -161 -340 -161q-215 0 -333.5 149t-118.5 418t118.5 420t333.5 151q221 0 340 -162h13q-3 20 -8 80.5t-5 81.5v438h180v-1703z"/>
<glyph glyph-name="uni0257" horiz-adv-x="1260" unicode="ɗ" d="M592 129q164 0 239.5 89.5t75.5 293.5v33q0 229 -76.5 326.5t-240.5 97.5q-139 0 -215 -110.5t-76 -315.5q0 -204 75.5 -309t217.5 -105zM905 1280q0 287 248 287q72 0 135 -27v-149q-47 20 -106 20q-47 0 -72 -27t-25 -92v-1292h-145l-27 147h-8q-115 -167 -342 -167 q-214 0 -332 148t-118 419q0 269 118.5 420t333.5 151q221 0 340 -162h13q-3 20 -8 80.5t-5 81.5v162z"/>
<glyph glyph-name="uni0258" horiz-adv-x="1155" unicode="ɘ" d="M559 971q-126 0 -195 -80t-71 -234h559q-14 148 -89 231t-204 83zM514 -20q-109 0 -189 16t-171 55v158q106 -45 185 -60.5t167 -15.5q165 0 255 97t95 284h-752v109q0 228 123 361.5t330 133.5q223 0 354 -156.5t131 -420.5q0 -262 -140.5 -411.5t-387.5 -149.5z"/>
<glyph glyph-name="uni0259" horiz-adv-x="1155" unicode="ə" d="M559 127q129 0 204 83t89 230h-559q2 -151 70 -232t196 -81zM514 1118q248 0 388 -149.5t140 -411.5q0 -264 -131 -420.5t-354 -156.5q-207 0 -330 133.5t-123 361.5v109h752q-5 186 -95 283.5t-255 97.5q-88 0 -167 -15.5t-185 -60.5v158q91 39 171 55t189 16z"/>
<glyph glyph-name="uni025A" horiz-adv-x="1563" unicode="ɚ" d="M559 127q92 0 159.5 44.5t102.5 129t35 248.5l-561 -152q11 -130 78.5 -200t185.5 -70zM1563 426q-115 -78 -238 -78q-183 0 -258 258l-27 -6l2 -21v-22q0 -264 -131 -420.5t-354 -156.5q-207 0 -330 133.5t-123 361.5v17l740 200q-28 133 -113.5 203t-224.5 70 q-88 0 -167 -15.5t-185 -60.5v158q91 39 171 55t189 16q196 0 329 -98.5t177 -278.5l174 47l35 -122q23 -85 54 -122.5t77 -37.5q82 0 166 55z"/>
<glyph glyph-name="uni025B" horiz-adv-x="989" unicode="ɛ" d="M727 645v-147h-149q-310 0 -310 -189q0 -89 74 -135.5t217 -46.5q85 0 170.5 19.5t185.5 66.5v-158q-139 -75 -366 -75q-220 0 -340.5 85.5t-120.5 233.5q0 99 56.5 164.5t187.5 103.5v11q-99 28 -152 92t-53 157q0 135 115.5 213t306.5 78q111 0 197.5 -18.5 t173.5 -59.5l-68 -143q-99 44 -165 58t-140 14q-248 0 -248 -156q0 -168 313 -168h115z"/>
<glyph glyph-name="uni025C" horiz-adv-x="1004" unicode="ɜ" d="M391 645q311 0 311 168q0 156 -249 156q-79 0 -147 -15t-163 -55l-63 143q171 76 383 76q193 0 302 -77t109 -212q0 -187 -206 -243v-8q125 -36 184 -104t59 -171q0 -151 -125 -237t-344 -86q-242 0 -374 71v162q183 -86 372 -86q141 0 217 47t76 139q0 94 -77 139.5 t-236 45.5h-148v147h119z"/>
<glyph glyph-name="uni025D" horiz-adv-x="1331" unicode="ɝ" d="M391 645q311 0 311 168q0 156 -249 156q-79 0 -147 -15t-163 -55l-63 143q171 76 383 76q145 0 245 -45.5t142 -130.5l111 31l34 -123q23 -85 54 -122.5t77 -37.5q79 0 166 55l39 -133q-49 -34 -111.5 -57t-125.5 -23q-168 0 -244 185q-47 -95 -182 -131v-8 q125 -36 184 -104t59 -171q0 -151 -125 -237t-344 -86q-242 0 -374 71v162q183 -86 372 -86q141 0 217 47t76 139q0 94 -77 139.5t-236 45.5h-148v147h119z"/>
<glyph glyph-name="uni025E" horiz-adv-x="1229" unicode="ɞ" d="M664 1118q204 0 320 -76.5t116 -212.5q0 -186 -207 -243v-8q127 -36 185.5 -104t58.5 -171q0 -150 -127 -236.5t-353 -86.5q-259 0 -401.5 148t-142.5 423q0 271 144 419t407 148zM659 967q-183 0 -271.5 -104t-88.5 -312q0 -214 87 -318t276 -104q296 0 296 184 q0 94 -77 139.5t-236 45.5h-86v147h57q312 0 312 168q0 154 -269 154z"/>
<glyph glyph-name="uni025F" horiz-adv-x="528" unicode="ɟ" d="M20 653h154v445h180v-445h154v-145h-154v-672q0 -164 -78.5 -246t-230.5 -82q-94 0 -158 25v145q69 -20 136 -20q78 0 114.5 42.5t36.5 129.5v678h-154v145z"/>
<glyph glyph-name="uni0260" horiz-adv-x="1260" unicode="ɠ" d="M590 127q166 0 241.5 89.5t75.5 287.5v43q0 220 -76 320t-245 100q-138 0 -213.5 -109.5t-75.5 -312.5q0 -204 73.5 -311t219.5 -107zM197 -256q160 -86 405 -86q140 0 221.5 82t81.5 227v43l6 135h-8q-111 -165 -340 -165q-213 0 -332.5 148.5t-119.5 418.5 q0 265 120.5 418t329.5 153q223 0 344 -166h13q-13 117 -13 181v147q0 287 250 287q70 0 133 -27v-149q-47 20 -106 20q-99 0 -99 -119v-1310q0 -236 -119.5 -355t-371.5 -119q-240 0 -395 70v166z"/>
<glyph glyph-name="uni0261" horiz-adv-x="1260" unicode="ɡ" d="M907 10l6 135h-8q-111 -165 -340 -165q-213 0 -332.5 148.5t-119.5 418.5q0 265 120.5 418t329.5 153q223 0 344 -166h11l24 146h143v-1116q0 -236 -119.5 -355t-371.5 -119q-240 0 -395 70v166q160 -86 405 -86q140 0 221.5 82t81.5 227v43zM592 127q166 0 241.5 89.5 t75.5 287.5v43q0 220 -76 320t-245 100q-138 0 -213.5 -109.5t-75.5 -312.5q0 -204 73.5 -311t219.5 -107z"/>
<glyph glyph-name="uni0262" horiz-adv-x="1176" unicode="ɢ" d="M1028 57q-120 -43 -214 -60t-200 -17q-237 0 -369 145.5t-132 417.5q0 276 145.5 425.5t403.5 149.5q227 0 350 -74l-66 -155q-146 72 -274 72q-373 0 -373 -416q0 -199 79 -304.5t234 -105.5q131 0 236 29v301h-236v145h416v-553z"/>
<glyph glyph-name="uni0263" horiz-adv-x="1040" unicode="ɣ" d="M594 -229q0 50 -20.5 115.5t-55.5 123.5q-36 -60 -56 -123.5t-20 -113.5q0 -59 22.5 -85t53.5 -26t53.5 25t22.5 84zM621 162q81 -159 107 -242.5t26 -152.5q0 -111 -66.5 -182.5t-169.5 -71.5q-106 0 -170.5 71.5t-64.5 182.5q0 79 28.5 167t104.5 228l-416 936h193 l208 -494q60 -141 81 -200t32 -105h8q9 33 27 80t39.5 102t259.5 617h192z"/>
<glyph glyph-name="uni0264" horiz-adv-x="1040" unicode="ɤ" d="M614 535q140 -191 140 -324q0 -103 -64 -166t-172 -63t-171.5 63t-63.5 168q0 72 28 141.5t111 180.5l-283 383q-38 53 -84 53q-24 0 -61 -10v133q46 24 104 24q52 0 87.5 -20.5t74.5 -75.5q195 -269 218 -305.5t36 -69.5h8q33 60 101 160l155 215q39 54 75.5 75t86.5 21 q59 0 104 -24v-133q-37 10 -61 10q-46 0 -80 -47zM594 221q0 88 -76 191q-76 -107 -76 -189q0 -49 22.5 -70.5t53.5 -21.5t53.5 20.5t22.5 69.5z"/>
<glyph glyph-name="uni0265" horiz-adv-x="1266" unicode="ɥ" d="M344 1098v-703q0 -133 59.5 -198.5t186.5 -65.5q167 0 244 92t77 307v568h181v-1590h-181v490q0 84 11 154h-13q-50 -81 -139.5 -125.5t-202.5 -44.5q-205 0 -303 97.5t-98 303.5v715h178z"/>
<glyph glyph-name="uni0266" horiz-adv-x="1266" unicode="ɦ" d="M174 1280q0 287 250 287q67 0 133 -27v-149q-47 20 -106 20q-47 0 -72 -27t-25 -92v-192q0 -90 -10 -154h12q49 80 139 125t203 45q200 0 301 -95.5t101 -305.5v-715h-178v702q0 134 -59.5 199.5t-186.5 65.5q-167 0 -244.5 -93t-77.5 -307v-567h-180v1280z"/>
<glyph glyph-name="uni0267" horiz-adv-x="1266" unicode="ɧ" d="M922 702q0 134 -59.5 199.5t-186.5 65.5q-167 0 -244.5 -93t-77.5 -307v-567h-180v1280q0 287 250 287q67 0 133 -27v-149q-47 20 -106 20q-47 0 -72 -27t-25 -92v-192q0 -90 -10 -154h12q49 80 139 125t203 45q200 0 301 -95.5t101 -305.5v-920q0 -287 -248 -287 q-67 0 -133 27v150q42 -21 106 -21q47 0 72 27t25 92v919z"/>
<glyph glyph-name="uni0268" horiz-adv-x="528" unicode="ɨ" d="M160 1395q0 60 30.5 87t75.5 27q42 0 73.5 -27t31.5 -87q0 -59 -31.5 -87t-73.5 -28q-45 0 -75.5 28t-30.5 87zM354 653h154v-145h-154v-508h-180v508h-154v145h154v445h180v-445z"/>
<glyph glyph-name="uni0269" horiz-adv-x="709" unicode="ɩ" d="M346 1098v-774q0 -99 37 -148t121 -49q44 0 93 7.5t75 15.5v-138q-27 -12 -83 -22t-110 -10q-164 0 -237.5 85t-73.5 257v776h178z"/>
<glyph glyph-name="uni026A" horiz-adv-x="655" unicode="ɪ" d="M582 0h-508v106l164 35v813l-164 37v107h508v-107l-164 -37v-813l164 -35v-106z"/>
<glyph glyph-name="uni026B" horiz-adv-x="774" unicode="ɫ" d="M541 659q-29 0 -64 11v-670h-180v758q-43 18 -70 18q-49 0 -73.5 -29.5t-38.5 -89.5h-105q13 122 70.5 192.5t155.5 70.5q26 0 61 -11v647h180v-735q43 -18 72 -18q48 0 72.5 29.5t40.5 89.5h102q-12 -123 -70.5 -193t-152.5 -70z"/>
<glyph glyph-name="uni026C" horiz-adv-x="717" unicode="ɬ" d="M215 889q-40 0 -56 -20.5t-16 -45.5q0 -67 88 -67h72v22q0 111 -88 111zM217 608q-116 0 -176.5 55.5t-60.5 159.5q0 99 57.5 156t161.5 57q65 0 104 -37v557h180v-800h213v-148h-213v-608h-180v608h-86z"/>
<glyph glyph-name="uni026D" horiz-adv-x="526" unicode="ɭ" d="M352 1556v-1703q0 -100 37 -148.5t121 -48.5q75 0 139 22v-137q-68 -33 -164 -33q-164 0 -237.5 85t-73.5 257v1706h178z"/>
<glyph glyph-name="uni026E" horiz-adv-x="1346" unicode="ɮ" d="M354 1098h867v-131l-449 -500q235 -16 369.5 -140t134.5 -325q0 -144 -67 -256.5t-191.5 -175t-284.5 -62.5q-239 0 -379 72v164q183 -86 387 -86q162 0 258.5 93t96.5 247q0 157 -104 241.5t-310 84.5h-121v125l449 497h-656v-946h-180v1556h180v-458z"/>
<glyph glyph-name="uni026F" horiz-adv-x="1915" unicode="ɯ" d="M344 1098v-707q0 -260 223 -260q153 0 225 89t72 272v606h179v-707q0 -130 54.5 -195t170.5 -65q152 0 222.5 93t70.5 305v569h180v-1098h-145l-27 150h-10q-47 -80 -132.5 -125t-191.5 -45q-258 0 -336 184h-10q-53 -88 -144.5 -136t-207.5 -48q-186 0 -278.5 96 t-92.5 307v715h178z"/>
<glyph glyph-name="uni0270" horiz-adv-x="1915" unicode="ɰ" d="M1561 -492v480q0 15 4.5 84.5t7.5 77.5h-14q-50 -83 -135 -126.5t-189 -43.5q-258 0 -336 184h-10q-53 -88 -144.5 -136t-207.5 -48q-186 0 -278.5 95.5t-92.5 307.5v715h178v-707q0 -260 223 -260q152 0 224.5 87.5t72.5 273.5v606h178v-707q0 -130 55 -195t171 -65 q152 0 222.5 93.5t70.5 303.5v570h180v-1590h-180z"/>
<glyph glyph-name="uni0271" horiz-adv-x="1915" unicode="ɱ" d="M1571 707q0 260 -223 260q-153 0 -225 -89t-72 -272v-606h-179v707q0 130 -54.5 195t-170.5 65q-152 0 -222.5 -93t-70.5 -305v-569h-180v1098h145l27 -150h10q47 80 132.5 125t191.5 45q258 0 336 -184h10q53 88 144.5 136t207.5 48q186 0 278.5 -96t92.5 -307v-920 q0 -287 -248 -287q-67 0 -133 27v150q42 -21 107 -21q96 0 96 119v924z"/>
<glyph glyph-name="uni0272" horiz-adv-x="1266" unicode="ɲ" d="M354 -150q0 -342 -270 -342q-93 0 -143 33v137q47 -22 106 -22q72 0 99.5 44.5t27.5 152.5v1245h145l27 -150h10q51 81 143 125.5t203 44.5q202 0 300 -98t98 -305v-715h-178v702q0 134 -59.5 199.5t-186.5 65.5q-169 0 -245.5 -93.5t-76.5 -304.5v-719z"/>
<glyph glyph-name="uni0273" horiz-adv-x="1266" unicode="ɳ" d="M1100 -147q0 -106 26.5 -151.5t98.5 -45.5q28 0 59.5 7t48.5 15v-137q-21 -14 -60.5 -23.5t-82.5 -9.5q-137 0 -202.5 86.5t-65.5 255.5v852q0 134 -59.5 199.5t-186.5 65.5q-169 0 -245.5 -93.5t-76.5 -304.5v-569h-180v1098h145l27 -150h10q51 81 143 125.5t203 44.5 q202 0 300 -98t98 -305v-862z"/>
<glyph glyph-name="uni0274" horiz-adv-x="1294" unicode="ɴ" d="M1120 1098v-1098h-223l-561 883q8 -160 8 -271v-612h-170v1098h221l568 -885q-2 26 -7.5 118.5t-5.5 131.5v635h170z"/>
<glyph glyph-name="uni0275" horiz-adv-x="1239" unicode="ɵ" d="M618 967q-152 0 -227.5 -83t-89.5 -245h639q-30 328 -322 328zM621 129q156 0 232 92t87 268h-641q18 -360 322 -360zM1128 551q0 -269 -136 -420t-376 -151q-149 0 -264 69.5t-177 199.5t-62 302q0 268 134 417.5t376 149.5q232 0 368.5 -152.5t136.5 -414.5z"/>
<glyph glyph-name="uni0276" horiz-adv-x="1769" unicode="ɶ" d="M299 551q0 -207 81.5 -314.5t240.5 -107.5q157 0 239 107.5t82 314.5t-82.5 311.5t-241.5 104.5q-145 0 -232 -113t-87 -303zM1663 0h-721v111q-129 -131 -326 -131q-149 0 -264 69.5t-177 199.5t-62 302q0 268 134 417.5t376 149.5q192 0 319 -133v113h721v-150h-551 v-301h518v-149h-518v-348h551v-150z"/>
<glyph glyph-name="uni0277" horiz-adv-x="1602" unicode="ɷ" d="M1487 465q0 -226 -103.5 -355.5t-287.5 -129.5q-222 0 -291 184h-10q-65 -184 -289 -184q-183 0 -287 129.5t-104 355.5q0 309 179.5 481t510.5 172q322 0 502 -173.5t180 -479.5zM1307 469q0 240 -130.5 370t-371.5 130q-243 0 -376.5 -130.5t-133.5 -369.5 q0 -161 59 -250.5t164 -89.5q95 0 146 71t51 195v269h172v-269q0 -128 50.5 -197t143.5 -69q104 0 165 86t61 254z"/>
<glyph glyph-name="uni0278" horiz-adv-x="1485" unicode="ɸ" d="M1186 549q0 375 -357 414v-832q357 39 357 418zM299 549q0 -381 360 -418v834q-188 -19 -274 -124.5t-86 -291.5zM1372 549q0 -245 -143.5 -395t-399.5 -170v-476h-176v476q-252 21 -397 171t-145 394q0 250 144 397.5t404 167.5v442h170v-442q253 -25 398 -175t145 -390 z"/>
<glyph glyph-name="uni0279" horiz-adv-x="846" unicode="ɹ" d="M160 -20q-73 0 -129 12l22 166q61 -14 119 -14q87 0 161.5 48t116.5 132.5t42 187.5v586h180v-1098h-148l-20 201h-8q-63 -109 -149 -165t-187 -56z"/>
<glyph glyph-name="uni027A" horiz-adv-x="846" unicode="ɺ" d="M160 -20q-73 0 -129 12l22 166q65 -15 119 -15q87 0 161 48t116.5 133t42.5 188v1044h180v-1556h-148l-20 201h-8q-62 -107 -149 -164t-187 -57z"/>
<glyph glyph-name="uni027B" horiz-adv-x="846" unicode="ɻ" d="M672 -147q0 -108 25.5 -152.5t90.5 -44.5q76 0 117 22v-137q-47 -33 -157 -33q-256 0 -256 342v189q0 15 4.5 84.5t7.5 77.5h-8q-62 -107 -149 -164t-187 -57q-73 0 -129 12l22 166q65 -15 119 -15q87 0 161 48t116.5 133t42.5 188v586h180v-1245z"/>
<glyph glyph-name="uni027C" horiz-adv-x="846" unicode="ɼ" d="M686 1118q73 0 129 -12l-22 -166q-61 14 -119 14q-87 0 -161.5 -48t-116.5 -132.5t-42 -187.5v-1078h-180v1590h148l20 -201h8q63 109 149 165t187 56z"/>
<glyph glyph-name="uni027D" horiz-adv-x="846" unicode="ɽ" d="M174 1098h148l20 -201h8q63 109 149 165t187 56q73 0 129 -12l-22 -166q-61 14 -119 14q-87 0 -161.5 -48t-116.5 -132.5t-42 -187.5v-733q0 -100 36 -148.5t120 -48.5q61 0 125 22v-137q-68 -33 -150 -33q-164 0 -237.5 85t-73.5 257v1248z"/>
<glyph glyph-name="uni027E" horiz-adv-x="709" unicode="ɾ" d="M168 0v776q0 175 77 258.5t251 83.5q82 0 176 -33l-23 -153q-26 8 -65 19.5t-95 11.5q-72 0 -107.5 -45t-35.5 -144v-774h-178z"/>
<glyph glyph-name="uni027F" horiz-adv-x="709" unicode="ɿ" d="M362 -492v1266q0 99 -35.5 144t-107.5 45q-56 0 -95 -11.5t-65 -19.5l-22 153q94 33 176 33q173 0 250.5 -83.5t77.5 -258.5v-1268h-179z"/>
<glyph glyph-name="uni0280" horiz-adv-x="1145" unicode="ʀ" d="M881 772q0 85 -59 130.5t-175 45.5h-293v-362h258q269 0 269 186zM621 436h-267v-436h-180v1098h492q183 0 286 -86t103 -238q0 -120 -65 -200.5t-191 -112.5l313 -461h-209z"/>
<glyph glyph-name="uni0281" horiz-adv-x="1145" unicode="ʁ" d="M881 326q0 186 -269 186h-258v-362h293q116 0 175 45.5t59 130.5zM621 662l282 436h209l-313 -461q126 -32 191 -112.5t65 -200.5q0 -152 -103 -238t-286 -86h-492v1098h180v-436h267z"/>
<glyph glyph-name="uni0282" horiz-adv-x="981" unicode="ʂ" d="M889 303q0 -154 -115 -238.5t-323 -84.5q-94 0 -164 12v-139q0 -100 36 -148.5t119 -48.5q61 0 125 22v-137q-68 -33 -149 -33q-163 0 -237.5 84.5t-74.5 257.5v363q181 -88 349 -88q136 0 198 44t62 118q0 65 -59.5 110t-211.5 103q-155 60 -218 102.5t-92.5 95.5 t-29.5 129q0 135 110 213t302 78q187 0 350 -74l-61 -143q-167 70 -301 70q-112 0 -170 -35.5t-58 -97.5q0 -60 50 -99.5t233 -109.5q137 -51 202.5 -95t96.5 -99t31 -132z"/>
<glyph glyph-name="uni0283" horiz-adv-x="528" unicode="ʃ" d="M354 -150q0 -342 -270 -342q-93 0 -143 33v137q47 -22 106 -22q72 0 99.5 44.5t27.5 152.5v1372q0 342 270 342q92 0 144 -33v-137q-17 8 -48 15t-59 7q-72 0 -99.5 -44.5t-27.5 -151.5v-1373z"/>
<glyph glyph-name="uni0284" horiz-adv-x="528" unicode="ʄ" d="M354 653h154v-145h-154v-658q0 -342 -270 -342q-93 0 -143 33v137q47 -22 106 -22q72 0 99.5 44.5t27.5 152.5v655h-154v145h154v572q0 342 270 342q92 0 144 -33v-137q-17 8 -48 15t-59 7q-72 0 -99.5 -44.5t-27.5 -151.5v-570z"/>
<glyph glyph-name="uni0285" horiz-adv-x="528" unicode="ʅ" d="M174 788q0 100 -28 141.5t-83 41.5q-46 0 -92 -23v137q47 33 133 33q125 0 187.5 -81.5t62.5 -239.5v-944q0 -108 27 -152.5t100 -44.5q28 0 59 7t48 15v-137q-52 -33 -144 -33q-270 0 -270 342v938z"/>
<glyph glyph-name="uni0286" horiz-adv-x="528" unicode="ʆ" d="M53 -344q66 0 92.5 42.5t28.5 154.5h-90q-139 0 -139 -99q0 -98 108 -98zM174 0v1225q0 342 270 342q92 0 144 -33v-137q-17 8 -48 15t-59 7q-72 0 -99.5 -44.5t-27.5 -151.5v-1223h154v-147h-154q-3 -171 -73 -258t-213 -87q-132 0 -212.5 67.5t-80.5 174.5 q0 123 75 186.5t222 63.5h102z"/>
<glyph glyph-name="uni0287" horiz-adv-x="739" unicode="ʇ" d="M199 1223q-79 0 -154 -23v137q31 14 83.5 23.5t100.5 9.5q322 0 322 -340v-639h156v-86l-158 -72l-72 -233h-106v252h-318v139h318v635q0 92 -45 144.5t-127 52.5z"/>
<glyph glyph-name="uni0288" horiz-adv-x="739" unicode="ʈ" d="M541 -344q96 0 153 22v-137q-29 -13 -80 -23t-104 -10q-322 0 -322 340v1110h-155v86l157 72l72 234h107v-252h317v-140h-317v-1105q0 -95 45.5 -146t126.5 -51z"/>
<glyph glyph-name="uni0289" horiz-adv-x="1266" unicode="ʉ" d="M588 129q164 0 242.5 91t80.5 298h-567v-127q0 -133 59.5 -197.5t184.5 -64.5zM344 1098v-434h567v434h181v-434h153v-146h-153v-518h-148l-26 145h-9q-49 -79 -139 -122t-209 -43q-198 0 -298.5 95t-100.5 304v139h-142v146h142v434h182z"/>
<glyph glyph-name="uni028A" horiz-adv-x="1239" unicode="ʊ" d="M911 948q217 -172 217 -450q0 -241 -137 -379.5t-375 -138.5q-146 0 -261 63.5t-178.5 181t-63.5 271.5q0 152 54.5 262t160.5 190h-267v150h484v-142q-111 -50 -178.5 -176t-67.5 -284q0 -176 82.5 -271.5t239.5 -95.5q154 0 237.5 95.5t83.5 273.5q0 149 -72 281 t-176 177v142h484v-150h-267z"/>
<glyph glyph-name="uni028B" horiz-adv-x="1255" unicode="ʋ" d="M915 774q0 108 -30.5 148.5t-110.5 40.5q-58 0 -117 -19v154q70 20 129 20q167 0 238.5 -80.5t71.5 -257.5v-305q0 -248 -114.5 -371.5t-350.5 -123.5q-242 0 -353.5 119.5t-111.5 375.5v623h180v-617q0 -190 65.5 -271t219.5 -81t219 83t65 269v293z"/>
<glyph glyph-name="uni028C" horiz-adv-x="1040" unicode="ʌ" d="M625 1098l415 -1098h-192l-234 647q-70 199 -88 291h-8q-5 -27 -20 -75t-35.5 -109.5t-269.5 -753.5h-193l418 1098h207z"/>
<glyph glyph-name="uni028D" horiz-adv-x="1610" unicode="ʍ" d="M539 1098l188 -619q31 -101 76 -291h8q40 188 74 293l196 617h205l301 -1098h-186l-152 586q-45 182 -55.5 234.5t-15.5 92.5h-9q-29 -146 -73 -295l-195 -618h-196q-125 409 -188.5 616.5t-74.5 294.5h-8q-5 -38 -24 -123t-203 -788h-184l305 1098h211z"/>
<glyph glyph-name="uni028E" horiz-adv-x="1044" unicode="ʎ" d="M1042 0h-192l-238 614q-72 189 -92 293h-8q-26 -106 -94 -295l-223 -612h-195l473 1231q67 178 162 257t237 79q87 0 150 -17v-143q-53 12 -121 12q-94 0 -152 -51t-92 -139l-57 -144z"/>
<glyph glyph-name="uni028F" horiz-adv-x="971" unicode="ʏ" d="M578 0h-181v453l-397 645h205l282 -496l281 496h203l-393 -645v-453z"/>
<glyph glyph-name="uni0290" horiz-adv-x="963" unicode="ʐ" d="M713 0h-633v119l590 839h-555v140h753v-135l-581 -824h596v-286q0 -106 26.5 -151.5t98.5 -45.5q23 0 56.5 6.5t51.5 15.5v-137q-22 -14 -61 -23.5t-82 -9.5q-135 0 -197.5 85.5t-62.5 256.5v150z"/>
<glyph glyph-name="uni0291" horiz-adv-x="1110" unicode="ʑ" d="M831 326q-55 0 -105.5 -45t-104.5 -142h141q158 0 158 109q0 29 -22 53.5t-67 24.5zM553 0q-30 -60 -74 -178l-137 57l49 121h-311v119l590 839h-555v140h753v-135l-581 -824h170q89 176 181 251t210 75q105 0 173.5 -62.5t68.5 -150.5q0 -252 -338 -252h-199z"/>
<glyph glyph-name="uni0292" horiz-adv-x="1020" unicode="ʒ" d="M446 467q235 -16 369.5 -140t134.5 -325q0 -144 -67 -257t-191.5 -175t-283.5 -62q-239 0 -379 72v164q183 -86 387 -86q162 0 258 92.5t96 247.5q0 157 -104 241.5t-310 84.5h-120v125l448 497h-627v152h838v-131z"/>
<glyph glyph-name="uni0293" horiz-adv-x="1020" unicode="ʓ" d="M354 -342q200 0 316 106q-181 136 -367 136q-83 0 -128.5 -28.5t-45.5 -76.5q0 -62 62 -99.5t163 -37.5zM236 449l448 497h-627v152h838v-131l-449 -500q235 -16 369.5 -140t134.5 -325q0 -117 -51 -217q102 -100 156 -166l-117 -111q-79 90 -141 148 q-169 -148 -443 -148q-111 0 -201.5 35t-142 100.5t-51.5 155.5q0 114 92.5 182t247.5 68q236 0 457 -149q14 54 14 98q0 157 -104 241.5t-310 84.5h-120v125z"/>
<glyph glyph-name="uni0294" horiz-adv-x="872" unicode="ʔ" d="M254 0v743q175 54 278 166t103 260q0 248 -252 248q-71 0 -149.5 -27t-141.5 -73l-67 135q156 115 366 115q205 0 316.5 -102t111.5 -289q0 -167 -99.5 -303.5t-285.5 -223.5v-649h-180z"/>
<glyph glyph-name="uni0295" horiz-adv-x="872" unicode="ʕ" d="M618 0h-180v649q-186 87 -285.5 223.5t-99.5 303.5q0 187 111.5 289t316.5 102q210 0 366 -115l-67 -135q-63 46 -141.5 73t-149.5 27q-252 0 -252 -248q0 -148 103 -260t278 -166v-743z"/>
<glyph glyph-name="uni0296" horiz-adv-x="872" unicode="ʖ" d="M434 1556v-659q185 -86 285 -223t100 -303q0 -189 -112 -290t-316 -101q-208 0 -366 114l67 135q62 -46 141.5 -73t149.5 -27q252 0 252 248q0 146 -100.5 257.5t-280.5 168.5v753h180z"/>
<glyph glyph-name="uni0297" horiz-adv-x="961" unicode="ʗ" d="M614 -489q-254 0 -377.5 193t-123.5 601q0 402 128 607.5t386 205.5q80 0 158.5 -16.5t129.5 -42.5l-55 -150q-139 52 -237 52q-166 0 -245 -161.5t-79 -490.5q0 -331 73.5 -487t239.5 -156q145 0 285 64v-160q-114 -59 -283 -59z"/>
<glyph glyph-name="uni0298" horiz-adv-x="1599" unicode="ʘ" d="M319 733q0 -290 123 -442t359 -152q235 0 357 150t122 444q0 293 -121 441.5t-356 148.5q-238 0 -361 -150.5t-123 -439.5zM1475 733q0 -351 -177.5 -552t-496.5 -201q-323 0 -499.5 197.5t-176.5 557.5q0 357 175.5 553.5t502.5 196.5q318 0 495 -199.5t177 -552.5z M673 723q0 65 32.5 102t92.5 37q62 0 95.5 -37.5t33.5 -101.5t-34 -101.5t-95 -37.5q-59 0 -92 37t-33 102z"/>
<glyph glyph-name="uni0299" horiz-adv-x="1180" unicode="ʙ" d="M901 805q0 77 -59.5 110t-179.5 33h-308v-301h275q147 0 209.5 36.5t62.5 121.5zM932 332q0 92 -72 129t-211 37h-295v-353h299q279 0 279 187zM1077 821q0 -106 -60 -161.5t-171 -75.5v-9q139 -19 202.5 -82.5t63.5 -170.5q0 -156 -114.5 -239t-329.5 -83h-494v1098h492 q411 0 411 -277z"/>
<glyph glyph-name="uni029A" horiz-adv-x="1229" unicode="ʚ" d="M565 1118q264 0 407.5 -148.5t143.5 -418.5q0 -275 -143.5 -423t-401.5 -148q-225 0 -352 86.5t-127 236.5q0 103 58.5 170.5t185.5 104.5v8q-207 57 -207 243q0 136 116 212.5t320 76.5zM569 967q-268 0 -268 -154q0 -168 311 -168h58v-147h-86q-314 0 -314 -185 q0 -184 297 -184q189 0 276 104t87 318q0 208 -88.5 312t-272.5 104z"/>
<glyph glyph-name="uni029B" horiz-adv-x="1176" unicode="ʛ" d="M1028 57q-120 -43 -214 -60t-200 -17q-237 0 -369 145.5t-132 417.5q0 276 145.5 425.5t403.5 149.5q108 0 194 -18v192q0 132 55 203.5t181 71.5q59 0 122 -27v-149q-47 20 -106 20q-96 0 -96 -98v-269l-66 -155q-146 72 -274 72q-373 0 -373 -416q0 -199 79 -304.5 t234 -105.5q131 0 236 29v301h-236v145h416v-553z"/>
<glyph glyph-name="uni029C" horiz-adv-x="1305" unicode="ʜ" d="M354 1098v-457h596v457h180v-1098h-180v489h-596v-489h-180v1098h180z"/>
<glyph glyph-name="uni029D" horiz-adv-x="528" unicode="ʝ" d="M160 1395q0 60 30.5 87t75.5 27q42 0 73.5 -27t31.5 -87q0 -59 -31.5 -87t-73.5 -28q-45 0 -75.5 28t-30.5 87zM70 -344q57 0 79.5 43t24.5 154h-78q-121 0 -121 -99q0 -98 95 -98zM174 1098h180v-1098h154v-147h-154q-3 -174 -70 -259.5t-202 -85.5q-122 0 -199.5 66.5 t-77.5 175.5q0 122 71.5 186t209.5 64h88v1098z"/>
<glyph glyph-name="uni029E" horiz-adv-x="1094" unicode="ʞ" d="M741 532q-79 -105 -131 -161l-350 -371h-211l445 469l-476 629h218l380 -512l125 108v404h179v-1590h-179v846l9 178h-9z"/>
<glyph glyph-name="uni029F" horiz-adv-x="891" unicode="ʟ" d="M174 1098h180v-948h500v-150h-680v1098z"/>
<glyph glyph-name="uni02A0" horiz-adv-x="1260" unicode="ʠ" d="M592 129q164 0 239.5 89.5t75.5 293.5v33q0 229 -76.5 326.5t-240.5 97.5q-139 0 -215 -110.5t-76 -315.5q0 -204 75.5 -309t217.5 -105zM905 1225q0 342 258 342q109 0 156 -33v-137q-44 22 -117 22q-68 0 -92.5 -45.5t-24.5 -150.5v-1715h-180v472q0 24 5 83.5t8 77.5 h-13q-118 -161 -340 -161q-215 0 -333.5 149t-118.5 418t118.5 420t333.5 151q221 0 340 -162h13q-3 20 -8 80.5t-5 81.5v107z"/>
<glyph glyph-name="uni02A1" horiz-adv-x="872" unicode="ʡ" d="M274 0v336h-186v149h186v258q166 56 263.5 169t97.5 257q0 248 -252 248q-71 0 -149.5 -27t-141.5 -73l-67 135q156 115 366 115q205 0 316.5 -102t111.5 -289q0 -162 -95.5 -301t-268.5 -226v-164h221v-149h-221v-336h-181z"/>
<glyph glyph-name="uni02A2" horiz-adv-x="872" unicode="ʢ" d="M197 485h221v164q-175 89 -270 227t-95 300q0 187 112 289t316 102q211 0 367 -115l-68 -135q-62 46 -141.5 73t-149.5 27q-251 0 -251 -248q0 -145 98.5 -258t261.5 -168v-258h186v-149h-186v-336h-180v336h-221v149z"/>
<glyph glyph-name="uni02A3" horiz-adv-x="1966" unicode="ʣ" d="M1085 958v-837l588 837h-588zM592 129q164 0 239.5 89.5t75.5 293.5v33q0 229 -76.5 326.5t-240.5 97.5q-139 0 -215 -110.5t-76 -315.5q0 -204 75.5 -309t217.5 -105zM563 -20q-214 0 -332 148t-118 419q0 269 118.5 420t333.5 151q221 0 340 -162h13q-3 20 -8 80.5 t-5 81.5v438h180v-458h787v-135l-582 -824h596v-139h-946l-27 147h-8q-115 -167 -342 -167z"/>
<glyph glyph-name="uni02A4" horiz-adv-x="2009" unicode="ʤ" d="M592 129q164 0 239.5 89.5t75.5 293.5v33q0 229 -76.5 326.5t-240.5 97.5q-139 0 -215 -110.5t-76 -315.5q0 -204 75.5 -309t217.5 -105zM1436 467q235 -16 369 -140t134 -325q0 -144 -67 -257t-191.5 -175t-283.5 -62q-239 0 -379 72v164q183 -86 387 -86 q162 0 258 92.5t96 247.5q0 157 -104 241.5t-309 84.5h-121v125l448 497h-588v-946h-145l-27 147h-8q-115 -167 -342 -167q-214 0 -332 148t-118 419q0 269 118.5 420t333.5 151q221 0 340 -162h13q-3 20 -8 80.5t-5 81.5v438h180v-458h799v-131z"/>
<glyph glyph-name="uni02A5" horiz-adv-x="2114" unicode="ʥ" d="M1835 326q-56 0 -106.5 -45t-104.5 -142h141q158 0 158 109q0 29 -22 53.5t-66 24.5zM1085 958v-837l588 837h-588zM592 129q164 0 239.5 89.5t75.5 293.5v33q0 229 -76.5 326.5t-240.5 97.5q-139 0 -215 -110.5t-76 -315.5q0 -204 75.5 -309t217.5 -105zM1290 139h170 q87 172 179.5 249t211.5 77q105 0 173.5 -62.5t68.5 -150.5q0 -252 -338 -252h-199q-40 -84 -73 -178l-137 57q30 80 49 121h-455l-27 147h-8q-115 -167 -342 -167q-214 0 -332 148t-118 419q0 269 118.5 420t333.5 151q221 0 340 -162h13q-3 20 -8 80.5t-5 81.5v438h180 v-458h787v-135z"/>
<glyph glyph-name="uni02A6" horiz-adv-x="1554" unicode="ʦ" d="M1028 147q137 0 198.5 32.5t61.5 107.5q0 64 -58 109t-212 104q-155 60 -218 102.5t-92.5 95.5t-29.5 129q0 71 33 131h-342v-614q0 -100 48 -148.5t124 -48.5h487zM1462 303q0 -150 -112 -226.5t-326 -76.5h-514q-322 0 -322 340v618h-155v86l157 72l72 234h107v-252 h549q84 20 172 20q185 0 350 -74l-62 -143q-167 70 -301 70q-111 0 -169 -35.5t-58 -97.5q0 -60 50 -99.5t233 -109.5q190 -71 259.5 -143t69.5 -183z"/>
<glyph glyph-name="uni02A7" horiz-adv-x="1042" unicode="ʧ" d="M541 127q85 0 147 20v811h-319v-634q0 -95 45.5 -146t126.5 -51zM868 -150q0 -342 -270 -342q-93 0 -143 33v137q47 -22 106 -22q72 0 99.5 44.5t27.5 152.5v155q-25 -10 -76 -19t-102 -9q-322 0 -322 339v639h-155v86l157 72l72 234h107v-252h319v127q0 342 270 342 q92 0 144 -33v-137q-17 8 -48 15t-59 7q-72 0 -99.5 -44.5t-27.5 -151.5v-1373z"/>
<glyph glyph-name="uni02A8" horiz-adv-x="1765" unicode="ʨ" d="M1354 371q-62 0 -127 -24t-166 -95q82 -123 256 -123q87 0 139.5 38.5t52.5 98.5q0 48 -40.5 76.5t-114.5 28.5zM991 545q0 -79 15 -154q95 70 181 99.5t179 29.5q142 0 227.5 -67.5t85.5 -182.5q0 -133 -99.5 -211.5t-260.5 -78.5q-267 0 -397 163q-121 -90 -217 -126.5 t-195 -36.5q-322 0 -322 339v639h-155v86l157 72l72 234h107v-252h317v-140h-317v-634q0 -88 41 -142.5t108 -54.5q75 0 149 29.5t183 111.5q-45 112 -45 275q0 276 133.5 425.5t380.5 149.5q84 0 161.5 -17t127.5 -42l-56 -150q-139 52 -237 52q-324 0 -324 -416z"/>
<glyph glyph-name="uni02A9" horiz-adv-x="1765" unicode="ʩ" d="M1305 -492q-87 0 -146 25v145q62 -20 123 -20q137 0 137 172v875q0 133 -59 197.5t-184 64.5q-167 0 -244.5 -92t-77.5 -304v-571h-180v958h-271v-958h-180v958h-192v84l192 62v63q0 200 87.5 300t269.5 100q105 0 213 -37l-48 -141q-93 30 -163 30q-91 0 -135 -60 t-44 -190v-71h416l29 -150h10q54 86 144 128t196 42q201 0 301 -95.5t100 -305.5v-881q0 -154 -71.5 -241t-222.5 -87z"/>
<glyph glyph-name="uni02AA" horiz-adv-x="1356" unicode="ʪ" d="M1264 303q0 -158 -129.5 -240.5t-374.5 -82.5q-234 0 -406 86v-66h-180v1556h180v-1323q206 -108 416 -108q320 0 320 162q0 65 -59.5 110t-211.5 103q-155 60 -218 102.5t-92.5 95.5t-29.5 129q0 135 110 213t302 78q187 0 350 -74l-61 -143q-169 70 -301 70 q-112 0 -170 -35.5t-58 -97.5q0 -60 50 -99.5t233 -109.5q137 -51 202.5 -95t96.5 -99t31 -132z"/>
<glyph glyph-name="uni02AB" horiz-adv-x="1235" unicode="ʫ" d="M354 958v-837l588 837h-588zM1155 0h-981v1556h180v-458h787v-135l-582 -824h596v-139z"/>
<glyph glyph-name="uni02AC" horiz-adv-x="1042" unicode="ʬ" d="M686 774l-166 514l-170 -514h-149l-201 688h143l136 -518l172 518h143l164 -520l143 520h141l-202 -688h-154zM686 0l-166 514l-170 -514h-149l-201 688h143l136 -518l172 518h143l164 -520l143 520h141l-202 -688h-154z"/>
<glyph glyph-name="uni02AD" horiz-adv-x="1208" unicode="ʭ" d="M174 1462h860v-477h-180v309h-500v-309h-180v477zM174 477h860v-477h-180v309h-500v-309h-180v477z"/>
<glyph glyph-name="uni02AE" horiz-adv-x="1284" unicode="ʮ" d="M184 840q0 72 -30 101.5t-88 29.5q-61 0 -107 -19v142q44 24 139 24q128 0 196 -71.5t68 -204.5v-447q0 -133 59.5 -198.5t186.5 -65.5q166 0 244 91.5t78 307.5v568h180v-1590h-180v490q0 90 10 154h-12q-49 -80 -139 -125t-203 -45q-208 0 -305 99t-97 302v457z"/>
</font>
</defs>
</svg>
