<svg version="1.1" xmlns="http://www.w3.org/2000/svg" xmlns:xlink="http://www.w3.org/1999/xlink" width="1177" height="1593"><defs/><g><g/><g/><g/><g/><g/><g/><g/><g/><g/><g/><g/><g/><g/><g/><g/><g/><g/><g/><g/><g/><g/><g/><g/><g/><g/><g/><g/><g/><g/><g/><g/><g/><g/><g/><g><rect fill="white" stroke="none" x="0" y="0" width="1177" height="1593"/></g><g><text fill="black" stroke="none" font-family="sans-serif" font-size="16.5pt" font-style="normal" font-weight="normal" text-decoration="normal" x="509.8037955734511" y="22.6179738" text-anchor="start" dominant-baseline="alphabetic">Mailer Overview</text></g><g/><g><path fill="none" stroke="black" paint-order="fill stroke markers" d=" M 139.85587726662112 118.895148942 L 139.85587726662112 1593.5870407019995" stroke-miterlimit="10" stroke-width="1.2565541" stroke-dasharray="11.598960923076923,5.0262164"/><path fill="none" stroke="black" paint-order="fill stroke markers" d=" M 335.8563368752149 118.895148942 L 335.8563368752149 1593.5870407019995" stroke-miterlimit="10" stroke-width="1.2565541" stroke-dasharray="11.598960923076923,5.0262164"/><path fill="none" stroke="black" paint-order="fill stroke markers" d=" M 542.9169188133008 118.895148942 L 542.9169188133008 1593.5870407019995" stroke-miterlimit="10" stroke-width="1.2565541" stroke-dasharray="11.598960923076923,5.0262164"/><path fill="none" stroke="black" paint-order="fill stroke markers" d=" M 808.8541594584178 118.895148942 L 808.8541594584178 1593.5870407019995" stroke-miterlimit="10" stroke-width="1.2565541" stroke-dasharray="11.598960923076923,5.0262164"/><path fill="none" stroke="black" paint-order="fill stroke markers" d=" M 925.4798858086483 118.895148942 L 925.4798858086483 1593.5870407019995" stroke-miterlimit="10" stroke-width="1.2565541" stroke-dasharray="11.598960923076923,5.0262164"/><path fill="none" stroke="black" paint-order="fill stroke markers" d=" M 1022.1536468268475 118.895148942 L 1022.1536468268475 1593.5870407019995" stroke-miterlimit="10" stroke-width="1.2565541" stroke-dasharray="11.598960923076923,5.0262164"/><path fill="none" stroke="black" paint-order="fill stroke markers" d=" M 1109.4489822469022 118.895148942 L 1109.4489822469022 1593.5870407019995" stroke-miterlimit="10" stroke-width="1.2565541" stroke-dasharray="11.598960923076923,5.0262164"/></g><g><g><path fill="white" stroke="black" paint-order="fill stroke markers" d=" M 148.4507073106211 55.112462826000005 A 8.594830044 8.594830044 0 1 1 148.45070301320646 55.10386799738847 M 139.85587726662112 63.70729287 L 139.85587726662112 82.103244894 M 128.9992498426211 70.34189851800001 L 150.71250469062113 70.34189851800001 M 139.85587726662112 82.103244894 L 128.9992498426211 99.29290498200001 M 139.85587726662112 82.103244894 L 150.71250469062113 99.29290498200001" stroke-miterlimit="10" stroke-width="2.5633703640000003" stroke-dasharray=""/></g><g><g/><text fill="black" stroke="none" font-family="sans-serif" font-size="11pt" font-style="normal" font-weight="normal" text-decoration="normal" x="124.3838008506055" y="114.37155418200001" text-anchor="start" dominant-baseline="alphabetic">User</text></g><path fill="none" stroke="none"/><g><path fill="white" stroke="black" paint-order="fill stroke markers" d=" M 276.7366793730977 78.182796102 L 394.97599437733203 78.182796102 L 394.97599437733203 118.89514894199999 L 276.7366793730977 118.89514894199999 L 276.7366793730977 78.182796102 Z" stroke-miterlimit="10" stroke-width="2.4125838720000004" stroke-dasharray=""/></g><g><g/><text fill="black" stroke="none" font-family="sans-serif" font-size="11pt" font-style="normal" font-weight="normal" text-decoration="normal" x="293.0970137550977" y="103.816499742" text-anchor="start" dominant-baseline="alphabetic">Mailer Admin</text></g><path fill="none" stroke="none"/><g><path fill="white" stroke="black" paint-order="fill stroke markers" d=" M 478.9094591871601 78.182796102 L 606.9243784394414 78.182796102 L 606.9243784394414 118.89514894199999 L 478.9094591871601 118.89514894199999 L 478.9094591871601 78.182796102 Z" stroke-miterlimit="10" stroke-width="2.4125838720000004" stroke-dasharray=""/></g><g><g/><text fill="black" stroke="none" font-family="sans-serif" font-size="11pt" font-style="normal" font-weight="normal" text-decoration="normal" x="495.26979356916013" y="103.816499742" text-anchor="start" dominant-baseline="alphabetic">Mail processor</text></g><path fill="none" stroke="none"/><g><path fill="white" stroke="black" paint-order="fill stroke markers" d=" M 755.033795474367 78.182796102 L 862.6745234424686 78.182796102 L 862.6745234424686 118.89514894199999 L 755.033795474367 118.89514894199999 L 755.033795474367 78.182796102 Z" stroke-miterlimit="10" stroke-width="2.4125838720000004" stroke-dasharray=""/></g><g><g/><text fill="black" stroke="none" font-family="sans-serif" font-size="11pt" font-style="normal" font-weight="normal" text-decoration="normal" x="771.394129856367" y="103.816499742" text-anchor="start" dominant-baseline="alphabetic">Mail worker</text></g><path fill="none" stroke="none"/><g><path fill="white" stroke="black" paint-order="fill stroke markers" d=" M 877.7531726424686 78.182796102 L 973.206598974828 78.182796102 L 973.206598974828 118.89514894199999 L 877.7531726424686 118.89514894199999 L 877.7531726424686 78.182796102 Z" stroke-miterlimit="10" stroke-width="2.4125838720000004" stroke-dasharray=""/></g><g><g/><text fill="black" stroke="none" font-family="sans-serif" font-size="11pt" font-style="normal" font-weight="normal" text-decoration="normal" x="894.1135070244686" y="103.816499742" text-anchor="start" dominant-baseline="alphabetic">ISegment</text></g><path fill="none" stroke="none"/><g><path fill="white" stroke="black" paint-order="fill stroke markers" d=" M 988.285248174828 78.182796102 L 1056.022045478867 78.182796102 L 1056.022045478867 118.89514894199999 L 988.285248174828 118.89514894199999 L 988.285248174828 78.182796102 Z" stroke-miterlimit="10" stroke-width="2.4125838720000004" stroke-dasharray=""/></g><g><g/><text fill="black" stroke="none" font-family="sans-serif" font-size="11pt" font-style="normal" font-weight="normal" text-decoration="normal" x="1004.645582556828" y="103.816499742" text-anchor="start" dominant-baseline="alphabetic">IUser</text></g><path fill="none" stroke="none"/><g><path fill="white" stroke="black" paint-order="fill stroke markers" d=" M 1071.100694678867 78.182796102 L 1147.7972698149374 78.182796102 L 1147.7972698149374 118.89514894199999 L 1071.100694678867 118.89514894199999 L 1071.100694678867 78.182796102 Z" stroke-miterlimit="10" stroke-width="2.4125838720000004" stroke-dasharray=""/></g><g><g/><text fill="black" stroke="none" font-family="sans-serif" font-size="11pt" font-style="normal" font-weight="normal" text-decoration="normal" x="1087.461029060867" y="103.816499742" text-anchor="start" dominant-baseline="alphabetic">IMailer</text></g></g><g><path fill="white" stroke="black" paint-order="fill stroke markers" d=" M 328.3170122752149 624.0298971420001 L 343.39566147521487 624.0298971420001 L 343.39566147521487 868.304014182 L 328.3170122752149 868.304014182 L 328.3170122752149 624.0298971420001" stroke-miterlimit="10" stroke-width="1.2565541" stroke-dasharray=""/><path fill="white" stroke="black" paint-order="fill stroke markers" d=" M 917.9405612086483 666.2501149020001 L 933.0192104086483 666.2501149020001 L 933.0192104086483 826.083796422 L 917.9405612086483 826.083796422 L 917.9405612086483 666.2501149020001" stroke-miterlimit="10" stroke-width="1.2565541" stroke-dasharray=""/><path fill="white" stroke="black" paint-order="fill stroke markers" d=" M 328.3170122752149 910.5242319419999 L 343.39566147521487 910.5242319419999 L 343.39566147521487 1037.1848852219998 L 328.3170122752149 1037.1848852219998 L 328.3170122752149 910.5242319419999" stroke-miterlimit="10" stroke-width="1.2565541" stroke-dasharray=""/><path fill="white" stroke="black" paint-order="fill stroke markers" d=" M 535.3775942133008 952.7444497019999 L 550.4562434133007 952.7444497019999 L 550.4562434133007 1393.0410063419995 L 535.3775942133008 1393.0410063419995 L 535.3775942133008 952.7444497019999" stroke-miterlimit="10" stroke-width="1.2565541" stroke-dasharray=""/><path fill="white" stroke="black" paint-order="fill stroke markers" d=" M 917.9405612086483 1037.1848852219998 L 933.0192104086483 1037.1848852219998 L 933.0192104086483 1079.4051029819998 L 917.9405612086483 1079.4051029819998 L 917.9405612086483 1037.1848852219998" stroke-miterlimit="10" stroke-width="1.2565541" stroke-dasharray=""/><path fill="white" stroke="black" paint-order="fill stroke markers" d=" M 1014.6143222268475 1121.6253207419998 L 1029.6929714268476 1121.6253207419998 L 1029.6929714268476 1163.8455385019997 L 1014.6143222268475 1163.8455385019997 L 1014.6143222268475 1121.6253207419998" stroke-miterlimit="10" stroke-width="1.2565541" stroke-dasharray=""/><path fill="white" stroke="black" paint-order="fill stroke markers" d=" M 801.3148348584178 1393.0410063419995 L 816.3934840584178 1393.0410063419995 L 816.3934840584178 1578.5083915019995 L 801.3148348584178 1578.5083915019995 L 801.3148348584178 1393.0410063419995" stroke-miterlimit="10" stroke-width="1.2565541" stroke-dasharray=""/><path fill="none" stroke="black" paint-order="fill stroke markers" d=" M 7.5393246000000005 161.366677522 L 1169.4606754 161.366677522 M 7.5393246000000005 166.392893922 L 1169.4606754 166.392893922 M 7.5393246000000005 171.41911032200002 L 1169.4606754 171.41911032200002" stroke-miterlimit="10" stroke-width="1.2565541" stroke-dasharray=""/><path fill="white" stroke="black" paint-order="fill stroke markers" d=" M 501.8160538397266 149.052447342 L 675.1839461602734 149.052447342 L 675.1839461602734 183.733340502 L 501.8160538397266 183.733340502 Z" stroke-miterlimit="10" stroke-width="1.2565541" stroke-dasharray=""/><g><text fill="black" stroke="none" font-family="sans-serif" font-size="11pt" font-style="normal" font-weight="normal" text-decoration="normal" x="522.9261627197266" y="170.162556222" text-anchor="start" dominant-baseline="alphabetic">E-mail management</text></g><g><g><rect fill="white" stroke="none" x="167.1722363266602" y="206.351314302" width="141.36774148851563" height="19.602243960000003"/></g><text fill="black" stroke="none" font-family="sans-serif" font-size="11pt" font-style="normal" font-weight="normal" text-decoration="normal" x="169.4340337066602" y="219.922098582" text-anchor="start" dominant-baseline="alphabetic">Create newsletter list</text></g><g><path fill="none" stroke="black" paint-order="fill stroke markers" d=" M 139.85587726662112 225.953558262 L 333.3432286752149 225.953558262" stroke-miterlimit="10" stroke-width="1.2565541" stroke-dasharray=""/><g transform="translate(335.8563368752149,225.953558262) translate(-335.8563368752149,-225.953558262)"><path fill="black" stroke="none" paint-order="stroke fill markers" d=" M 323.2907958752149 219.670787762 L 335.8563368752149 225.953558262 L 323.2907958752149 232.236328762 Z"/></g></g><g><g><rect fill="white" stroke="none" x="235.594309690918" y="248.57153206200002" width="4.52359476" height="19.602243960000003"/></g><text fill="black" stroke="none" font-family="sans-serif" font-size="11pt" font-style="normal" font-weight="normal" text-decoration="normal" x="237.856107070918" y="262.142316342" text-anchor="start" dominant-baseline="alphabetic"></text></g><g><path fill="none" stroke="black" paint-order="fill stroke markers" d=" M 335.8563368752149 268.173776022 L 142.36898546662113 268.173776022" stroke-miterlimit="10" stroke-width="1.2565541" stroke-dasharray="6.03145968"/><g transform="translate(139.85587726662112,268.173776022) translate(-139.85587726662112,-268.173776022)"><path fill="black" stroke="none" paint-order="stroke fill markers" d=" M 152.42141826662112 261.891005522 L 139.85587726662112 268.173776022 L 152.42141826662112 274.45654652200005 Z"/></g></g><g><g><rect fill="white" stroke="none" x="170.02047241064457" y="290.79174982200004" width="135.67126932054688" height="19.602243960000003"/></g><text fill="black" stroke="none" font-family="sans-serif" font-size="11pt" font-style="normal" font-weight="normal" text-decoration="normal" x="172.28226979064456" y="304.36253410200004" text-anchor="start" dominant-baseline="alphabetic">Create e-mail layout</text></g><g><path fill="none" stroke="black" paint-order="fill stroke markers" d=" M 139.85587726662112 310.39399378200005 L 333.3432286752149 310.39399378200005" stroke-miterlimit="10" stroke-width="1.2565541" stroke-dasharray=""/><g transform="translate(335.8563368752149,310.39399378200005) translate(-335.8563368752149,-310.39399378200005)"><path fill="black" stroke="none" paint-order="stroke fill markers" d=" M 323.2907958752149 304.111223282 L 335.8563368752149 310.39399378200005 L 323.2907958752149 316.6767642820001 Z"/></g></g><g><g><rect fill="white" stroke="none" x="235.594309690918" y="333.01196758200007" width="4.52359476" height="19.602243960000003"/></g><text fill="black" stroke="none" font-family="sans-serif" font-size="11pt" font-style="normal" font-weight="normal" text-decoration="normal" x="237.856107070918" y="346.5827518620001" text-anchor="start" dominant-baseline="alphabetic"></text></g><g><path fill="none" stroke="black" paint-order="fill stroke markers" d=" M 335.8563368752149 352.6142115420001 L 142.36898546662113 352.6142115420001" stroke-miterlimit="10" stroke-width="1.2565541" stroke-dasharray="6.03145968"/><g transform="translate(139.85587726662112,352.6142115420001) translate(-139.85587726662112,-352.6142115420001)"><path fill="black" stroke="none" paint-order="stroke fill markers" d=" M 152.42141826662112 346.33144104200005 L 139.85587726662112 352.6142115420001 L 152.42141826662112 358.8969820420001 Z"/></g></g><path fill="white" stroke="black" paint-order="fill stroke markers" d=" M 30.74386103798831 375.2321853420001 L 235.39710921525392 375.2321853420001 L 248.96789349525392 388.8029696220001 L 248.96789349525392 440.0703769020001 L 30.74386103798831 440.0703769020001 L 30.74386103798831 375.2321853420001 M 235.39710921525392 375.2321853420001 L 235.39710921525392 388.8029696220001 L 248.96789349525392 388.8029696220001" stroke-miterlimit="10" stroke-width="1.2565541" stroke-dasharray=""/><g><text fill="black" stroke="none" font-family="sans-serif" font-size="11pt" font-style="normal" font-weight="normal" text-decoration="normal" x="51.85396991798831" y="396.3422942220001" text-anchor="start" dominant-baseline="alphabetic">E-mail template has to</text><text fill="black" stroke="none" font-family="sans-serif" font-size="11pt" font-style="normal" font-weight="normal" text-decoration="normal" x="51.85396991798831" y="411.42094342200005" text-anchor="start" dominant-baseline="alphabetic">belong to newsletter list</text><text fill="black" stroke="none" font-family="sans-serif" font-size="11pt" font-style="normal" font-weight="normal" text-decoration="normal" x="51.85396991798831" y="426.499592622" text-anchor="start" dominant-baseline="alphabetic">and use one of the layouts.</text></g><g><g><rect fill="white" stroke="none" x="161.46860778662113" y="462.6883507020001" width="152.77499856859376" height="19.602243960000003"/></g><text fill="black" stroke="none" font-family="sans-serif" font-size="11pt" font-style="normal" font-weight="normal" text-decoration="normal" x="163.73040516662113" y="476.2591349820001" text-anchor="start" dominant-baseline="alphabetic">Create e-mail template</text></g><g><path fill="none" stroke="black" paint-order="fill stroke markers" d=" M 139.85587726662112 482.2905946620001 L 333.3432286752149 482.2905946620001" stroke-miterlimit="10" stroke-width="1.2565541" stroke-dasharray=""/><g transform="translate(335.8563368752149,482.2905946620001) translate(-335.8563368752149,-482.2905946620001)"><path fill="black" stroke="none" paint-order="stroke fill markers" d=" M 323.2907958752149 476.0078241620001 L 335.8563368752149 482.2905946620001 L 323.2907958752149 488.57336516200013 Z"/></g></g><g><g><rect fill="white" stroke="none" x="235.594309690918" y="504.90856846200006" width="4.52359476" height="19.602243960000003"/></g><text fill="black" stroke="none" font-family="sans-serif" font-size="11pt" font-style="normal" font-weight="normal" text-decoration="normal" x="237.856107070918" y="518.4793527420001" text-anchor="start" dominant-baseline="alphabetic"></text></g><g><path fill="none" stroke="black" paint-order="fill stroke markers" d=" M 335.8563368752149 524.5108124220001 L 142.36898546662113 524.5108124220001" stroke-miterlimit="10" stroke-width="1.2565541" stroke-dasharray="6.03145968"/><g transform="translate(139.85587726662112,524.5108124220001) translate(-139.85587726662112,-524.5108124220001)"><path fill="black" stroke="none" paint-order="stroke fill markers" d=" M 152.42141826662112 518.2280419220001 L 139.85587726662112 524.5108124220001 L 152.42141826662112 530.793582922 Z"/></g></g><path fill="none" stroke="black" paint-order="fill stroke markers" d=" M 7.5393246000000005 559.4430164020001 L 1169.4606754 559.4430164020001 M 7.5393246000000005 564.4692328020001 L 1169.4606754 564.4692328020001 M 7.5393246000000005 569.495449202 L 1169.4606754 569.495449202" stroke-miterlimit="10" stroke-width="1.2565541" stroke-dasharray=""/><path fill="white" stroke="black" paint-order="fill stroke markers" d=" M 518.9197830877735 547.1287862220001 L 658.0802169122265 547.1287862220001 L 658.0802169122265 581.8096793820001 L 518.9197830877735 581.8096793820001 Z" stroke-miterlimit="10" stroke-width="1.2565541" stroke-dasharray=""/><g><text fill="black" stroke="none" font-family="sans-serif" font-size="11pt" font-style="normal" font-weight="normal" text-decoration="normal" x="540.0298919677734" y="568.2388951020001" text-anchor="start" dominant-baseline="alphabetic">E-mail sending</text></g><g><g><rect fill="white" stroke="none" x="198.0143675447266" y="604.4276531820001" width="72.14415445238281" height="19.602243960000003"/></g><text fill="black" stroke="none" font-family="sans-serif" font-size="11pt" font-style="normal" font-weight="normal" text-decoration="normal" x="200.2761649247266" y="617.9984374620001" text-anchor="start" dominant-baseline="alphabetic">Create job</text></g><g><path fill="none" stroke="black" paint-order="fill stroke markers" d=" M 139.85587726662112 624.0298971420001 L 325.8039040752149 624.0298971420001" stroke-miterlimit="10" stroke-width="1.2565541" stroke-dasharray=""/><g transform="translate(328.3170122752149,624.0298971420001) translate(-328.3170122752149,-624.0298971420001)"><path fill="black" stroke="none" paint-order="stroke fill markers" d=" M 315.7514712752149 617.7471266420001 L 328.3170122752149 624.0298971420001 L 315.7514712752149 630.3126676420001 Z"/></g></g><g><g><rect fill="white" stroke="none" x="583.1959334077324" y="646.647870942" width="94.94435586839843" height="19.602243960000003"/></g><text fill="black" stroke="none" font-family="sans-serif" font-size="11pt" font-style="normal" font-weight="normal" text-decoration="normal" x="585.4577307877323" y="660.218655222" text-anchor="start" dominant-baseline="alphabetic">List segments</text></g><g><path fill="none" stroke="black" paint-order="fill stroke markers" d=" M 343.39566147521487 666.2501149020001 L 915.4274530086483 666.2501149020001" stroke-miterlimit="10" stroke-width="1.2565541" stroke-dasharray=""/><g transform="translate(917.9405612086483,666.2501149020001) translate(-917.9405612086483,-666.2501149020001)"><path fill="black" stroke="none" paint-order="stroke fill markers" d=" M 905.3750202086483 659.9673444020001 L 917.9405612086483 666.2501149020001 L 905.3750202086483 672.532885402 Z"/></g></g><path fill="white" stroke="black" paint-order="fill stroke markers" d=" M 7.5393246000000005 688.868088702 L 258.60164565324226 688.868088702 L 272.17242993324226 702.438872982 L 272.17242993324226 783.863578662 L 7.5393246000000005 783.863578662 L 7.5393246000000005 688.868088702 M 258.60164565324226 688.868088702 L 258.60164565324226 702.438872982 L 272.17242993324226 702.438872982" stroke-miterlimit="10" stroke-width="1.2565541" stroke-dasharray=""/><g><text fill="black" stroke="none" font-family="sans-serif" font-size="11pt" font-style="normal" font-weight="normal" text-decoration="normal" x="28.649433480000027" y="709.978197582" text-anchor="start" dominant-baseline="alphabetic">Select what email, when and</text><text fill="black" stroke="none" font-family="sans-serif" font-size="11pt" font-style="normal" font-weight="normal" text-decoration="normal" x="28.649433480000027" y="725.056846782" text-anchor="start" dominant-baseline="alphabetic">to whom should the email be sent.</text><text fill="black" stroke="none" font-family="sans-serif" font-size="11pt" font-style="normal" font-weight="normal" text-decoration="normal" x="28.649433480000027" y="740.135495982" text-anchor="start" dominant-baseline="alphabetic">Only subscribed recipients</text><text fill="black" stroke="none" font-family="sans-serif" font-size="11pt" font-style="normal" font-weight="normal" text-decoration="normal" x="28.649433480000027" y="755.2141451819999" text-anchor="start" dominant-baseline="alphabetic">(members of segment)</text><text fill="black" stroke="none" font-family="sans-serif" font-size="11pt" font-style="normal" font-weight="normal" text-decoration="normal" x="28.649433480000027" y="770.2927943819999" text-anchor="start" dominant-baseline="alphabetic">will receive the email.</text></g><g><g><rect fill="white" stroke="none" x="628.4063139619316" y="806.481552462" width="4.52359476" height="19.602243960000003"/></g><text fill="black" stroke="none" font-family="sans-serif" font-size="11pt" font-style="normal" font-weight="normal" text-decoration="normal" x="630.6681113419315" y="820.052336742" text-anchor="start" dominant-baseline="alphabetic"></text></g><g><path fill="none" stroke="black" paint-order="fill stroke markers" d=" M 917.9405612086483 826.083796422 L 345.90876967521484 826.083796422" stroke-miterlimit="10" stroke-width="1.2565541" stroke-dasharray="6.03145968"/><g transform="translate(343.39566147521487,826.083796422) translate(-343.39566147521487,-826.083796422)"><path fill="black" stroke="none" paint-order="stroke fill markers" d=" M 355.96120247521486 819.801025922 L 343.39566147521487 826.083796422 L 355.96120247521486 832.366566922 Z"/></g></g><g><g><rect fill="white" stroke="none" x="231.82464739091802" y="848.7017702219999" width="4.52359476" height="19.602243960000003"/></g><text fill="black" stroke="none" font-family="sans-serif" font-size="11pt" font-style="normal" font-weight="normal" text-decoration="normal" x="234.086444770918" y="862.2725545019999" text-anchor="start" dominant-baseline="alphabetic"></text></g><g><path fill="none" stroke="black" paint-order="fill stroke markers" d=" M 328.3170122752149 868.304014182 L 142.36898546662113 868.304014182" stroke-miterlimit="10" stroke-width="1.2565541" stroke-dasharray=""/><g transform="translate(139.85587726662112,868.304014182) translate(-139.85587726662112,-868.304014182)"><path fill="black" stroke="none" paint-order="stroke fill markers" d=" M 152.42141826662112 862.021243682 L 139.85587726662112 868.304014182 L 152.42141826662112 874.5867846819999 Z"/></g></g><g><g><rect fill="white" stroke="none" x="204.5338225007813" y="890.9219879819999" width="59.10524454027344" height="19.602243960000003"/></g><text fill="black" stroke="none" font-family="sans-serif" font-size="11pt" font-style="normal" font-weight="normal" text-decoration="normal" x="206.7956198807813" y="904.4927722619999" text-anchor="start" dominant-baseline="alphabetic">Start job</text></g><g><path fill="none" stroke="black" paint-order="fill stroke markers" d=" M 139.85587726662112 910.5242319419999 L 325.8039040752149 910.5242319419999" stroke-miterlimit="10" stroke-width="1.2565541" stroke-dasharray=""/><g transform="translate(328.3170122752149,910.5242319419999) translate(-328.3170122752149,-910.5242319419999)"><path fill="black" stroke="none" paint-order="stroke fill markers" d=" M 315.7514712752149 904.241461442 L 328.3170122752149 910.5242319419999 L 315.7514712752149 916.8070024419999 Z"/></g></g><g><g><rect fill="white" stroke="none" x="361.23872969521483" y="933.1422057419999" width="156.29579629808595" height="19.602243960000003"/></g><text fill="black" stroke="none" font-family="sans-serif" font-size="11pt" font-style="normal" font-weight="normal" text-decoration="normal" x="363.50052707521485" y="946.7129900219999" text-anchor="start" dominant-baseline="alphabetic">Trigger mail processing</text></g><g><path fill="none" stroke="black" paint-order="fill stroke markers" d=" M 343.39566147521487 952.7444497019999 L 532.8644860133007 952.7444497019999" stroke-miterlimit="10" stroke-width="1.2565541" stroke-dasharray=""/><g transform="translate(535.3775942133008,952.7444497019999) translate(-535.3775942133008,-952.7444497019999)"><path fill="black" stroke="none" paint-order="stroke fill markers" d=" M 522.8120532133007 946.4616792019999 L 535.3775942133008 952.7444497019999 L 522.8120532133007 959.0272202019999 Z"/></g></g><g><g><rect fill="white" stroke="none" x="231.82464739091802" y="975.3624235019998" width="4.52359476" height="19.602243960000003"/></g><text fill="black" stroke="none" font-family="sans-serif" font-size="11pt" font-style="normal" font-weight="normal" text-decoration="normal" x="234.086444770918" y="988.9332077819998" text-anchor="start" dominant-baseline="alphabetic"></text></g><g><path fill="none" stroke="black" paint-order="fill stroke markers" d=" M 328.3170122752149 994.9646674619999 L 142.36898546662113 994.9646674619999" stroke-miterlimit="10" stroke-width="1.2565541" stroke-dasharray="6.03145968"/><g transform="translate(139.85587726662112,994.9646674619999) translate(-139.85587726662112,-994.9646674619999)"><path fill="black" stroke="none" paint-order="stroke fill markers" d=" M 152.42141826662112 988.6818969619999 L 139.85587726662112 994.9646674619999 L 152.42141826662112 1001.2474379619998 Z"/></g></g><g><g><rect fill="white" stroke="none" x="661.8793005486503" y="1017.5826412619998" width="144.63820352464845" height="19.602243960000003"/></g><text fill="black" stroke="none" font-family="sans-serif" font-size="11pt" font-style="normal" font-weight="normal" text-decoration="normal" x="664.1410979286503" y="1031.153425542" text-anchor="start" dominant-baseline="alphabetic">Get users of segment</text></g><g><path fill="none" stroke="black" paint-order="fill stroke markers" d=" M 550.4562434133007 1037.1848852219998 L 915.4274530086483 1037.1848852219998" stroke-miterlimit="10" stroke-width="1.2565541" stroke-dasharray=""/><g transform="translate(917.9405612086483,1037.1848852219998) translate(-917.9405612086483,-1037.1848852219998)"><path fill="black" stroke="none" paint-order="stroke fill markers" d=" M 905.3750202086483 1030.9021147219999 L 917.9405612086483 1037.1848852219998 L 905.3750202086483 1043.4676557219998 Z"/></g></g><g><g><rect fill="white" stroke="none" x="731.9366049309746" y="1059.802859022" width="4.52359476" height="19.602243960000003"/></g><text fill="black" stroke="none" font-family="sans-serif" font-size="11pt" font-style="normal" font-weight="normal" text-decoration="normal" x="734.1984023109745" y="1073.373643302" text-anchor="start" dominant-baseline="alphabetic"></text></g><g><path fill="none" stroke="black" paint-order="fill stroke markers" d=" M 917.9405612086483 1079.4051029819998 L 552.9693516133008 1079.4051029819998" stroke-miterlimit="10" stroke-width="1.2565541" stroke-dasharray="6.03145968"/><g transform="translate(550.4562434133007,1079.4051029819998) translate(-550.4562434133007,-1079.4051029819998)"><path fill="black" stroke="none" paint-order="stroke fill markers" d=" M 563.0217844133008 1073.1223324819998 L 550.4562434133007 1079.4051029819998 L 563.0217844133008 1085.6878734819998 Z"/></g></g><g><g><rect fill="white" stroke="none" x="693.5132086456406" y="1102.0230767819999" width="178.0441483488672" height="19.602243960000003"/></g><text fill="black" stroke="none" font-family="sans-serif" font-size="11pt" font-style="normal" font-weight="normal" text-decoration="normal" x="695.7750060256406" y="1115.5938610619999" text-anchor="start" dominant-baseline="alphabetic">Get user info for each user</text></g><g><path fill="none" stroke="black" paint-order="fill stroke markers" d=" M 550.4562434133007 1121.6253207419998 L 1012.1012140268475 1121.6253207419998" stroke-miterlimit="10" stroke-width="1.2565541" stroke-dasharray=""/><g transform="translate(1014.6143222268475,1121.6253207419998) translate(-1014.6143222268475,-1121.6253207419998)"><path fill="black" stroke="none" paint-order="stroke fill markers" d=" M 1002.0487812268475 1115.3425502419998 L 1014.6143222268475 1121.6253207419998 L 1002.0487812268475 1127.9080912419997 Z"/></g></g><g><g><rect fill="white" stroke="none" x="780.2734854400742" y="1144.2432945419998" width="4.52359476" height="19.602243960000003"/></g><text fill="black" stroke="none" font-family="sans-serif" font-size="11pt" font-style="normal" font-weight="normal" text-decoration="normal" x="782.5352828200741" y="1157.8140788219998" text-anchor="start" dominant-baseline="alphabetic"></text></g><g><path fill="none" stroke="black" paint-order="fill stroke markers" d=" M 1014.6143222268475 1163.8455385019997 L 552.9693516133008 1163.8455385019997" stroke-miterlimit="10" stroke-width="1.2565541" stroke-dasharray="6.03145968"/><g transform="translate(550.4562434133007,1163.8455385019997) translate(-550.4562434133007,-1163.8455385019997)"><path fill="black" stroke="none" paint-order="stroke fill markers" d=" M 563.0217844133008 1157.5627680019998 L 550.4562434133007 1163.8455385019997 L 563.0217844133008 1170.1283090019997 Z"/></g></g><g><g><rect fill="white" stroke="none" x="568.2993116333008" y="1186.4635123019996" width="168.2542313566797" height="19.602243960000003"/></g><text fill="black" stroke="none" font-family="sans-serif" font-size="11pt" font-style="normal" font-weight="normal" text-decoration="normal" x="570.5611090133008" y="1200.0342965819996" text-anchor="start" dominant-baseline="alphabetic">Filter unsubscribed users</text></g><g><path fill="none" stroke="black" paint-order="fill stroke markers" d=" M 550.4562434133007 1206.0657562619997 L 610.7708402133007 1206.0657562619997 L 610.7708402133007 1221.1444054619997 L 552.9693516133008 1221.1444054619997" stroke-miterlimit="10" stroke-width="1.2565541" stroke-dasharray=""/><g transform="translate(550.4562434133007,1221.1444054619997) translate(-550.4562434133007,-1221.1444054619997)"><path fill="black" stroke="none" paint-order="stroke fill markers" d=" M 563.0217844133008 1214.8616349619997 L 550.4562434133007 1221.1444054619997 L 563.0217844133008 1227.4271759619996 Z"/></g></g><g><g><rect fill="white" stroke="none" x="568.2993116333008" y="1243.7623792619995" width="169.07005777269532" height="19.602243960000003"/></g><text fill="black" stroke="none" font-family="sans-serif" font-size="11pt" font-style="normal" font-weight="normal" text-decoration="normal" x="570.5611090133008" y="1257.3331635419995" text-anchor="start" dominant-baseline="alphabetic">Split users for A/B testing</text></g><g><path fill="none" stroke="black" paint-order="fill stroke markers" d=" M 550.4562434133007 1263.3646232219996 L 610.7708402133007 1263.3646232219996 L 610.7708402133007 1278.4432724219996 L 552.9693516133008 1278.4432724219996" stroke-miterlimit="10" stroke-width="1.2565541" stroke-dasharray=""/><g transform="translate(550.4562434133007,1278.4432724219996) translate(-550.4562434133007,-1278.4432724219996)"><path fill="black" stroke="none" paint-order="stroke fill markers" d=" M 563.0217844133008 1272.1605019219996 L 550.4562434133007 1278.4432724219996 L 563.0217844133008 1284.7260429219996 Z"/></g></g><g><g><rect fill="white" stroke="none" x="568.2993116333008" y="1301.0612462219995" width="227.7379960051172" height="19.602243960000003"/></g><text fill="black" stroke="none" font-family="sans-serif" font-size="11pt" font-style="normal" font-weight="normal" text-decoration="normal" x="570.5611090133008" y="1314.6320305019995" text-anchor="start" dominant-baseline="alphabetic">Obtain data for dynamic templates</text></g><g><path fill="none" stroke="black" paint-order="fill stroke markers" d=" M 550.4562434133007 1320.6634901819996 L 610.7708402133007 1320.6634901819996 L 610.7708402133007 1335.7421393819996 L 552.9693516133008 1335.7421393819996" stroke-miterlimit="10" stroke-width="1.2565541" stroke-dasharray=""/><g transform="translate(550.4562434133007,1335.7421393819996) translate(-550.4562434133007,-1335.7421393819996)"><path fill="black" stroke="none" paint-order="stroke fill markers" d=" M 563.0217844133008 1329.4593688819996 L 550.4562434133007 1335.7421393819996 L 563.0217844133008 1342.0249098819995 Z"/></g></g><g><g><rect fill="white" stroke="none" x="616.6017690996093" y="1358.3601131819994" width="108.78477945238281" height="19.602243960000003"/></g><g><rect fill="white" stroke="none" x="616.6017690996093" y="1373.4387623819994" width="118.5675400725" height="19.602243960000003"/></g><text fill="black" stroke="none" font-family="sans-serif" font-size="11pt" font-style="normal" font-weight="normal" text-decoration="normal" x="618.8635664796093" y="1371.9308974619994" text-anchor="start" dominant-baseline="alphabetic">Mark processed</text><text fill="black" stroke="none" font-family="sans-serif" font-size="11pt" font-style="normal" font-weight="normal" text-decoration="normal" x="618.8635664796093" y="1387.0095466619994" text-anchor="start" dominant-baseline="alphabetic">(triggers sending)</text></g><g><path fill="none" stroke="black" paint-order="fill stroke markers" d=" M 550.4562434133007 1393.0410063419995 L 798.8017266584178 1393.0410063419995" stroke-miterlimit="10" stroke-width="1.2565541" stroke-dasharray=""/><g transform="translate(801.3148348584178,1393.0410063419995) translate(-801.3148348584178,-1393.0410063419995)"><path fill="black" stroke="none" paint-order="stroke fill markers" d=" M 788.7492938584178 1386.7582358419995 L 801.3148348584178 1393.0410063419995 L 788.7492938584178 1399.3237768419995 Z"/></g></g><g><g><rect fill="white" stroke="none" x="890.6021313903359" y="1456.3713329819996" width="144.63820352464845" height="19.602243960000003"/></g><text fill="black" stroke="none" font-family="sans-serif" font-size="11pt" font-style="normal" font-weight="normal" text-decoration="normal" x="892.8639287703359" y="1469.9421172619996" text-anchor="start" dominant-baseline="alphabetic">Send email (or batch)</text></g><g><path fill="none" stroke="black" paint-order="fill stroke markers" d=" M 816.3934840584178 1475.9735769419995 L 1106.9358740469022 1475.9735769419995" stroke-miterlimit="10" stroke-width="1.2565541" stroke-dasharray=""/><g transform="translate(1109.4489822469022,1475.9735769419995) translate(-1109.4489822469022,-1475.9735769419995)"><path fill="black" stroke="none" paint-order="stroke fill markers" d=" M 1096.8834412469023 1469.6908064419995 L 1109.4489822469022 1475.9735769419995 L 1096.8834412469023 1482.2563474419994 Z"/></g></g><g><g><rect fill="white" stroke="none" x="960.6594357726601" y="1498.5915507419995" width="4.52359476" height="19.602243960000003"/></g><text fill="black" stroke="none" font-family="sans-serif" font-size="11pt" font-style="normal" font-weight="normal" text-decoration="normal" x="962.9212331526601" y="1512.1623350219995" text-anchor="start" dominant-baseline="alphabetic"></text></g><g><path fill="none" stroke="black" paint-order="fill stroke markers" d=" M 1109.4489822469022 1518.1937947019994 L 818.9065922584178 1518.1937947019994" stroke-miterlimit="10" stroke-width="1.2565541" stroke-dasharray="6.03145968"/><g transform="translate(816.3934840584178,1518.1937947019994) translate(-816.3934840584178,-1518.1937947019994)"><path fill="black" stroke="none" paint-order="stroke fill markers" d=" M 828.9590250584179 1511.9110242019995 L 816.3934840584178 1518.1937947019994 L 828.9590250584179 1524.4765652019994 Z"/></g></g><g><g/><path fill="none" stroke="black" paint-order="fill stroke markers" d=" M 748.5395626584178 1415.6589801419996 L 1162.2242544469023 1415.6589801419996 L 1162.2242544469023 1540.8117685019995 L 748.5395626584178 1540.8117685019995 L 748.5395626584178 1415.6589801419996 Z" stroke-miterlimit="10" stroke-width="2.154092742857143" stroke-dasharray=""/><path fill="white" stroke="black" paint-order="fill stroke markers" d=" M 748.5395626584178 1415.6589801419996 L 748.5395626584178 1433.7533591819995 L 803.4275434314648 1433.7533591819995 L 812.4747329514647 1424.7061696619996 L 812.4747329514647 1415.6589801419996 L 748.5395626584178 1415.6589801419996" stroke-miterlimit="10" stroke-width="2.154092742857143" stroke-dasharray=""/><text fill="black" stroke="none" font-family="sans-serif" font-size="8.8pt" font-style="normal" font-weight="bold" text-decoration="normal" x="763.6182118584178" y="1427.7218995019996" text-anchor="start" dominant-baseline="alphabetic">loop</text><text fill="black" stroke="none" font-family="sans-serif" font-size="8.8pt" font-style="normal" font-weight="bold" text-decoration="normal" x="827.5533821514647" y="1427.7218995019996" text-anchor="start" dominant-baseline="alphabetic">[Sending email]</text></g></g><g/><g/><g/><g/><g/><g/><g/></g></svg>