<?xml version="1.0" encoding="UTF-8"?>
<svg width="110px" height="40px" viewBox="0 0 110 40" version="1.1" xmlns="http://www.w3.org/2000/svg" xmlns:xlink="http://www.w3.org/1999/xlink">
    <!-- Generator: Sketch 46.2 (44496) - http://www.bohemiancoding.com/sketch -->
    <title>Logo</title>
    <desc>Created with Sketch.</desc>
    <defs></defs>
    <g id="WEB" stroke="none" stroke-width="1" fill="none" fill-rule="evenodd">
        <g id="HP_UI_bg2" transform="translate(-1075.000000, -4925.000000)" fill-rule="nonzero">
            <g id="Footer" transform="translate(-1.000000, 4832.000000)">
                <g id="Logo" transform="translate(1076.000000, 93.000000)">
                    <path d="M47.3337514,13.7676613 L47.2919276,19.3500341 L49.590868,19.3669833 C51.5065373,19.3805426 52.739998,18.4049494 52.7530251,16.6110511 C52.7667379,14.8178307 51.5737298,13.7981697 49.6326918,13.7839324 L47.3337514,13.7676613 Z M49.6518896,11.132407 C51.4907677,11.1459663 52.9436322,11.6625765 54.0344804,12.6802036 C55.1253287,13.673424 55.6772663,14.9913901 55.6656105,16.633424 C55.6484696,18.8808816 54.4348924,20.6408816 52.3855238,21.433424 L56.3409628,28.8632545 L53.0711606,28.8381697 L49.3927189,21.8903731 L47.2734154,21.8754579 L47.221307,28.7968138 L44.36083,28.7757968 L44.4917867,11.0957968 L49.6518896,11.132407 Z" id="Fill-8" fill="#edecec"></path>
                    <polygon id="Fill-10" fill="#edecec" points="70.1911016 11.2822375 70.1719037 13.9337629 62.9932858 13.8822375 62.959004 18.5046104 69.2174972 18.5507121 69.1976138 21.1771528 62.9391205 21.1310511 62.9014105 26.2591867 70.0793428 26.3107121 70.0594593 28.9622375 60.0210501 28.8903731 60.1526924 11.2096952"></polygon>
                    <polygon id="Fill-12" fill="#edecec" points="93.2844479 11.4510511 93.1528056 29.1317291 90.291643 29.1100341 90.3835184 16.8347799 89.8617487 18.272068 84.9532745 29.0713901 82.5775428 29.0537629 77.8562474 18.1846104 77.381101 16.7405426 77.2899113 29.0151189 74.4294344 28.9947799 74.560391 11.3141019 77.779456 11.3378307 83.3584831 23.6286782 83.7849493 24.7181697 84.2786078 23.6354579 90.0406999 11.4266443"></polygon>
                    <path d="M101.212124,14.1602714 L101.168929,19.9189155 L103.799718,19.9385765 C105.716073,19.9528138 106.950219,18.9012884 106.963246,17.108068 C106.976959,15.289085 105.784636,14.1941697 103.842913,14.1792545 L101.212124,14.1602714 Z M103.862796,11.5277291 C105.701674,11.5412884 107.154539,12.0572206 108.245387,13.1006104 C109.33555,14.1446782 109.887487,15.4877291 109.875146,17.129085 C109.86349,18.7704409 109.291669,20.0795935 108.185051,21.1073901 C107.079119,22.1101019 105.619398,22.6036613 103.78052,22.5907799 L101.149045,22.5711189 L101.09968,29.188746 L98.2392027,29.168407 L98.3708449,11.4877291 L103.862796,11.5277291 Z" id="Fill-14" fill="#edecec"></path>
                    <polygon id="Fill-1" fill="#edecec" points="15.5483929 -0.000135356 3.88708124 6.65749176 7.77395658 8.87579685 15.5483929 4.43783075 27.2097045 11.0961358 31.0965799 8.87579685"></polygon>
                    <polygon id="Fill-2" fill="#edecec" points="2.11000042e-07 31.0245426 3.88687555 33.2435257 3.88687555 15.5343731 15.5481872 22.1913223 15.5481872 17.7526782 2.11000042e-07 8.87606803"></polygon>
                    <polygon id="Fill-3" fill="#edecec" points="15.5482558 26.6298307 31.0964428 17.7525426 31.0964428 22.1911867 15.5482558 31.0677968"></polygon>
                    <polygon id="Fill-4" fill="#edecec" points="15.5482558 17.7533562 31.0964428 8.87606803 31.0964428 13.3147121 15.5482558 22.1913223"></polygon>
                    <polygon id="Fill-5" fill="#edecec" points="15.5483929 35.4635257 15.5483929 39.9014918 31.0965799 31.0242036 31.0965799 26.5862375"></polygon>
                    <polygon id="Fill-6" fill="#edecec" points="7.77388802 35.5062375 15.5483243 39.9014918 15.5483243 35.4635257 7.77388802 31.0675935"></polygon>
                    <polygon id="Fill-7" fill="#edecec" points="15.5482558 26.5655596 7.77381945 22.1696274 7.77381945 26.6075935 15.5482558 31.0035257"></polygon>
                </g>
            </g>
        </g>
    </g>
</svg>